<svg width="1271" height="293" viewBox="0 0 1271 293" fill="none" xmlns="http://www.w3.org/2000/svg">
<mask id="mask0_323_33977" style="mask-type:alpha" maskUnits="userSpaceOnUse" x="0" y="0" width="1271" height="293">
<rect width="1271" height="293" rx="4" fill="url(#paint0_linear_323_33977)"/>
</mask>
<g mask="url(#mask0_323_33977)">
<path d="M1227.16 191.458C1208.35 53.0337 1019.62 -34.8463 877.831 -33.0786C714.431 -31.0243 652.847 89.6045 528.499 52.9143C415.024 19.4726 408.338 -98.1466 324.915 -116.683C248.247 -133.714 126.929 -62.6028 -73 289.395" stroke="white" stroke-opacity="0.15" stroke-miterlimit="10"/>
<path d="M-63.4688 304.993C134.031 -41.9162 255.418 -115.775 333.173 -101.896C390.802 -91.5294 413.011 -34.4158 458.1 10.2289C480.605 33.2101 508.285 50.061 538.655 59.2687C638.133 89.5095 697.427 22.5784 803.73 -6.13366C830.826 -13.5367 858.671 -17.6256 886.691 -18.316C1029.06 -22.3051 1215.69 53.8703 1237.41 187.255" stroke="white" stroke-opacity="0.15" stroke-miterlimit="10"/>
<path d="M-53.9141 320.543C141.157 -21.2544 262.544 -97.8358 341.224 -87.0867C399.061 -79.1801 422.589 -24.7897 467.77 17.5857C490.814 39.7404 518.453 56.1701 548.579 65.6223C646.624 96.3647 705.894 36.0742 812.568 8.69979C839.677 1.68407 867.417 -2.41449 895.343 -3.5303C1038.32 -9.28705 1222.81 54.706 1247.45 183.05" stroke="white" stroke-opacity="0.15" stroke-miterlimit="10"/>
<path d="M-44.3818 336.046C148.213 -0.567933 269.67 -79.8486 349.368 -72.3003C407.459 -66.8063 432.213 -15.1867 477.557 24.9433C501.09 46.2583 528.667 62.2765 558.528 71.9766C655.231 103.221 714.27 49.5468 821.429 23.534C848.564 16.8427 876.231 12.7093 904.089 11.1844C1047.64 3.3973 1230.01 55.4708 1257.56 178.775" stroke="white" stroke-opacity="0.15" stroke-miterlimit="10"/>
<path d="M-34.8516 351.668C155.315 20.0941 276.748 -61.838 357.534 -57.4906C415.81 -54.3853 441.906 -5.53654 487.388 32.2764C511.428 52.7628 538.992 68.3868 568.637 78.3304C663.997 110.076 722.875 63.0428 830.566 38.3676C857.671 32.0671 885.206 27.9304 912.925 25.9942C1057.08 16.1767 1237.32 56.3545 1267.81 174.619" stroke="white" stroke-opacity="0.15" stroke-miterlimit="10"/>
<path d="M-25.4121 367.242C162.394 40.7554 283.897 -46.1452 365.701 -42.7055C424.092 -40.3168 451.599 3.94563 497.174 39.6327C521.709 59.2539 549.259 74.4825 578.678 84.6834C672.696 116.931 731.366 76.5379 839.427 53.2243C866.523 47.2512 893.964 43.0863 921.578 40.7553C1066.33 28.8119 1244.44 57.1657 1277.85 170.413" stroke="white" stroke-opacity="0.15" stroke-miterlimit="10"/>
<path d="M-15.7656 382.815C169.496 61.4408 290.906 -25.6509 373.844 -28.0396C432.42 -29.4251 461.339 13.5714 506.983 47.013C531.984 65.762 559.525 80.6039 588.717 91.0605C681.395 123.809 739.925 90.0334 848.38 68.0813C875.469 62.4646 902.819 58.2869 930.322 55.5646C1075.68 41.5907 1251.66 57.9532 1287.98 166.233" stroke="white" stroke-opacity="0.15" stroke-miterlimit="10"/>
<path d="M-6.2334 398.392C176.53 82.105 297.963 -7.68589 382.011 -13.1082C440.726 -16.9779 471.125 22.9849 516.793 54.3484C542.241 72.2074 569.783 86.6553 598.759 97.3448C690.071 130.619 748.462 103.508 857.334 82.8455C882.666 78.0681 909.71 73.4818 939.068 70.2571C1085.05 54.1812 1258.88 58.8152 1298.12 162.007" stroke="white" stroke-opacity="0.15" stroke-miterlimit="10"/>
<path d="M3.29785 413.965C183.678 102.79 305.019 10.5389 390.154 1.62905C449.032 -4.50989 480.934 32.4193 526.648 61.6568C552.544 78.6162 580.104 92.7002 608.868 103.674C698.839 137.45 757.045 116.931 866.356 97.6783C891.804 93.1876 918.779 88.6491 947.905 85.0183C1094.3 66.8642 1266.1 59.6504 1308.25 157.778" stroke="white" stroke-opacity="0.15" stroke-miterlimit="10"/>
<path d="M12.8525 429.515C190.78 123.452 312.075 28.7161 398.321 16.486C457.337 8.10173 490.859 41.9017 536.388 69.0372C562.697 85.0868 590.271 98.8148 618.816 110.075C707.468 144.353 765.512 130.474 875.24 112.464C900.688 108.26 927.686 103.721 956.581 99.708C1103.74 79.3564 1273.32 60.3424 1318.38 153.454" stroke="white" stroke-opacity="0.15" stroke-miterlimit="10"/>
<path d="M22.3828 445.088C197.858 144.113 319.13 46.9415 406.417 31.2717C465.572 20.6659 500.621 51.2889 546.149 76.4179C572.867 91.5228 600.474 104.886 628.809 116.429C716.096 151.208 773.979 143.946 884.145 127.417C909.709 123.547 936.638 118.984 965.278 114.613C1113.04 92.0639 1280.46 61.2975 1328.49 149.369" stroke="white" stroke-opacity="0.15" stroke-miterlimit="10"/>
<path d="M31.9131 460.663C204.96 164.8 326.231 65.1674 414.628 46.0578C473.945 33.2545 510.544 60.6527 555.98 83.7753C582.099 97.0564 608.843 110.457 638.895 122.783C724.84 158.04 782.56 157.443 893.143 142.25C918.777 138.691 945.659 134.105 974.114 129.375C1122.48 104.629 1287.77 62.1098 1338.69 145.165" stroke="white" stroke-opacity="0.15" stroke-miterlimit="10"/>
<path d="M41.4463 476.238C212.064 185.558 333.173 83.4414 422.773 60.8683C482.252 45.8435 520.471 69.9692 565.791 91.133C592.535 103.626 619.348 116.644 648.937 129.137C733.54 164.967 791.076 170.915 902.098 157.085C927.801 153.86 954.66 149.25 982.815 144.138C1131.76 117.146 1294.95 62.9226 1348.78 140.961" stroke="white" stroke-opacity="0.15" stroke-miterlimit="10"/>
<path d="M50.9307 491.812C219.142 206.149 340.367 101.739 430.916 75.6783C490.557 58.5036 530.395 79.2614 575.599 98.5142C602.991 110.171 629.85 122.831 658.884 135.515C742.168 171.775 799.496 184.435 911.051 171.966C936.846 169.028 963.636 164.394 991.559 158.948C1141.1 129.663 1302.16 63.7349 1358.91 136.757" stroke="white" stroke-opacity="0.15" stroke-miterlimit="10"/>
<path d="M60.5342 507.363C226.247 226.811 347.403 120.084 439.085 90.4644C498.911 71.116 540.345 88.4818 585.388 105.848C613.427 116.644 640.379 128.994 669.02 141.845C750.916 178.607 808.128 197.884 920.006 186.776C946.981 183.807 973.79 179.414 1000.33 173.615C1150.43 142.156 1309.45 64.5949 1369.05 132.529" stroke="white" stroke-opacity="0.15" stroke-miterlimit="10"/>
<path d="M70.0645 522.937C233.348 247.497 354.62 138.358 447.158 105.25C507.169 83.7522 550.222 97.6783 595.219 113.205C623.906 123.118 650.904 135.157 679.059 148.199C759.636 185.463 816.663 211.38 928.912 201.61C955.863 199.003 982.623 194.606 1009.03 188.449C1159.75 154.505 1316.6 65.4071 1379.2 128.23" stroke="white" stroke-opacity="0.15" stroke-miterlimit="10"/>
<path d="M79.5957 538.511C240.427 268.159 361.837 156.798 455.394 120.036C515.543 96.4356 560.239 106.826 605.005 120.538C634.339 129.543 661.384 141.343 689.076 154.552C768.289 192.318 825.176 224.852 937.911 216.443C964.837 214.166 991.553 209.742 1017.82 203.21C1169.05 167.021 1323.82 66.2426 1389.34 124.121" stroke="white" stroke-opacity="0.15" stroke-miterlimit="10"/>
<path d="M89.1504 554.085C247.53 288.94 368.87 175.167 463.537 134.846C523.941 109.096 570.187 115.927 614.791 127.895C644.866 135.944 671.887 147.506 699.116 160.906C776.987 199.125 833.69 238.348 946.864 231.301C973.763 229.34 1000.44 224.887 1026.56 217.996C1178.35 179.443 1331.04 67.0546 1399.47 119.916" stroke="white" stroke-opacity="0.15" stroke-miterlimit="10"/>
<path d="M98.6807 569.661C254.515 309.508 376.041 193.585 471.702 149.729C532.315 121.877 580.111 125.101 624.599 135.397C655.252 142.563 682.435 153.837 709.156 167.405C785.685 206.174 842.226 251.989 955.816 246.232C982.686 244.586 1009.32 240.104 1035.31 232.855C1187.65 191.913 1338.37 68.0355 1409.6 115.809" stroke="white" stroke-opacity="0.15" stroke-miterlimit="10"/>
<path d="M108.213 585.234C261.711 330.194 383.237 212.001 479.847 164.443C540.714 134.465 590.036 134.035 634.409 142.61C665.71 148.677 692.916 159.88 719.197 173.663C794.361 212.933 850.74 265.365 964.77 261.017C991.611 259.7 1018.21 255.187 1044.05 247.569C1196.93 204.167 1345.47 68.7039 1419.73 111.509" stroke="white" stroke-opacity="0.15" stroke-miterlimit="10"/>
<path d="M117.768 600.785C268.813 350.856 390.432 230.538 487.921 179.229C549.019 147.173 599.846 143.04 644.102 149.968C676.051 154.96 703.327 166.043 729.122 179.946C802.967 219.741 859.184 278.814 973.631 275.804C1000.45 274.79 1027.03 270.247 1052.73 262.284C1206.02 216.23 1352.6 69.5404 1429.82 107.282" stroke="white" stroke-opacity="0.15" stroke-miterlimit="10"/>
<path d="M127.275 616.359C368.43 219 538.886 143.469 654.003 157.324C779.67 172.444 827.628 292.858 982.676 290.661C1164.56 288.057 1346.33 64.8098 1440 103.077" stroke="white" stroke-opacity="0.15" stroke-miterlimit="10"/>
<g opacity="0.2">
<g clip-path="url(#clip0_323_33977)">
<path fill-rule="evenodd" clip-rule="evenodd" d="M1164.32 125.187C1164.09 125.416 1163.85 125.646 1163.61 125.876C1157.11 132.304 1151.76 139.798 1147.78 148.032C1143.77 156.535 1141.44 165.733 1140.93 175.12C1140.87 176.358 1140.83 177.597 1140.84 178.834H1140.75H1136.94C1127.53 179.334 1118.31 181.662 1109.79 185.688C1102.77 189.024 1096.29 193.377 1090.54 198.607C1089.55 199.498 1088.59 200.424 1087.63 201.349C1081.18 207.823 1075.88 215.343 1071.94 223.59C1067.94 232.088 1065.61 241.281 1065.09 250.662C1064.58 260.654 1066.19 270.64 1069.82 279.963C1073.06 288.137 1077.7 295.686 1083.52 302.272L1113.04 272.663C1111.24 270.387 1109.79 267.859 1108.73 265.158C1106.67 260.256 1106.09 254.862 1107.05 249.634C1107.52 246.819 1108.38 244.085 1109.62 241.512C1113.5 233.464 1120.04 227.01 1128.14 223.247C1131.07 221.817 1134.22 220.879 1137.46 220.471C1138.21 220.197 1139 220.197 1139.82 220.197H1139.82C1143.91 220.037 1147.99 220.762 1151.77 222.322C1154.17 223.259 1156.45 224.483 1158.55 225.965C1160.24 227.982 1162.03 229.916 1163.92 231.761L1207.37 275.149L1207.61 274.909L1236.81 245.732L1236.69 245.61L1237.15 245.145L1193.59 201.966C1192.6 200.825 1191.53 199.823 1190.51 198.861C1190.39 198.753 1190.28 198.646 1190.16 198.539C1189.81 198.217 1189.46 197.899 1189.1 197.584C1187.28 195.115 1185.76 192.425 1184.59 189.571C1183.03 185.76 1182.31 181.663 1182.46 177.551L1182.47 177.454C1182.57 176.354 1182.67 175.224 1182.87 174.126C1183.35 171.312 1184.23 168.58 1185.48 166.01C1189.28 158.019 1195.72 151.576 1203.71 147.758C1206.65 146.347 1209.79 145.41 1213.03 144.984C1213.78 144.744 1214.57 144.744 1215.36 144.744C1219.46 144.551 1223.56 145.264 1227.35 146.833C1232.18 148.829 1236.52 151.829 1240.1 155.634L1283.55 198.988L1312.98 169.64L1269.6 126.115C1261.85 118.169 1252.51 111.949 1242.19 107.863C1235.2 105.135 1227.82 103.528 1220.33 103.103C1217.86 102.966 1215.39 102.966 1212.92 103.103C1203.49 103.688 1194.26 106.108 1185.75 110.226C1178.74 113.571 1172.25 117.92 1166.49 123.136C1165.75 123.805 1165.04 124.494 1164.32 125.187Z" fill="white"/>
</g>
<mask id="mask1_323_33977" style="mask-type:alpha" maskUnits="userSpaceOnUse" x="1065" y="104" width="248" height="209">
<path fill-rule="evenodd" clip-rule="evenodd" d="M1164.32 127.773C1164.09 128.013 1163.85 128.253 1163.61 128.493C1157.11 135.215 1151.75 143.051 1147.78 151.661C1143.77 160.553 1141.44 170.171 1140.93 179.986C1140.86 181.282 1140.83 182.577 1140.83 183.871H1140.74H1136.94C1127.53 184.394 1118.31 186.828 1109.78 191.038C1102.77 194.526 1096.28 199.079 1090.54 204.548C1089.55 205.479 1088.59 206.447 1087.63 207.414C1081.18 214.184 1075.88 222.048 1071.94 230.671C1067.94 239.558 1065.61 249.17 1065.09 258.98C1064.58 269.428 1066.19 279.87 1069.82 289.619C1073.06 298.166 1077.69 306.06 1083.52 312.947L1113.04 281.986C1111.24 279.606 1109.78 276.962 1108.72 274.138C1106.67 269.012 1106.09 263.372 1107.05 257.905C1107.51 254.962 1108.38 252.102 1109.61 249.412C1113.49 240.996 1120.04 234.247 1128.14 230.313C1131.07 228.817 1134.22 227.836 1137.46 227.41C1138.21 227.123 1139 227.123 1139.82 227.123H1139.82C1143.91 226.956 1147.99 227.714 1151.77 229.345C1154.17 230.325 1156.45 231.605 1158.54 233.155C1160.23 235.263 1162.03 237.286 1163.92 239.214L1207.37 284.584L1207.61 284.333L1236.81 253.824L1236.68 253.697L1237.15 253.211L1193.59 208.059C1192.6 206.867 1191.53 205.819 1190.51 204.812C1190.39 204.7 1190.28 204.588 1190.16 204.476C1189.81 204.139 1189.46 203.806 1189.1 203.477C1187.28 200.895 1185.76 198.082 1184.58 195.097C1183.03 191.113 1182.31 186.828 1182.46 182.528L1182.47 182.427C1182.57 181.277 1182.67 180.095 1182.87 178.948C1183.35 176.005 1184.23 173.148 1185.47 170.461C1189.28 162.104 1195.71 155.367 1203.7 151.375C1206.64 149.899 1209.79 148.92 1213.02 148.474C1213.78 148.223 1214.57 148.223 1215.35 148.223C1219.46 148.021 1223.55 148.767 1227.35 150.408C1232.17 152.494 1236.52 155.632 1240.1 159.611L1283.55 204.945L1312.98 174.257L1269.6 128.743C1261.85 120.434 1252.51 113.93 1242.19 109.657C1235.19 106.804 1227.82 105.124 1220.32 104.68C1217.86 104.536 1215.39 104.536 1212.92 104.68C1203.49 105.292 1194.26 107.822 1185.75 112.128C1178.73 115.626 1172.25 120.174 1166.49 125.628C1165.74 126.328 1165.03 127.048 1164.32 127.773Z" fill="#222239"/>
</mask>
<g mask="url(#mask1_323_33977)">
<g filter="url(#filter0_d_323_33977)">
<path fill-rule="evenodd" clip-rule="evenodd" d="M1123.93 10.7391C1138.03 -5.14826 1146.32 -26.5652 1165.12 -36.4619C1184.25 -46.5283 1207.64 -50.2918 1228.42 -44.2491C1248.28 -38.4715 1256.24 -13.7832 1274.77 -4.57131C1298.14 7.04947 1334.06 -5.67867 1349.01 15.7109C1363.09 35.8591 1340.93 62.9552 1339.09 87.4462C1337.23 112.348 1356.06 143.714 1338.13 161.083C1318.85 179.766 1285.12 158.825 1258.98 165.058C1239.81 169.631 1226.79 187.632 1207.62 192.212C1183.63 197.944 1153.78 210.616 1134.9 194.702C1115.45 178.297 1133.26 143.889 1122.81 120.696C1112.56 97.9578 1075.73 88.8751 1075.98 63.952C1076.23 39.652 1107.81 28.9043 1123.93 10.7391Z" fill="white"/>
</g>
</g>
<path fill-rule="evenodd" clip-rule="evenodd" d="M1344.36 243.067C1345.35 242.136 1346.3 241.168 1347.22 240.201C1353.74 233.466 1359.12 225.599 1363.11 216.944C1367.1 208.052 1369.42 198.423 1369.91 188.599C1370.41 178.161 1368.8 167.73 1365.18 157.996C1361.98 149.44 1357.37 141.544 1351.58 134.668L1322.18 165.486C1323.88 167.948 1325.26 170.635 1326.3 173.477C1327.83 177.491 1328.55 181.801 1328.41 186.126C1328.34 187.328 1328.2 188.525 1328 189.71C1327.53 192.653 1326.67 195.513 1325.45 198.203C1321.67 206.565 1315.28 213.308 1307.35 217.302C1304.42 218.795 1301.28 219.787 1298.06 220.241C1297.31 220.456 1296.53 220.456 1295.75 220.456C1291.68 220.648 1287.62 219.914 1283.84 218.306C1280.52 216.883 1277.45 214.911 1274.72 212.465C1274.71 212.452 1274.69 212.44 1274.68 212.427C1273.51 211.071 1272.3 209.753 1271.05 208.477L1227.63 163.029L1227.39 163.28L1198.19 193.806L1241.65 239.29C1245.4 243.044 1248.39 247.56 1250.42 252.562C1252.43 257.715 1253.03 263.358 1252.13 268.847C1251.63 271.79 1250.75 274.649 1249.53 277.349C1247.64 281.52 1245.08 285.319 1241.95 288.576C1238.85 291.814 1235.25 294.482 1231.3 296.468C1228.36 297.946 1225.21 298.927 1221.98 299.373C1221.19 299.624 1220.43 299.624 1219.61 299.624C1215.51 299.821 1211.41 299.074 1207.62 297.436C1202.81 295.336 1198.47 292.194 1194.9 288.217L1151.45 242.734L1122.02 273.546L1165.36 318.815C1173.12 327.133 1182.46 333.648 1192.78 337.934C1199.78 340.768 1207.15 342.45 1214.64 342.92C1217.11 343.081 1219.58 343.081 1222.04 342.92C1231.46 342.398 1240.69 339.962 1249.22 335.746C1256.23 332.241 1262.72 327.686 1268.48 322.223C1269.47 321.29 1270.43 320.322 1271.39 319.354L1271.39 319.353C1277.89 312.63 1283.24 304.793 1287.22 296.181C1291.23 287.274 1293.56 277.639 1294.08 267.807C1294.14 266.452 1294.17 265.097 1294.16 263.744H1294.49H1298.26C1307.61 263.204 1316.77 260.771 1325.24 256.577C1332.21 253.076 1338.65 248.525 1344.36 243.067Z" fill="white"/>
<mask id="mask2_323_33977" style="mask-type:alpha" maskUnits="userSpaceOnUse" x="1122" y="134" width="248" height="210">
<path fill-rule="evenodd" clip-rule="evenodd" d="M1344.36 243.067C1345.35 242.136 1346.3 241.168 1347.22 240.201C1353.74 233.466 1359.12 225.599 1363.11 216.944C1367.1 208.052 1369.42 198.423 1369.91 188.599C1370.41 178.161 1368.8 167.73 1365.18 157.996C1361.98 149.44 1357.37 141.544 1351.58 134.668L1322.18 165.486C1323.88 167.948 1325.26 170.635 1326.3 173.477C1327.83 177.491 1328.55 181.801 1328.41 186.126C1328.34 187.328 1328.2 188.525 1328 189.71C1327.53 192.653 1326.67 195.513 1325.45 198.203C1321.67 206.565 1315.28 213.308 1307.35 217.302C1304.42 218.795 1301.28 219.787 1298.06 220.241C1297.31 220.456 1296.53 220.456 1295.75 220.456C1291.68 220.648 1287.62 219.914 1283.84 218.306C1280.52 216.883 1277.45 214.911 1274.72 212.465C1274.71 212.452 1274.69 212.44 1274.68 212.427C1273.51 211.071 1272.3 209.753 1271.05 208.477L1227.63 163.029L1227.39 163.28L1198.19 193.806L1241.65 239.29C1245.4 243.044 1248.39 247.56 1250.42 252.562C1252.43 257.715 1253.03 263.358 1252.13 268.847C1251.63 271.79 1250.75 274.649 1249.53 277.349C1247.64 281.52 1245.08 285.319 1241.95 288.576C1238.85 291.814 1235.25 294.482 1231.3 296.468C1228.36 297.946 1225.21 298.927 1221.98 299.373C1221.19 299.624 1220.43 299.624 1219.61 299.624C1215.51 299.821 1211.41 299.074 1207.62 297.436C1202.81 295.336 1198.47 292.194 1194.9 288.217L1151.45 242.734L1122.02 273.546L1165.36 318.815C1173.12 327.133 1182.46 333.648 1192.78 337.934C1199.78 340.768 1207.15 342.45 1214.64 342.92C1217.11 343.081 1219.58 343.081 1222.04 342.92C1231.46 342.398 1240.69 339.962 1249.22 335.746C1256.23 332.241 1262.72 327.686 1268.48 322.223C1269.47 321.29 1270.43 320.322 1271.39 319.354L1271.39 319.353C1277.89 312.63 1283.24 304.793 1287.22 296.181C1291.23 287.274 1293.56 277.639 1294.08 267.807C1294.14 266.452 1294.17 265.097 1294.16 263.744H1294.49H1298.26C1307.61 263.204 1316.77 260.771 1325.24 256.577C1332.21 253.076 1338.65 248.525 1344.36 243.067Z" fill="#222239"/>
</mask>
<g mask="url(#mask2_323_33977)">
<g filter="url(#filter1_d_323_33977)">
<path fill-rule="evenodd" clip-rule="evenodd" d="M1124.86 231.35C1130.44 222.19 1136.69 211.571 1147.15 209.252C1157.45 206.97 1166.42 215.732 1176.05 220.006C1184.1 223.582 1192.18 226.342 1198.79 232.174C1206.76 239.216 1214.89 246.606 1217.78 256.853C1221.18 268.891 1223.46 283.316 1216.1 293.448C1208.75 303.551 1193.6 301.931 1181.89 306.246C1170.05 310.606 1159.28 322.392 1147.19 318.837C1135.11 315.281 1130.77 300.624 1124.89 289.478C1120.01 280.213 1116.21 270.554 1116.21 260.071C1116.2 249.826 1119.53 240.106 1124.86 231.35Z" fill="white"/>
</g>
<g filter="url(#filter2_d_323_33977)">
<path fill-rule="evenodd" clip-rule="evenodd" d="M1339.34 130.238C1350.07 130.244 1362.39 130.065 1369.8 137.797C1377.1 145.408 1374.28 157.626 1375.63 168.073C1376.76 176.813 1378.6 185.15 1377.05 193.825C1375.18 204.299 1373.09 215.08 1365.84 222.878C1357.32 232.04 1346.18 241.481 1333.69 240.455C1321.25 239.432 1314.76 225.639 1304.98 217.875C1295.11 210.031 1279.44 206.949 1276.2 194.776C1272.96 182.603 1283.23 171.281 1289.69 160.469C1295.07 151.481 1301.35 143.219 1310.31 137.767C1319.06 132.439 1329.09 130.233 1339.34 130.238Z" fill="white"/>
</g>
</g>
</g>
<g opacity="0.2">
<g clip-path="url(#clip1_323_33977)">
<path fill-rule="evenodd" clip-rule="evenodd" d="M-26.6759 -31.8127C-26.9115 -31.5836 -27.1476 -31.354 -27.3858 -31.1245C-33.889 -24.6955 -39.2434 -17.2019 -43.2172 -8.96807C-47.2278 -0.464836 -49.555 8.73326 -50.0707 18.1196C-50.1347 19.3582 -50.1657 20.5968 -50.164 21.834H-50.254H-54.0554C-63.4666 22.334 -72.6906 24.6619 -81.2131 28.6879C-88.2287 32.0238 -94.7141 36.3772 -100.46 41.6074C-101.453 42.4984 -102.412 43.4236 -103.371 44.3489C-109.817 50.8229 -115.12 58.3429 -119.056 66.5896C-123.061 75.0881 -125.386 84.2809 -125.905 93.6624C-126.417 103.654 -124.807 113.64 -121.179 122.963C-117.939 131.137 -113.304 138.686 -107.48 145.272L-77.9597 115.663C-79.759 113.387 -81.2131 110.859 -82.2748 108.158C-84.3261 103.256 -84.9091 97.8623 -83.9529 92.6343C-83.4837 89.8194 -82.619 87.085 -81.3844 84.5125C-77.504 76.4641 -70.9569 70.0095 -62.8569 66.247C-59.925 64.8166 -56.7779 63.8788 -53.5417 63.4711C-52.7883 63.197 -52.0007 63.197 -51.1788 63.197H-51.1787C-47.0883 63.0368 -43.0115 63.7615 -39.2266 65.3217C-36.8261 66.2585 -34.5521 67.4829 -32.4534 68.9654C-30.7633 70.982 -28.9695 72.9164 -27.0774 74.7605L16.3733 118.149L16.6132 117.909L45.8088 88.7324L45.6857 88.6097L46.1507 88.145L2.58878 44.9657C1.60309 43.8253 0.534286 42.8235 -0.493042 41.8605C-0.60791 41.7528 -0.72226 41.6457 -0.835915 41.5388C-1.18698 41.2171 -1.54087 40.8987 -1.89754 40.5838C-3.72191 38.1149 -5.24064 35.4247 -6.41432 32.5709C-7.96763 28.7602 -8.69185 24.6629 -8.53889 20.551L-8.53005 20.4539C-8.43011 19.3543 -8.3274 18.2242 -8.12769 17.1265C-7.64603 14.3122 -6.76929 11.5799 -5.52338 9.01047C-1.71836 1.01896 4.71719 -5.42449 12.7067 -9.24203C15.6473 -10.6534 18.7933 -11.5897 22.0274 -12.0159C22.7813 -12.2556 23.5694 -12.2556 24.3576 -12.2556C28.4605 -12.4491 32.5556 -11.7359 36.3511 -10.1666C41.1775 -8.17113 45.5231 -5.17089 49.0985 -1.36572L92.5492 41.9882L121.985 12.6404L78.6025 -30.8848C70.8531 -38.8307 61.5112 -45.0507 51.1888 -49.1373C44.1978 -51.8654 36.8193 -53.4719 29.3263 -53.8973C26.861 -54.0342 24.39 -54.0342 21.9246 -53.8973C12.4893 -53.3117 3.25899 -50.8922 -5.24924 -46.7744C-12.2621 -43.4288 -18.7497 -39.0796 -24.5074 -33.8641C-25.2544 -33.1948 -25.9627 -32.5061 -26.6759 -31.8127Z" fill="white"/>
</g>
<mask id="mask3_323_33977" style="mask-type:alpha" maskUnits="userSpaceOnUse" x="-126" y="-58" width="249" height="214">
<path fill-rule="evenodd" clip-rule="evenodd" d="M-26.5119 -34.7992C-26.7475 -34.5597 -26.9836 -34.3197 -27.2218 -34.0796C-33.7249 -27.357 -39.0793 -19.5211 -43.0532 -10.9112C-47.0638 -2.01957 -49.391 7.59866 -49.9066 17.4137C-50.0627 20.5725 -50.0227 23.7308 -49.7895 26.8691H-50.256H-54.0574C-63.4686 27.392 -72.6926 29.8262 -81.2151 34.036C-88.2307 37.5244 -94.7161 42.0766 -100.462 47.5457C-101.455 48.4774 -102.414 49.4449 -103.373 50.4124C-109.819 57.1821 -115.122 65.0456 -119.058 73.669C-123.063 82.5556 -125.388 92.1683 -125.907 101.978C-126.419 112.426 -124.809 122.868 -121.181 132.617C-117.941 141.165 -113.306 149.058 -107.482 155.945L-77.9616 124.984C-79.761 122.604 -81.215 119.96 -82.2767 117.136C-84.3281 112.01 -84.9111 106.37 -83.9548 100.903C-83.4857 97.9598 -82.6209 95.1005 -81.3863 92.4105C-77.506 83.9945 -70.9588 77.2451 -62.8588 73.3107C-59.927 71.815 -56.7799 70.8343 -53.5437 70.4081C-52.7903 70.1214 -52.0026 70.1214 -51.1806 70.1214C-47.0903 69.9539 -43.0135 70.7118 -39.2285 72.3432C-35.8646 73.716 -32.7491 75.6792 -30.0161 78.1483C-28.9202 79.1875 -27.7558 80.2984 -26.5915 81.5168L16.7307 126.955L46.1487 96.209L43.6789 93.649L45.9729 91.2519L2.52213 45.9535C-1.2685 42.1677 -4.25699 37.5931 -6.25027 32.5251C-7.80358 28.5404 -8.5278 24.2559 -8.37484 19.9562L-8.366 19.8546C-8.26606 18.7048 -8.16335 17.5231 -7.96364 16.3753C-7.48198 13.4324 -6.60524 10.5753 -5.35934 7.88853C-1.55431 -0.467995 4.88123 -7.20576 12.8708 -11.1977C15.8113 -12.6736 18.9573 -13.6526 22.1915 -14.0982C22.9453 -14.3489 23.7335 -14.3489 24.5216 -14.3489C28.6245 -14.5513 32.7197 -13.8054 36.5151 -12.1645C41.3415 -10.0779 45.6871 -6.94057 49.2625 -2.9616L92.7133 42.3726L122.149 11.6843L78.7665 -33.829C71.0171 -42.1378 61.6752 -48.6419 51.3528 -52.9152C44.3619 -55.7679 36.9833 -57.4478 29.4904 -57.8926C27.025 -58.0358 24.554 -58.0358 22.0887 -57.8926C12.6534 -57.2802 3.42302 -54.7502 -5.0852 -50.4443C-12.0981 -46.9459 -18.5857 -42.3981 -24.3433 -36.9443C-25.0904 -36.2445 -25.7987 -35.5244 -26.5119 -34.7992Z" fill="#222239"/>
</mask>
<g mask="url(#mask3_323_33977)">
<g filter="url(#filter3_d_323_33977)">
<path fill-rule="evenodd" clip-rule="evenodd" d="M-69.0684 -138.261C-54.9654 -154.148 -46.6845 -175.565 -27.8795 -185.462C-8.75221 -195.528 14.6391 -199.292 35.4158 -193.249C55.2808 -187.471 63.2423 -162.783 81.7694 -153.571C105.141 -141.951 141.056 -154.679 156.008 -133.289C170.093 -113.141 147.926 -86.0448 146.095 -61.5538C144.232 -36.6524 163.063 -5.28599 145.134 12.0828C125.849 30.7659 92.1158 9.82481 65.9812 16.0583C46.8109 20.6308 33.7901 38.6325 14.6216 43.2121C-9.36941 48.9438 -39.2227 61.6162 -58.096 45.7019C-77.5515 29.2967 -59.7403 -5.11066 -70.1917 -28.3036C-80.4383 -51.0422 -117.27 -60.1249 -117.015 -85.048C-116.767 -109.348 -85.1933 -120.096 -69.0684 -138.261Z" fill="white"/>
</g>
</g>
<path fill-rule="evenodd" clip-rule="evenodd" d="M153.363 86.0674C154.349 85.1357 155.302 84.1682 156.22 83.2006C162.744 76.4659 168.118 68.5989 172.108 59.944C176.105 51.0516 178.416 41.4235 178.912 31.5989C179.407 21.1606 177.796 10.7304 174.183 0.996246C170.981 -7.56003 166.374 -15.4564 160.575 -22.332L131.181 8.48566C132.879 10.9485 134.263 13.6351 135.298 16.4768C136.834 20.4911 137.553 24.8007 137.407 29.1264C137.339 30.3284 137.203 31.525 136.999 32.7098C136.533 35.6533 135.674 38.5126 134.447 41.2026C130.669 49.5651 124.28 56.3076 116.348 60.3024C113.42 61.7953 110.285 62.7872 107.06 63.2408C106.312 63.4558 105.529 63.4558 104.747 63.4558C100.677 63.6478 96.6163 62.9145 92.8398 61.3058C89.5247 59.8826 86.4467 57.9107 83.7222 55.4647C83.7083 55.4523 83.6945 55.4398 83.6806 55.4273C82.5138 54.0706 81.3022 52.753 80.0475 51.4772L36.6298 6.0293L36.39 6.28039L7.19355 36.8062L50.6455 82.29C54.4009 86.0441 57.3859 90.56 59.4181 95.5621C61.4348 100.715 62.0284 106.358 61.1315 111.847C60.6292 114.79 59.7533 117.649 58.5271 120.349C56.6399 124.52 54.0778 128.319 50.9539 131.576C47.8498 134.814 44.247 137.482 40.2965 139.468C37.3559 140.946 34.2098 141.927 30.9756 142.373C30.1874 142.624 29.4335 142.624 28.6111 142.624C24.5084 142.821 20.4144 142.074 16.6173 140.436C11.806 138.336 7.47344 135.194 3.90382 131.217L-39.5481 85.7336L-68.9844 116.546L-25.6353 161.815C-17.8817 170.133 -8.54058 176.648 1.77921 180.934C8.77717 183.768 16.1523 185.45 23.6422 185.92C26.1071 186.081 28.5792 186.081 31.0441 185.92C40.4614 185.398 49.6915 182.962 58.2187 178.746C65.2318 175.241 71.7195 170.686 77.4774 165.223C78.4709 164.29 79.4302 163.322 80.3895 162.354L80.3902 162.353C86.8903 155.63 92.2447 147.793 96.222 139.181C100.233 130.274 102.56 120.639 103.076 110.807C103.141 109.452 103.17 108.097 103.164 106.744H103.488H107.265C116.611 106.204 125.771 103.771 134.243 99.577C141.205 96.0761 147.646 91.5251 153.363 86.0674Z" fill="white"/>
<mask id="mask4_323_33977" style="mask-type:alpha" maskUnits="userSpaceOnUse" x="-69" y="-23" width="248" height="210">
<path fill-rule="evenodd" clip-rule="evenodd" d="M153.363 86.0674C154.349 85.1357 155.302 84.1682 156.22 83.2006C162.744 76.4659 168.118 68.5989 172.108 59.944C176.105 51.0516 178.416 41.4235 178.912 31.5989C179.407 21.1606 177.796 10.7304 174.183 0.996246C170.981 -7.56003 166.374 -15.4564 160.575 -22.332L131.181 8.48566C132.879 10.9485 134.263 13.6351 135.298 16.4768C136.834 20.4911 137.553 24.8007 137.407 29.1264C137.339 30.3284 137.203 31.525 136.999 32.7098C136.533 35.6533 135.674 38.5126 134.447 41.2026C130.669 49.5651 124.28 56.3076 116.348 60.3024C113.42 61.7953 110.285 62.7872 107.06 63.2408C106.312 63.4558 105.529 63.4558 104.747 63.4558C100.677 63.6478 96.6163 62.9145 92.8398 61.3058C89.5247 59.8826 86.4467 57.9107 83.7222 55.4647C83.7083 55.4523 83.6945 55.4398 83.6806 55.4273C82.5138 54.0706 81.3022 52.753 80.0475 51.4772L36.6298 6.0293L36.39 6.28039L7.19355 36.8062L50.6455 82.29C54.4009 86.0441 57.3859 90.56 59.4181 95.5621C61.4348 100.715 62.0284 106.358 61.1315 111.847C60.6292 114.79 59.7533 117.649 58.5271 120.349C56.6399 124.52 54.0778 128.319 50.9539 131.576C47.8498 134.814 44.247 137.482 40.2965 139.468C37.3559 140.946 34.2098 141.927 30.9756 142.373C30.1874 142.624 29.4335 142.624 28.6111 142.624C24.5084 142.821 20.4144 142.074 16.6173 140.436C11.806 138.336 7.47344 135.194 3.90382 131.217L-39.5481 85.7336L-68.9844 116.546L-25.6353 161.815C-17.8817 170.133 -8.54058 176.648 1.77921 180.934C8.77717 183.768 16.1523 185.45 23.6422 185.92C26.1071 186.081 28.5792 186.081 31.0441 185.92C40.4614 185.398 49.6915 182.962 58.2187 178.746C65.2318 175.241 71.7195 170.686 77.4774 165.223C78.4709 164.29 79.4302 163.322 80.3895 162.354L80.3902 162.353C86.8903 155.63 92.2447 147.793 96.222 139.181C100.233 130.274 102.56 120.639 103.076 110.807C103.141 109.452 103.17 108.097 103.164 106.744H103.488H107.265C116.611 106.204 125.771 103.771 134.243 99.577C141.205 96.0761 147.646 91.5251 153.363 86.0674Z" fill="#222239"/>
</mask>
<g mask="url(#mask4_323_33977)">
<g filter="url(#filter4_d_323_33977)">
<path fill-rule="evenodd" clip-rule="evenodd" d="M-66.1364 74.3502C-60.5588 65.1898 -54.3102 54.5708 -43.8495 52.2523C-33.5541 49.9704 -24.5825 58.7318 -14.9542 63.006C-6.89916 66.5818 1.17943 69.3416 7.78586 75.1742C15.7617 82.2158 23.8863 89.6058 26.7812 99.8529C30.1823 111.891 32.4596 126.316 25.0965 136.448C17.754 146.551 2.59633 144.931 -9.11493 149.246C-20.9485 153.606 -31.7242 165.392 -43.8087 161.837C-55.8935 158.281 -60.2304 143.624 -66.107 132.478C-70.9917 123.213 -74.7872 113.554 -74.7925 103.071C-74.7977 92.826 -71.468 83.1063 -66.1364 74.3502Z" fill="url(#paint1_linear_323_33977)"/>
</g>
<g filter="url(#filter5_d_323_33977)">
<path fill-rule="evenodd" clip-rule="evenodd" d="M148.342 -26.7616C159.067 -26.7562 171.387 -26.9355 178.804 -19.2027C186.103 -11.5923 183.279 0.625721 184.631 11.0731C185.761 19.8133 187.601 28.1497 186.051 36.8249C184.179 47.2985 182.087 58.0801 174.837 65.8783C166.318 75.0396 155.177 84.4811 142.695 83.4549C130.247 82.4316 123.755 68.6391 113.983 60.8754C104.108 53.0307 88.4389 49.9485 85.1972 37.7761C81.9554 25.6033 92.225 14.2814 98.6944 3.46858C104.072 -5.51894 110.352 -13.7809 119.306 -19.2328C128.056 -24.561 138.091 -26.7668 148.342 -26.7616Z" fill="white"/>
</g>
</g>
</g>
</g>
<defs>
<filter id="filter0_d_323_33977" x="1042.08" y="-63.0769" width="345.483" height="317.385" filterUnits="userSpaceOnUse" color-interpolation-filters="sRGB">
<feFlood flood-opacity="0" result="BackgroundImageFix"/>
<feColorMatrix in="SourceAlpha" type="matrix" values="0 0 0 0 0 0 0 0 0 0 0 0 0 0 0 0 0 0 127 0" result="hardAlpha"/>
<feOffset dy="17.9771"/>
<feGaussianBlur stdDeviation="16.9499"/>
<feComposite in2="hardAlpha" operator="out"/>
<feColorMatrix type="matrix" values="0 0 0 0 0 0 0 0 0 0 0 0 0 0 0 0 0 0 0.15 0"/>
<feBlend mode="normal" in2="BackgroundImageFix" result="effect1_dropShadow_323_33977"/>
<feBlend mode="normal" in="SourceGraphic" in2="effect1_dropShadow_323_33977" result="shape"/>
</filter>
<filter id="filter1_d_323_33977" x="1082.31" y="190.388" width="172.571" height="178.417" filterUnits="userSpaceOnUse" color-interpolation-filters="sRGB">
<feFlood flood-opacity="0" result="BackgroundImageFix"/>
<feColorMatrix in="SourceAlpha" type="matrix" values="0 0 0 0 0 0 0 0 0 0 0 0 0 0 0 0 0 0 127 0" result="hardAlpha"/>
<feOffset dy="15.409"/>
<feGaussianBlur stdDeviation="16.9499"/>
<feComposite in2="hardAlpha" operator="out"/>
<feColorMatrix type="matrix" values="0 0 0 0 0 0 0 0 0 0 0 0 0 0 0 0 0 0 0.15 0"/>
<feBlend mode="normal" in2="BackgroundImageFix" result="effect1_dropShadow_323_33977"/>
<feBlend mode="normal" in="SourceGraphic" in2="effect1_dropShadow_323_33977" result="shape"/>
</filter>
<filter id="filter2_d_323_33977" x="1241.68" y="111.748" width="169.866" height="178.092" filterUnits="userSpaceOnUse" color-interpolation-filters="sRGB">
<feFlood flood-opacity="0" result="BackgroundImageFix"/>
<feColorMatrix in="SourceAlpha" type="matrix" values="0 0 0 0 0 0 0 0 0 0 0 0 0 0 0 0 0 0 127 0" result="hardAlpha"/>
<feOffset dy="15.409"/>
<feGaussianBlur stdDeviation="16.9499"/>
<feComposite in2="hardAlpha" operator="out"/>
<feColorMatrix type="matrix" values="0 0 0 0 0 0 0 0 0 0 0 0 0 0 0 0 0 0 0.15 0"/>
<feBlend mode="normal" in2="BackgroundImageFix" result="effect1_dropShadow_323_33977"/>
<feBlend mode="normal" in="SourceGraphic" in2="effect1_dropShadow_323_33977" result="shape"/>
</filter>
<filter id="filter3_d_323_33977" x="-150.916" y="-212.077" width="345.483" height="317.385" filterUnits="userSpaceOnUse" color-interpolation-filters="sRGB">
<feFlood flood-opacity="0" result="BackgroundImageFix"/>
<feColorMatrix in="SourceAlpha" type="matrix" values="0 0 0 0 0 0 0 0 0 0 0 0 0 0 0 0 0 0 127 0" result="hardAlpha"/>
<feOffset dy="17.9771"/>
<feGaussianBlur stdDeviation="16.9499"/>
<feComposite in2="hardAlpha" operator="out"/>
<feColorMatrix type="matrix" values="0 0 0 0 0 0 0 0 0 0 0 0 0 0 0 0 0 0 0.15 0"/>
<feBlend mode="normal" in2="BackgroundImageFix" result="effect1_dropShadow_323_33977"/>
<feBlend mode="normal" in="SourceGraphic" in2="effect1_dropShadow_323_33977" result="shape"/>
</filter>
<filter id="filter4_d_323_33977" x="-108.693" y="33.3881" width="172.571" height="178.417" filterUnits="userSpaceOnUse" color-interpolation-filters="sRGB">
<feFlood flood-opacity="0" result="BackgroundImageFix"/>
<feColorMatrix in="SourceAlpha" type="matrix" values="0 0 0 0 0 0 0 0 0 0 0 0 0 0 0 0 0 0 127 0" result="hardAlpha"/>
<feOffset dy="15.409"/>
<feGaussianBlur stdDeviation="16.9499"/>
<feComposite in2="hardAlpha" operator="out"/>
<feColorMatrix type="matrix" values="0 0 0 0 0 0 0 0 0 0 0 0 0 0 0 0 0 0 0.15 0"/>
<feBlend mode="normal" in2="BackgroundImageFix" result="effect1_dropShadow_323_33977"/>
<feBlend mode="normal" in="SourceGraphic" in2="effect1_dropShadow_323_33977" result="shape"/>
</filter>
<filter id="filter5_d_323_33977" x="50.6803" y="-45.2525" width="169.866" height="178.092" filterUnits="userSpaceOnUse" color-interpolation-filters="sRGB">
<feFlood flood-opacity="0" result="BackgroundImageFix"/>
<feColorMatrix in="SourceAlpha" type="matrix" values="0 0 0 0 0 0 0 0 0 0 0 0 0 0 0 0 0 0 127 0" result="hardAlpha"/>
<feOffset dy="15.409"/>
<feGaussianBlur stdDeviation="16.9499"/>
<feComposite in2="hardAlpha" operator="out"/>
<feColorMatrix type="matrix" values="0 0 0 0 0 0 0 0 0 0 0 0 0 0 0 0 0 0 0.15 0"/>
<feBlend mode="normal" in2="BackgroundImageFix" result="effect1_dropShadow_323_33977"/>
<feBlend mode="normal" in="SourceGraphic" in2="effect1_dropShadow_323_33977" result="shape"/>
</filter>
<linearGradient id="paint0_linear_323_33977" x1="953.25" y1="19.6273" x2="909.004" y2="352.066" gradientUnits="userSpaceOnUse">
<stop stop-color="#37ECBA"/>
<stop offset="1" stop-color="#75D473"/>
</linearGradient>
<linearGradient id="paint1_linear_323_33977" x1="-71.8818" y1="82.1964" x2="19.6368" y2="144.488" gradientUnits="userSpaceOnUse">
<stop stop-color="#20F27F"/>
<stop offset="1" stop-color="#29C641"/>
</linearGradient>
<clipPath id="clip0_323_33977">
<rect width="247.983" height="199.272" fill="white" transform="translate(1065 103)"/>
</clipPath>
<clipPath id="clip1_323_33977">
<rect width="247.983" height="199.272" fill="white" transform="translate(-125.998 -54)"/>
</clipPath>
</defs>
</svg>
