<svg width="1512" height="200" viewBox="0 0 1512 200" fill="none" xmlns="http://www.w3.org/2000/svg">
<g clip-path="url(#clip0_598_2152)">
<g filter="url(#filter0_f_598_2152)">
<path fill-rule="evenodd" clip-rule="evenodd" d="M1430.93 156.949C1422.16 159.166 1412.04 161.373 1402.31 161.924C1393.99 162.394 1385.95 161.663 1379.37 158.556C1378.44 158.118 1377.28 158.419 1376.78 159.229C1376.28 160.038 1376.62 161.051 1377.55 161.489C1384.73 164.879 1393.48 165.765 1402.56 165.251C1412.47 164.691 1422.77 162.47 1431.71 160.221C1432.75 162.054 1434.9 163.764 1438.68 165.025C1444.49 166.963 1452.43 166.939 1460.79 165.847C1472.92 164.264 1485.96 160.489 1494.35 157.807C1494.69 157.698 1495.21 157.524 1495.83 157.294C1496.02 157.663 1496.24 158.025 1496.47 158.382C1498.53 161.486 1502.17 163.996 1505.88 164.893C1529.4 170.577 1556.84 163.766 1579.19 158.223C1580.2 157.971 1580.79 157.048 1580.51 156.163C1580.21 155.278 1579.16 154.764 1578.14 155.015C1556.42 160.403 1529.75 167.202 1506.9 161.678C1504.08 160.998 1501.34 159.069 1499.78 156.713C1499.61 156.45 1499.46 156.181 1499.31 155.908C1502.39 154.576 1506.02 152.719 1507.97 150.731C1509.97 148.694 1510.47 146.518 1508.72 144.464C1507.22 142.708 1504.95 142.558 1502.59 143.469C1500.04 144.444 1497.42 146.724 1496.57 147.794C1494.98 149.792 1494.48 151.96 1494.77 154.074C1494.02 154.35 1493.41 154.555 1493.04 154.676C1484.83 157.298 1472.08 161 1460.23 162.549C1452.6 163.545 1445.35 163.678 1440.04 161.91C1437.78 161.156 1436.29 160.275 1435.48 159.253C1437.08 158.836 1438.62 158.425 1440.1 158.033C1443.01 157.257 1449.09 155.973 1453.42 153.684C1456.87 151.865 1459.21 149.389 1459.08 146.286C1459.01 144.692 1457.95 143.628 1456.27 143.032C1453.75 142.141 1449.4 142.572 1447.79 142.872C1442.87 143.781 1436.32 147.542 1433.08 151.779C1431.78 153.47 1431.01 155.239 1430.93 156.949ZM1434.96 155.907C1436.35 155.543 1437.69 155.185 1438.98 154.842C1441.7 154.118 1447.39 152.967 1451.45 150.83C1453.59 149.699 1455.34 148.343 1455.26 146.414C1455.25 146.264 1455.08 146.221 1454.93 146.16C1454.7 146.065 1454.43 146.001 1454.15 145.95C1452.22 145.607 1449.64 145.939 1448.58 146.135C1444.46 146.897 1438.98 150.076 1436.25 153.632C1435.68 154.383 1435.22 155.148 1434.96 155.907ZM1498.55 152.538C1500.34 151.732 1502.22 150.757 1503.71 149.695C1504.49 149.132 1505.16 148.552 1505.58 147.951C1505.93 147.453 1506.07 146.943 1505.65 146.451C1505.48 146.252 1505.23 146.248 1504.97 146.285C1504.69 146.325 1504.41 146.41 1504.13 146.52C1502.26 147.237 1500.34 148.91 1499.72 149.695C1498.99 150.606 1498.63 151.569 1498.55 152.538Z" fill="#6CDF77"/>
</g>
<g opacity="0.2" filter="url(#filter1_f_598_2152)">
<path d="M13.8164 12.2208C8.15091 9.28581 2.66391 6.10667 -2.69398 3.31329C-34.0477 -13.4079 -59.9867 -34.162 -78.1604 -60.4772C-97.5151 -87.9888 -106.355 -117.511 -100.535 -149.094C-94.0114 -185.573 -68.3767 -207.706 -22.966 -215.837C-18.284 -216.618 -13.2945 -217.258 -8.30496 -217.897C20.4323 -220.654 48.6759 -217.112 75.4236 -208.711C119.593 -194.899 156.772 -173.212 186.474 -143.546C204.495 -125.459 216.635 -105.511 219.749 -82.2148C225.062 -42.243 206.365 -11.0426 162.656 9.94591C146.757 17.6354 129.29 22.9712 111.177 26.3782C107.775 27.0957 104.065 27.6717 100.385 29.8931C102.538 30.8845 104.513 32.12 106.715 32.4815C121.824 34.8703 137.241 37.4007 152.4 39.1596C163.768 40.4787 167.33 41.7925 166.985 46.2017C166.332 50.4693 162.216 52.1634 151.234 52.0015C130.501 52.2442 110.6 47.9752 91.2836 42.3439C85.2118 40.527 79.1401 38.7102 73.2468 36.6492C63.7917 33.2744 54.367 31.5452 43.7424 30.8951C-5.89855 27.9424 -50.9601 15.3512 -91.0361 -7.99671C-106.882 -17.2509 -120.328 -28.6631 -129.559 -43.0293C-131.257 -45.7687 -133.262 -48.6497 -133.193 -51.5551C-133.174 -53.8305 -130.725 -56.6184 -128.116 -57.3751C-126.48 -57.9268 -122.789 -56.2273 -120.507 -54.8501C-119.277 -54.2836 -119.068 -52.8822 -118.194 -51.8275C-109.757 -37.5005 -95.9537 -26.5765 -80.237 -17.708C-53.9829 -3.00872 -24.8241 7.15459 6.26754 12.9869C7.98388 13.4509 10.0572 13.4266 11.952 13.6465C11.952 13.6465 12.3089 13.1582 13.8164 12.2208ZM97.2464 -186.263C90.1228 -188.891 77.1553 -194.209 63.1169 -198.063C32.4012 -206.659 1.19195 -208.956 -30.6779 -200.789C-52.9561 -195.058 -69.5877 -184.116 -78.1616 -166.202C-86.7849 -147.657 -87.6504 -128.477 -83.0897 -109.409C-76.3228 -79.8622 -58.0504 -54.8068 -31.8532 -33.2812C-6.27113 -12.0388 25.1016 2.40698 57.4957 16.0179C60.5715 17.4341 64.8471 17.7713 68.5076 17.8253C102.701 16.602 134.473 9.69493 162.61 -5.73795C187.424 -19.4376 201.652 -38.3384 203.835 -62.1326C206.167 -87.8164 196.168 -110.693 177.064 -131.237C156.909 -152.591 131.775 -169.385 97.2464 -186.263Z" fill="#6CDF77"/>
</g>
<g filter="url(#filter2_f_598_2152)">
<path d="M162.477 154.107C164.58 154.004 169.403 153.926 171.867 154.436" stroke="#6CDF77" stroke-width="4" stroke-linecap="round"/>
<path d="M172.398 155.115C171.84 157.344 170.727 162.523 170.738 165.412" stroke="#6CDF77" stroke-width="4" stroke-linecap="round"/>
<path d="M67.9962 198.516C67.9962 198.516 118.648 158.255 126.129 160.141C133.611 162.027 90.2456 198.044 99.2158 204.008C108.186 209.972 169.76 156.316 169.76 156.316" stroke="#6CDF77" stroke-width="4" stroke-linecap="round"/>
</g>
</g>
<defs>
<filter id="filter0_f_598_2152" x="1372.55" y="138.5" width="212.026" height="32.5355" filterUnits="userSpaceOnUse" color-interpolation-filters="sRGB">
<feFlood flood-opacity="0" result="BackgroundImageFix"/>
<feBlend mode="normal" in="SourceGraphic" in2="BackgroundImageFix" result="shape"/>
<feGaussianBlur stdDeviation="2" result="effect1_foregroundBlur_598_2152"/>
</filter>
<filter id="filter1_f_598_2152" x="-137.195" y="-222.818" width="361.825" height="278.83" filterUnits="userSpaceOnUse" color-interpolation-filters="sRGB">
<feFlood flood-opacity="0" result="BackgroundImageFix"/>
<feBlend mode="normal" in="SourceGraphic" in2="BackgroundImageFix" result="shape"/>
<feGaussianBlur stdDeviation="2" result="effect1_foregroundBlur_598_2152"/>
</filter>
<filter id="filter2_f_598_2152" x="62.0176" y="148.072" width="116.386" height="62.3688" filterUnits="userSpaceOnUse" color-interpolation-filters="sRGB">
<feFlood flood-opacity="0" result="BackgroundImageFix"/>
<feBlend mode="normal" in="SourceGraphic" in2="BackgroundImageFix" result="shape"/>
<feGaussianBlur stdDeviation="2" result="effect1_foregroundBlur_598_2152"/>
</filter>
<clipPath id="clip0_598_2152">
<rect width="1512" height="200" fill="white"/>
</clipPath>
</defs>
</svg>
