<svg width="1096" height="277" viewBox="0 0 1096 277" fill="none" xmlns="http://www.w3.org/2000/svg">
<g clip-path="url(#clip0_824_5929)">
<g opacity="0.4" clip-path="url(#clip1_824_5929)">
<path fill-rule="evenodd" clip-rule="evenodd" d="M228.751 381C236.317 307.581 283.832 208.645 494.617 246.706C572.445 260.758 638.524 279.641 696.862 296.31C861.342 343.31 964.357 372.714 1096 227.075L1096 226.281C964.366 372.168 861.438 342.79 697.007 295.806C638.661 279.135 572.573 260.25 494.711 246.191C285.547 208.425 236.781 305.263 228.469 378.648L228.433 378.209C234.94 304.507 280.715 202.049 494.618 240.672C572.446 254.724 638.525 273.607 696.863 290.276C861.344 337.276 964.358 366.68 1096 221.041L1096 220.247C964.366 366.133 861.438 336.755 697.007 289.771C638.661 273.1 572.573 254.215 494.711 240.155C283.134 201.952 235.671 301.485 228.192 375.147L228.19 375.115C233.742 301.237 277.858 195.498 494.618 234.637C572.446 248.689 638.525 267.571 696.863 284.241C861.344 331.24 964.358 360.645 1096 215.006L1096 214.212C964.366 360.098 861.438 330.72 697.007 283.736C638.661 267.064 572.573 248.18 494.711 234.121C282.957 195.885 235.591 295.616 228.172 369.296C233.655 295.408 277.647 189.423 494.617 228.602C572.445 242.654 638.524 261.536 696.862 278.206C861.342 325.205 964.357 354.61 1096 208.971L1096 208.177C964.365 354.064 861.437 324.686 697.006 277.702C638.66 261.03 572.572 242.146 494.71 228.087C282.954 189.85 235.59 289.587 228.172 363.267C233.653 289.381 277.642 183.388 494.617 222.566C572.445 236.619 638.524 255.501 696.862 272.17C861.342 319.17 964.357 348.574 1096 202.935L1096 202.142C964.365 348.028 861.437 318.65 697.006 271.667C638.66 254.995 572.572 236.111 494.71 222.052C282.958 183.815 235.592 283.547 228.172 357.226C233.655 283.34 277.647 177.353 494.617 216.531C572.445 230.583 638.524 249.466 696.862 266.135C861.342 313.135 964.357 342.539 1096 196.9L1096 196.107C964.365 341.993 861.437 312.615 697.006 265.631C638.66 248.96 572.572 230.075 494.71 216.016C282.957 177.78 235.592 277.512 228.172 351.192C233.655 277.304 277.645 171.317 494.617 210.496C572.445 224.548 638.524 243.431 696.862 260.1C861.342 307.1 964.357 336.504 1096 190.865L1096 190.071C964.365 335.957 861.437 306.58 697.006 259.596C638.66 242.925 572.572 224.04 494.71 209.981C282.954 171.743 235.59 271.482 228.172 345.162C233.653 271.275 277.641 165.282 494.618 204.461C572.446 218.513 638.525 237.395 696.863 254.065C861.344 301.065 964.358 330.469 1096 184.83L1096 184.036C964.366 329.922 861.438 300.545 697.007 253.561C638.661 236.89 572.573 218.005 494.711 203.945C282.955 165.709 235.59 265.444 228.172 339.123C233.655 265.236 277.644 159.247 494.618 198.426C572.446 212.478 638.525 231.36 696.863 248.03C861.344 295.029 964.358 324.434 1096 178.795L1096 178.001C964.366 323.887 861.438 294.51 697.007 247.526C638.661 230.854 572.573 211.97 494.711 197.911C255.63 154.74 226.092 287.453 227.021 359.963C226.997 362.016 226.996 364.036 227.021 366.004C226.997 368.052 226.996 370.069 227.021 372.033C226.997 374.085 226.996 376.105 227.021 378.073C227.008 379.058 227.002 380.034 227.002 381L228.751 381ZM229.46 381C239.018 308.343 289.556 215.714 494.617 252.741C572.445 266.793 638.524 285.676 696.862 302.345C861.342 349.345 964.357 378.749 1096 233.11L1096 232.317C964.366 378.203 861.438 348.825 697.007 301.841C638.661 285.17 572.573 266.285 494.711 252.226C289.023 215.086 238.457 308.112 228.93 381L229.46 381ZM230.348 381C241.919 309.383 295.19 222.768 494.617 258.776C572.445 272.829 638.524 291.711 696.862 308.38C861.342 355.38 964.357 384.784 1096 239.145L1096 238.352C964.366 384.239 861.438 354.86 697.007 307.877C638.661 291.205 572.573 272.321 494.711 258.262C294.658 222.139 241.352 309.144 229.813 381L230.348 381ZM231.425 381C245.015 310.671 300.76 229.808 494.617 264.812C572.445 278.864 638.524 297.746 696.862 314.416C861.342 361.415 964.357 390.82 1096 245.181L1096 244.387C964.366 390.274 861.438 360.896 697.007 313.912C638.661 297.24 572.573 278.356 494.711 264.297C300.226 229.181 244.438 310.43 230.882 381L231.424 381L231.425 381ZM232.695 381C248.307 312.192 306.282 236.84 494.617 270.847C572.445 284.899 638.524 303.781 696.862 320.451C861.342 367.45 964.357 396.855 1096 251.216L1096 250.422C964.366 396.308 861.438 366.931 697.007 319.947C638.661 303.275 572.573 284.391 494.711 270.332C305.749 236.211 247.722 311.942 232.147 381L232.695 381ZM234.177 381C251.807 313.923 311.778 243.867 494.617 276.882C572.445 290.934 638.524 309.817 696.862 326.486C861.342 373.486 964.357 402.89 1096 257.251L1096 256.457C964.366 402.343 861.438 372.966 697.007 325.982C638.661 309.311 572.573 290.426 494.711 276.366C311.237 243.239 251.211 313.667 233.62 381L234.177 381ZM235.882 381C255.514 315.855 317.256 250.891 494.618 282.917C572.446 296.969 638.525 315.852 696.863 332.521C861.344 379.521 964.358 408.925 1096 263.286L1096 262.493C964.366 408.378 861.438 379.001 697.007 332.017C638.661 315.346 572.573 296.461 494.711 282.402C316.717 250.262 254.908 315.59 235.313 381L235.881 381L235.882 381ZM237.827 381C259.442 317.967 322.735 257.918 494.618 288.952C572.446 303.005 638.525 321.887 696.863 338.556C861.344 385.556 964.358 414.96 1096 269.321L1096 268.528C964.366 414.413 861.438 385.036 697.007 338.051C638.661 321.38 572.573 302.495 494.711 288.437C322.196 257.286 258.825 317.698 237.247 381L237.827 381ZM920.36 381C978.808 373.463 1034.26 343.666 1096 275.356L1096 274.563C1032.59 344.835 975.84 374.439 915.672 381L920.36 381ZM240.031 381C263.603 320.255 328.232 264.945 494.617 294.987C572.445 309.04 638.524 327.922 696.862 344.592C755.473 361.339 806.271 375.844 853.348 381L858.581 381C810.083 376.396 757.743 361.442 697.007 344.087C638.661 327.415 572.573 308.531 494.711 294.472C327.686 264.313 262.97 319.978 239.436 381L240.032 381L240.031 381ZM950.687 381C998.32 367.961 1045.01 337.798 1096 281.392L1096 280.598C1044.22 337.989 996.868 368.259 948.475 381L950.687 381ZM242.518 381C268.011 322.708 333.764 271.978 494.617 301.023C572.445 315.075 638.524 333.957 696.862 350.627C739.727 362.874 778.412 373.929 814.521 381L817.355 381C780.481 373.966 740.943 362.676 697.007 350.122C638.661 333.45 572.573 314.566 494.711 300.507C333.215 271.345 267.361 322.425 241.905 381L242.519 381L242.518 381ZM969.41 381C1010.65 365.633 1051.71 336.428 1096 287.427L1096 286.633C1051.1 336.392 1009.54 365.764 967.74 381L969.41 381ZM245.321 381C272.678 325.319 339.325 279.017 494.617 307.058C572.445 321.11 638.524 339.992 696.862 356.662C728.971 365.836 758.732 374.338 786.826 381L789.141 381C760.411 374.268 729.948 365.569 697.007 356.157C638.661 339.485 572.573 320.601 494.711 306.541C338.798 278.39 272.029 325.031 244.69 381L245.321 381Z" fill="white"/>
</g>
<g opacity="0.62" clip-path="url(#clip2_824_5929)">
<path fill-rule="evenodd" clip-rule="evenodd" d="M122.139 -77.1026L121.969 -77.3846C109.301 -73.1344 95.7226 -64.8556 81.6034 -50.7199C59.1831 -28.2732 33.5492 -11.1551 8.13544 -1.0431C-11.859 6.91244 -31.7171 10.5301 -49.7646 8.9925C-56.804 8.3928 -63.5683 7.00888 -69.9576 4.7921L-70.3037 5.00086C-63.8183 7.27581 -56.9473 8.69335 -49.7934 9.30235C-31.6967 10.8444 -11.7894 7.2181 8.24967 -0.754932C33.7021 -10.8823 59.3734 -28.0251 81.8242 -50.5019C95.9284 -64.6227 109.49 -72.877 122.139 -77.1037M124.419 -73.3237L124.25 -73.6047C111.07 -69.5505 96.8682 -61.1689 82.0753 -46.3584C59.655 -23.9117 34.0211 -6.79359 8.60767 3.31893C-11.3868 11.2745 -31.2448 14.8921 -49.2923 13.3545C-58.0833 12.6057 -66.4456 10.6325 -74.1851 7.34237L-74.5148 7.54117C-66.6866 10.8975 -58.223 12.9062 -49.3208 13.6649C-31.2241 15.207 -11.3168 11.5807 8.72224 3.60762C34.1747 -6.51971 59.846 -23.6625 82.2968 -46.1393C97.0755 -60.9347 111.26 -69.2946 124.42 -73.3229L124.419 -73.3237ZM126.73 -69.4909L126.558 -69.7762C112.865 -65.9527 98.0306 -57.4989 82.5462 -41.9963C60.1259 -19.5495 34.492 -2.43145 9.07853 7.68107C-10.9159 15.6366 -30.7739 19.2542 -48.8215 17.7167C-59.2859 16.8253 -69.1427 14.1996 -78.0656 9.68184L-78.3804 9.87166C-69.3767 14.4619 -59.4225 17.1262 -48.8503 18.0265C-30.7536 19.5686 -10.8463 15.9423 9.19225 7.96955C34.6447 -2.15778 60.316 -19.3006 82.7668 -41.7774C98.2378 -57.266 113.056 -65.6944 126.731 -69.4904L126.73 -69.4909ZM129.061 -65.6257L128.887 -65.9147C114.682 -62.3531 99.2037 -53.8389 83.0179 -37.634C60.5976 -15.1872 34.9637 1.9309 9.55025 12.0434C-10.4442 19.999 -30.3022 23.6166 -48.3498 22.079C-60.418 21.0511 -71.6789 17.7169 -81.6302 11.8323L-81.9343 12.0156C-71.9077 17.9768 -60.5519 21.3517 -48.3786 22.3889C-30.2819 23.9309 -10.3746 20.3046 9.6645 12.3316C35.117 2.20425 60.7882 -14.9385 83.2391 -37.4153C99.4133 -53.6082 114.876 -62.0936 129.063 -65.6259L129.061 -65.6257ZM131.425 -61.7073L131.251 -61.9958C116.531 -58.7324 100.397 -50.1989 83.4888 -33.2718C61.0685 -10.825 35.4346 6.29304 10.0211 16.4056C-9.97331 24.3611 -29.8314 27.9787 -47.8789 26.4412C-61.4906 25.2816 -74.0745 21.1878 -84.9112 13.811L-85.2052 13.9882C-74.2967 21.4467 -61.6214 25.5825 -47.9077 26.751C-29.811 28.2931 -9.90371 24.6668 10.1354 16.6937C35.5878 6.56639 61.2591 -10.5764 83.7099 -33.0532C100.606 -49.9687 116.726 -58.475 131.425 -61.7077L131.425 -61.7073ZM133.821 -57.7336L133.644 -58.0273C118.411 -55.0965 101.607 -46.5776 83.9596 -28.9097C61.5393 -6.46291 35.9054 10.6552 10.492 20.7677C-9.50245 28.7232 -29.3605 32.3409 -47.408 30.8033C-62.5093 29.5173 -76.3449 24.6195 -87.9334 15.6336L-88.2199 15.8064C-76.5638 24.8779 -62.6384 29.8187 -47.4369 31.1131C-29.3402 32.6552 -9.43285 29.0289 10.6057 21.0562C36.0581 10.9289 61.7294 -6.21395 84.1803 -28.6908C101.817 -46.3486 118.609 -54.8362 133.821 -57.7336V-57.7336ZM136.243 -53.7178L136.062 -54.0168C120.32 -51.4538 102.833 -42.9712 84.4313 -24.5473C62.011 -2.10056 36.3766 15.0178 10.9632 25.1304C-9.03127 33.0859 -28.8893 36.7036 -46.9368 35.166C-63.4785 33.7566 -78.5021 28.0149 -90.7162 17.3125L-90.9974 17.4821C-78.7177 28.2727 -63.6061 34.0592 -46.9662 35.4761C-28.8695 37.0182 -8.9622 33.3919 11.0763 25.4192C36.5288 15.2918 62.2001 -1.85096 84.6509 -24.3278C103.045 -42.7435 120.519 -51.1908 136.243 -53.7169L136.243 -53.7178ZM138.694 -49.653L138.514 -49.9521C122.263 -47.7945 104.08 -39.3845 84.9022 -20.1852C62.4819 2.26158 36.848 19.3797 11.4342 29.4917C-8.56019 37.4472 -28.4182 41.0648 -46.4658 39.5272C-64.4043 37.9994 -80.5571 31.3763 -93.2781 18.8568L-93.5545 19.0235C-80.7698 31.633 -64.5303 38.3011 -46.4951 39.8374C-28.3984 41.3795 -8.49114 37.7532 11.5479 29.7801C37.0004 19.6528 62.6717 2.51001 85.1225 -19.9668C104.292 -39.1582 122.465 -47.5345 138.695 -49.6533L138.694 -49.653ZM141.19 -45.5148L141.006 -45.8192C124.248 -44.1068 105.351 -35.8235 85.3731 -15.823C62.9528 6.62372 37.3189 23.7418 11.9054 33.8543C-8.08901 41.8099 -27.9471 45.4275 -45.9946 43.8899C-64.0311 42.3537 -80.2634 35.6675 -93.0156 23.0144C-93.9053 22.1314 -94.7779 21.2193 -95.6332 20.2778L-95.9059 20.4423C-95.0337 21.4033 -94.1437 22.3347 -93.2361 23.2352C-80.4286 35.9427 -64.1305 42.6574 -46.0231 44.2003C-27.9264 45.7424 -8.0191 42.1161 12.02 34.143C37.4724 24.0157 63.1437 6.87289 85.5946 -15.6039C105.564 -35.5992 124.451 -43.8443 141.188 -45.5147L141.19 -45.5148ZM143.717 -41.3239L143.53 -41.6347C126.269 -40.4062 106.642 -32.2828 85.8445 -11.4612C63.4242 10.9855 37.7903 28.1036 12.3768 38.2161C-7.61761 46.1717 -27.4757 49.7893 -45.5232 48.2517C-63.5592 46.7152 -79.792 40.0293 -92.5442 27.3762C-94.367 25.5675 -96.1188 23.6369 -97.7948 21.5814L-98.0654 21.7446C-96.3746 23.8209 -94.6059 25.7711 -92.7652 27.5973C-79.9577 40.3049 -63.6593 47.0201 -45.5517 48.5621C-27.455 50.1042 -7.5477 46.4779 12.4908 38.5052C37.9433 28.3778 63.6146 11.235 86.0654 -11.2418C106.858 -32.061 126.475 -40.1405 143.716 -41.3238L143.717 -41.3239ZM146.28 -37.075L146.088 -37.3927C128.33 -36.6866 107.955 -28.7639 86.3153 -7.09909C63.895 15.3477 38.2611 32.4658 12.8468 42.5781C-7.14707 50.5333 -27.0057 54.1513 -45.0532 52.6137C-63.0892 51.0771 -79.322 44.3912 -92.0741 31.7381C-94.8064 29.0271 -97.3787 26.0419 -99.7757 22.7753L-100.045 22.9375C-97.6336 26.2261 -95.0453 29.2307 -92.2952 31.9592C-79.4877 44.6668 -63.1893 51.382 -45.0822 52.9244C-26.9855 54.4664 -7.07823 50.8401 12.9603 42.8674C38.4128 32.7401 64.084 15.5973 86.5349 -6.87952C108.174 -28.5445 128.541 -36.4175 146.278 -37.0749L146.28 -37.075ZM148.88 -32.7633L148.684 -33.0885C130.434 -32.9453 109.293 -25.2695 86.7865 -2.73642C64.3662 19.7104 38.7323 36.8284 13.3189 46.941C-6.67556 54.8965 -26.5336 58.5141 -44.5812 56.9766C-62.6177 55.4403 -78.85 48.7541 -91.6021 36.101C-95.2217 32.51 -98.5607 28.4377 -101.583 23.8664L-101.85 24.028C-98.8147 28.6221 -95.4597 32.7138 -91.8226 36.3218C-79.0151 49.0293 -62.717 55.7441 -44.6097 57.2869C-26.513 58.829 -6.60566 55.2027 13.4334 47.2297C38.8859 37.1023 64.5571 19.9595 87.008 -2.51728C109.515 -25.054 130.65 -32.6736 148.878 -32.7632L148.88 -32.7633ZM151.524 -28.3782L151.328 -28.7033C132.592 -29.1687 110.665 -21.8082 87.2579 1.6254C64.8376 24.0722 39.2037 41.1903 13.7903 51.3028C-6.20417 59.2583 -26.0622 62.876 -44.1098 61.3384C-62.1463 59.8021 -78.3786 53.1159 -91.1307 40.4628C-95.6168 36.0118 -99.6727 30.8217 -103.227 24.8582L-103.494 25.0194C-99.9271 31.0056 -95.8548 36.2156 -91.3518 40.6839C-78.5443 53.3915 -62.2458 60.1067 -44.1388 61.6491C-26.0421 63.1911 -6.1348 59.5648 13.9043 51.5918C39.3567 41.4645 65.028 24.3217 87.4789 1.84486C110.886 -21.5927 132.811 -28.9 151.523 -28.3786L151.524 -28.3782ZM154.217 -23.9127L154.017 -24.2453C134.803 -25.3634 112.066 -18.3775 87.7291 5.98808C65.3088 28.4348 39.6749 45.5529 14.2614 55.6654C-5.73298 63.621 -25.5911 67.2386 -43.6386 65.701C-61.6746 64.1645 -77.9074 57.4786 -90.6595 44.8255C-95.9933 39.5337 -100.719 33.1962 -104.716 25.757L-104.984 25.9185C-100.974 33.3804 -96.2325 39.7367 -90.8806 45.0466C-78.0731 57.7542 -61.7746 64.4694 -43.6671 66.0114C-25.5704 67.5535 -5.66308 63.9272 14.3755 55.9545C39.8279 45.8271 65.4992 28.6843 87.95 6.20753C112.291 -18.1658 135.026 -25.0909 154.216 -23.9131L154.217 -23.9127ZM156.957 -19.3706L156.751 -19.7122C137.069 -21.5265 113.5 -14.9797 88.1996 10.3497C65.7793 32.7965 40.1454 49.9145 14.732 60.0271C-5.26244 67.9826 -25.1205 71.6002 -43.1686 70.063C-61.2046 68.5264 -77.4374 61.8405 -90.1895 49.1874C-96.3529 43.0715 -101.705 35.5616 -106.059 26.5658L-106.327 26.7277C-101.961 35.7448 -96.5923 43.2754 -90.4106 49.4085C-77.6031 62.1161 -61.305 68.8308 -43.1976 70.3737C-25.1009 71.9157 -5.1936 68.2894 14.8449 60.3167C40.2974 50.1894 65.9687 33.0466 88.4195 10.5698C113.729 -14.7718 137.299 -21.2495 156.955 -19.3704L156.957 -19.3706ZM159.746 -14.7459L159.534 -15.0972C139.399 -17.6539 114.97 -11.618 88.6707 14.711C66.2504 37.1577 40.6165 54.2758 15.2031 64.3883C-4.79137 72.3439 -24.6494 75.9615 -42.697 74.4239C-60.7335 72.8877 -76.9658 66.2015 -89.7179 53.5484C-96.6944 46.626 -102.633 37.9162 -107.257 27.2879L-107.527 27.4507C-102.889 38.0997 -96.9342 46.8293 -89.939 53.7695C-77.1315 66.477 -60.833 73.1923 -42.726 74.7346C-24.6293 76.2767 -4.722 72.6504 15.3171 64.6774C40.7695 54.55 66.4408 37.4072 88.8916 14.9304C115.203 -11.414 139.636 -17.372 159.744 -14.7458L159.746 -14.7459ZM162.588 -10.0319L162.371 -10.3927C141.798 -13.7375 116.479 -8.29647 89.1416 19.0731C66.7213 41.5199 41.0874 58.638 15.6739 68.7505C-4.3205 76.706 -24.1786 80.3237 -42.2261 78.7861C-60.2626 77.2498 -76.4949 70.5636 -89.2471 57.9105C-96.932 50.2854 -103.357 40.4917 -108.154 28.353C-108.211 28.2105 -108.269 28.0729 -108.326 27.9316L-108.597 28.0951C-108.547 28.2202 -108.495 28.3421 -108.445 28.4681C-103.631 40.6485 -97.183 50.4774 -89.4684 58.1311C-76.6609 70.8386 -60.3625 77.5539 -42.2555 79.0962C-24.1588 80.6383 -4.25145 77.012 15.7876 69.039C41.2401 58.9116 66.9113 41.7688 89.3622 19.292C116.718 -8.09657 142.043 -13.4514 162.587 -10.0318L162.588 -10.0319ZM165.488 -5.22147L165.264 -5.59293C144.271 -9.77378 118.033 -5.01867 89.6114 23.4359C67.1911 45.8827 41.5572 63.0007 16.1434 73.1127C-3.85103 81.0683 -23.7091 84.6859 -41.7566 83.1483C-59.7932 81.6121 -76.0254 74.9259 -88.7776 62.2728C-96.4626 54.6476 -102.887 44.8536 -107.685 32.7152C-108.25 31.2854 -108.839 29.9176 -109.451 28.6097L-109.721 28.7722C-109.116 30.0648 -108.534 31.4172 -107.976 32.8304C-103.162 45.0107 -96.7135 54.8396 -88.999 62.4933C-76.1911 75.2014 -59.893 81.9162 -41.7854 83.4582C-23.6888 85.0002 -3.78144 81.3739 16.2571 73.4012C41.7096 63.2739 67.3808 46.1311 89.8317 23.6543C118.278 -4.82507 144.527 -9.48214 165.488 -5.22147ZM168.452 -0.306821C147.097 -5.45691 119.888 -1.60306 90.3025 28.0164C67.8517 50.4932 42.1804 67.636 16.728 77.7634C-3.31112 85.7364 -23.2179 89.3624 -41.3146 87.8203C-59.4222 86.2783 -75.7198 79.5633 -88.5276 66.8552C-96.2421 59.2015 -102.691 49.372 -107.504 37.1922C-108.599 34.423 -109.785 31.8895 -111.054 29.5764L-110.785 29.4139C-109.508 31.742 -108.315 34.2911 -107.214 37.0774C-102.417 49.2161 -95.9922 59.0101 -88.3067 66.6349C-75.5537 79.2882 -59.3218 85.9739 -41.2858 87.5105C-23.2382 89.048 -3.37963 85.4301 16.6148 77.4745C42.0283 67.362 67.6621 50.2439 90.0824 27.7972C119.638 -1.79142 146.832 -5.75535 168.221 -0.689456L168.452 -0.306821Z" fill="white"/>
</g>
</g>
<defs>
<clipPath id="clip0_824_5929">
<rect width="1096" height="277" fill="white"/>
</clipPath>
<clipPath id="clip1_824_5929">
<rect width="869" height="203" fill="white" transform="matrix(1 -8.74228e-08 -8.74228e-08 -1 227 381)"/>
</clipPath>
<clipPath id="clip2_824_5929">
<rect width="257.055" height="118.755" fill="white" transform="translate(168.452 -0.306641) rotate(148.907)"/>
</clipPath>
</defs>
</svg>
