<svg width="51" height="56" viewBox="0 0 51 56" fill="none" xmlns="http://www.w3.org/2000/svg">
<path fill-rule="evenodd" clip-rule="evenodd" d="M16.5627 50.8086C11.9139 49.3331 7.02258 48.5028 2.27649 47.7332C1.25413 47.5709 0.276903 48.2508 0.169697 49.2515C-0.0108672 50.2505 0.691892 51.1934 1.64091 51.3532C6.24111 52.0951 10.9862 52.883 15.4167 54.302C16.3607 54.6092 17.4069 54.0778 17.7331 53.1138C18.0593 52.1506 17.5068 51.1166 16.5627 50.8086Z" fill="#272727"/>
<path fill-rule="evenodd" clip-rule="evenodd" d="M31.4234 32.6178C24.1303 24.6548 15.8505 17.6517 8.71108 9.48676C8.07604 8.72528 6.90405 8.64606 6.14742 9.31136C5.39076 9.9774 5.2785 11.1365 5.98687 11.9005C13.1255 20.0881 21.4046 27.1132 28.6969 35.099C29.4059 35.8454 30.5786 35.8952 31.3359 35.2101C32.0198 34.5233 32.1323 33.3642 31.4234 32.6178Z" fill="#272727"/>
<path fill-rule="evenodd" clip-rule="evenodd" d="M46.5761 3.44476C46.6471 7.8639 46.7177 12.283 46.7888 16.7029C46.7546 17.7134 47.6087 18.5234 48.637 18.509C49.6654 18.4938 50.4273 17.6583 50.4615 16.647C50.3907 12.2206 50.3203 7.79484 50.2495 3.36909C50.2103 2.35609 49.3563 1.55124 48.3278 1.57158C47.3726 1.59439 46.5369 2.43249 46.5761 3.44476Z" fill="#272727"/>
</svg>
