<svg width="34" height="27" viewBox="0 0 34 27" fill="none" xmlns="http://www.w3.org/2000/svg">
<path opacity="0.15" d="M33.5245 0C33.5245 0 33.5245 2.8421 33.5245 4.97368C33.5245 7.10526 33.5245 8.76316 33.5245 9.94737C33.5245 12.0789 33.5245 13.7368 33.5245 15.3947C33.5245 16.8158 33.049 18.4737 32.8112 19.8947C32.3357 21.5526 31.8601 22.7368 31.1469 23.6842C30.4336 24.6316 29.4825 25.3421 28.0559 26.0526C26.8671 26.7632 25.2028 27 23.5385 27L20.2098 20.3684C22.5874 20.3684 24.4895 19.8947 25.4406 18.7105C26.3916 17.7632 27.1049 15.8684 27.1049 13.5H20.4475V0H34H33.5245ZM13.3147 0C13.3147 0 13.3147 2.8421 13.3147 4.97368C13.3147 7.10526 13.3147 8.76316 13.3147 9.94737C13.3147 12.0789 13.3147 13.7368 13.3147 15.3947C13.3147 16.8158 12.8392 18.4737 12.6014 19.8947C12.1259 21.5526 11.6504 22.7368 10.9371 23.6842C10.2238 24.6316 9.27273 25.3421 7.84615 26.0526C6.65734 26.7632 4.99301 27 3.32867 27L0 20.3684C2.37762 20.3684 4.04195 19.8947 5.23077 18.7105C6.18181 17.7632 6.89511 15.8684 6.89511 13.5H0.237759V0H13.7902H13.3147Z" fill="black"/>
</svg>
