<svg width="32" height="32" viewBox="0 0 32 32" fill="none" xmlns="http://www.w3.org/2000/svg">
<g clip-path="url(#clip0_136_155)">
<path d="M2.29283 32.0001C1.66192 31.8631 1.09013 31.6275 0.652782 31.1391C0.166032 30.5966 1.85115e-06 29.9642 0.00162165 29.2628C0.00891076 26.8465 0.00405136 24.4302 0.00405136 22.0147C0.00405136 15.5985 0.00810086 9.18319 1.85116e-06 2.76785C-0.00080805 1.87239 0.26403 1.11157 1.00671 0.540949C1.49022 0.16993 2.04824 0.00320655 2.65729 0.00320655C9.50014 7.55894e-05 16.343 -0.00227263 23.1859 0.00477203C24.6607 0.00633751 25.8026 1.06304 25.8383 2.41405C25.8472 2.74202 25.6933 2.9424 25.4098 2.97371C25.1256 3.00502 24.9085 2.80855 24.8648 2.4798C24.7287 1.46458 24.1286 0.94954 23.0676 0.948757C16.3114 0.947192 9.5544 0.947192 2.79821 0.948757C1.64329 0.948757 0.99375 1.57652 0.990511 2.68801C0.988081 3.52006 0.990511 4.35211 0.990511 5.22722C1.15168 5.22722 1.28774 5.22722 1.42462 5.22722C7.1571 5.22722 12.8904 5.22722 18.6229 5.228C18.7735 5.228 18.9258 5.228 19.074 5.24913C19.3242 5.28592 19.4822 5.46282 19.4465 5.68121C19.4198 5.8448 19.2748 6.0264 19.1282 6.1258C19.0149 6.2033 18.8181 6.17903 18.6577 6.17903C12.9139 6.18138 7.17087 6.1806 1.42705 6.1806C1.29827 6.1806 1.17031 6.1806 0.990511 6.1806V6.52422C0.990511 14.1168 0.990511 21.7086 0.990511 29.3012C0.990511 30.4307 1.64005 31.0537 2.81603 31.0537C9.55117 31.0545 16.2863 31.0459 23.0206 31.0616C24.1699 31.0639 24.8866 30.3234 24.8769 29.255C24.8445 25.652 24.8648 22.0483 24.8648 18.4446C24.8648 18.3718 24.864 18.299 24.8648 18.2262C24.8721 17.8364 25.0494 17.6219 25.3612 17.6219C25.6714 17.6219 25.8456 17.8325 25.8456 18.2293C25.8472 21.9473 25.852 25.6654 25.8431 29.3834C25.8399 30.7532 25.0381 31.676 23.6524 31.9609C23.6216 31.9672 23.5949 31.9868 23.5657 32.0001H2.29283Z" fill="#0F172A"/>
<path d="M25.2997 3.57399C26.7939 3.60608 28.1416 4.03815 29.3241 4.91639C29.4682 5.02362 29.6075 5.22635 29.6189 5.39386C29.6456 5.76723 29.1977 5.94882 28.8357 5.73435C28.4964 5.53397 28.1772 5.2968 27.8225 5.12616C24.3448 3.45501 20.1932 5.54806 19.6125 9.25903C19.0553 12.8182 22.0787 15.9225 25.8034 15.6157C30.0198 15.2689 32.413 10.5991 30.1421 7.14876C30.0789 7.05249 30.0084 6.95934 29.9542 6.85758C29.8149 6.59771 29.8797 6.33785 30.1113 6.20165C30.3421 6.06623 30.6296 6.1085 30.7811 6.37463C31.1059 6.94603 31.4695 7.51509 31.6752 8.12954C32.8965 11.781 30.5341 15.6618 26.6457 16.4469C22.8813 17.207 19.2141 14.7421 18.6415 11.0664C18.1045 7.61919 20.4516 4.38334 23.9844 3.71566C24.4153 3.63426 24.8599 3.6186 25.298 3.57164L25.2997 3.57399Z" fill="#0F172A"/>
<path d="M11.1507 15.2235C9.42722 15.2235 7.70375 15.2235 5.97947 15.2235C5.45952 15.2235 5.21655 15.074 5.21088 14.7531C5.2044 14.422 5.45547 14.2647 5.99648 14.2647C9.44342 14.2647 12.8912 14.2647 16.3381 14.2647C16.8597 14.2647 17.097 14.4126 17.1027 14.7374C17.1083 15.0646 16.8678 15.222 16.3535 15.2227C14.6187 15.2227 12.8847 15.2227 11.1499 15.2227L11.1507 15.2235Z" fill="#0F172A"/>
<path d="M11.1523 9.90715C9.42887 9.90715 7.7054 9.90715 5.98193 9.90715C5.45874 9.90715 5.21739 9.75999 5.21091 9.44142C5.20362 9.11032 5.45793 8.95064 5.99489 8.95064C9.44183 8.95064 12.8888 8.95064 16.3357 8.9522C16.4742 8.9522 16.6176 8.95925 16.7504 8.99212C16.9893 9.05083 17.1108 9.21912 17.0986 9.45394C17.0873 9.68798 16.952 9.84296 16.7083 9.88366C16.5819 9.9048 16.4515 9.90715 16.3227 9.90715C14.5993 9.90871 12.8758 9.90793 11.1523 9.90793V9.90715Z" fill="#0F172A"/>
<path d="M24.9287 11.8757C25.1814 11.4131 25.4722 10.8824 25.7613 10.351C26.3023 9.35844 26.8417 8.36436 27.3843 7.37263C27.4443 7.26305 27.505 7.14798 27.5917 7.05953C27.7601 6.88811 27.9991 6.8435 28.1708 6.99378C28.2987 7.10572 28.3538 7.31706 28.3935 7.49396C28.4121 7.57614 28.323 7.68416 28.2728 7.77574C27.3576 9.45863 26.4408 11.1407 25.5232 12.8229C25.2227 13.3731 24.9093 13.413 24.4574 12.9606C23.7779 12.2788 23.0992 11.5955 22.4213 10.913C22.3622 10.8527 22.3022 10.7924 22.2504 10.7259C22.086 10.5138 22.0892 10.2993 22.2706 10.102C22.4456 9.91262 22.7217 9.89384 22.9372 10.0778C23.1704 10.2774 23.3672 10.5146 23.5964 10.7196C24.0305 11.1079 24.4752 11.4851 24.9263 11.8765L24.9287 11.8757Z" fill="#0F172A"/>
<path d="M9.67021 20.5352C8.47398 20.5352 7.27776 20.5352 6.08153 20.5352C6.00621 20.5352 5.93089 20.5368 5.85557 20.5352C5.44738 20.525 5.21899 20.3606 5.21089 20.0702C5.20279 19.7689 5.44414 19.5787 5.86367 19.5787C8.15893 19.5763 10.4542 19.5771 12.7503 19.5771C13.02 19.5771 13.2897 19.5709 13.5585 19.5795C13.9384 19.5912 14.1498 19.7697 14.1481 20.0632C14.1457 20.3575 13.9416 20.5313 13.5504 20.5336C12.257 20.5399 10.9644 20.536 9.67102 20.536L9.67021 20.5352Z" fill="#0F172A"/>
<path d="M17.3635 24.8911C18.4398 24.8911 19.5154 24.8896 20.5917 24.8935C20.7408 24.8935 20.927 24.8778 21.0283 24.953C21.1635 25.054 21.3126 25.2395 21.3085 25.3851C21.3045 25.5299 21.1392 25.6958 21.0032 25.8015C20.9189 25.8672 20.7553 25.8492 20.6274 25.8492C18.4325 25.8516 16.2369 25.8516 14.0421 25.8492C13.9457 25.8492 13.8485 25.8422 13.7537 25.8257C13.4962 25.7803 13.3545 25.623 13.3528 25.3733C13.352 25.1228 13.4946 24.9639 13.7505 24.9178C13.8655 24.8966 13.9854 24.8919 14.1028 24.8919C15.1897 24.8904 16.2766 24.8911 17.3635 24.8911Z" fill="#0F172A"/>
<path d="M8.9332 25.8508C7.94188 25.8508 6.95137 25.8524 5.96006 25.8492C5.83209 25.8492 5.67011 25.8727 5.58264 25.8093C5.43443 25.7021 5.26597 25.5494 5.2271 25.3882C5.17526 25.1737 5.32509 24.9882 5.56725 24.9303C5.69036 24.9005 5.82237 24.8927 5.95034 24.8927C7.9435 24.8904 9.93586 24.8911 11.929 24.8911C11.9614 24.8911 11.9938 24.8911 12.0262 24.8911C12.4498 24.8998 12.6847 25.0774 12.6766 25.3827C12.6693 25.6778 12.4474 25.8469 12.0359 25.8492C11.0017 25.8539 9.96745 25.8508 8.93401 25.8508H8.9332Z" fill="#0F172A"/>
<path d="M7.50208 4.55947C6.65574 4.56729 5.93412 3.88631 5.91711 3.06443C5.9001 2.23316 6.61281 1.52556 7.47779 1.51461C8.33061 1.50365 9.07005 2.21438 9.066 3.04095C9.06114 3.86126 8.35005 4.55164 7.50208 4.55947ZM7.49561 3.60531C7.80661 3.60217 8.0674 3.34465 8.06821 3.03938C8.06902 2.73098 7.81633 2.47972 7.49884 2.47581C7.17407 2.4719 6.89223 2.74351 6.90276 3.05191C6.91329 3.34857 7.19108 3.60844 7.49561 3.60531Z" fill="#0F172A"/>
<path d="M12.7049 3.04564C12.7 3.87222 11.9954 4.55477 11.1418 4.55868C10.2833 4.5626 9.55276 3.85578 9.56086 3.02764C9.56815 2.20655 10.2801 1.52008 11.1288 1.51382C11.9906 1.50756 12.7106 2.20733 12.7057 3.04564H12.7049ZM11.1491 2.47894C10.8275 2.47189 10.5684 2.7075 10.5578 3.01668C10.5465 3.33761 10.8113 3.6053 11.1377 3.60374C11.4423 3.60217 11.7184 3.33761 11.7233 3.04408C11.7282 2.7482 11.4617 2.48677 11.1499 2.47972L11.1491 2.47894Z" fill="#0F172A"/>
<path d="M2.27827 3.05113C2.27017 2.20812 2.97802 1.51304 3.84381 1.51383C4.69825 1.51461 5.40125 2.19246 5.40853 3.02138C5.41582 3.86439 4.70797 4.55869 3.84219 4.55869C2.98936 4.55869 2.28556 3.88083 2.27827 3.05113ZM4.42693 3.02921C4.42288 2.72942 4.16534 2.48208 3.85109 2.47816C3.52308 2.47425 3.25582 2.73099 3.26149 3.04565C3.26635 3.34466 3.52713 3.59826 3.83571 3.60296C4.154 3.60766 4.43098 3.33918 4.42612 3.02999L4.42693 3.02921Z" fill="#0F172A"/>
<path d="M13.48 16.9307C14.396 16.9307 15.312 16.933 16.228 16.9291C16.4766 16.9283 16.6783 16.9988 16.7739 17.2344C16.9026 17.5522 16.6751 17.8621 16.2912 17.8715C15.7421 17.8848 15.1921 17.8762 14.6422 17.8762C13.3917 17.8762 12.1421 17.8762 10.8916 17.8762C10.8057 17.8762 10.7191 17.8794 10.6332 17.8747C10.306 17.8574 10.1051 17.6758 10.106 17.4011C10.106 17.1256 10.3076 16.9369 10.6348 16.933C11.3135 16.9252 11.993 16.9307 12.6717 16.9299C12.9414 16.9299 13.2103 16.9299 13.48 16.9299V16.9307Z" fill="#0F172A"/>
<path d="M12.317 11.6182C13.0483 11.6182 13.7796 11.6166 14.5102 11.6182C14.9111 11.6198 15.1427 11.7959 15.1419 12.0886C15.1411 12.3806 14.9054 12.5614 14.5085 12.5622C13.0248 12.5645 11.5411 12.5645 10.0573 12.5622C9.6783 12.5622 9.45801 12.3892 9.44991 12.1027C9.441 11.799 9.66048 11.6206 10.0598 11.619C10.8122 11.6159 11.5654 11.6182 12.3178 11.6182H12.317Z" fill="#0F172A"/>
<path d="M13.2864 23.1895C12.5972 23.1895 11.9071 23.1918 11.2179 23.1895C10.8194 23.1879 10.587 23.0071 10.5902 22.7112C10.5935 22.4169 10.8211 22.2463 11.2284 22.2455C12.5858 22.2439 13.944 22.2431 15.3014 22.2455C15.7031 22.2455 15.934 22.4247 15.9299 22.7206C15.9259 23.0149 15.6942 23.1879 15.2917 23.1895C14.6236 23.1918 13.9554 23.1895 13.2872 23.1895H13.2864Z" fill="#0F172A"/>
<path d="M7.53047 23.1895C6.9603 23.1895 6.39013 23.1918 5.81996 23.1887C5.44336 23.1863 5.2182 23.0118 5.2101 22.7261C5.20201 22.431 5.43445 22.2463 5.83049 22.2455C6.99189 22.2431 8.15409 22.2431 9.31549 22.2455C9.69615 22.2463 9.91563 22.4185 9.92211 22.7057C9.92859 23.004 9.69939 23.1871 9.30496 23.1895C8.71374 23.1926 8.1217 23.1903 7.52966 23.1903L7.53047 23.1895Z" fill="#0F172A"/>
<path d="M7.34826 16.9307C7.85445 16.9307 8.36064 16.926 8.86682 16.9322C9.21589 16.9362 9.42809 17.1224 9.42647 17.4042C9.42485 17.6852 9.21184 17.8723 8.86116 17.8739C7.83825 17.8786 6.81454 17.8786 5.79163 17.8739C5.4377 17.8723 5.21984 17.6915 5.21093 17.4144C5.20121 17.1287 5.4296 16.9346 5.7973 16.9315C6.31402 16.9268 6.83154 16.9299 7.34826 16.9307Z" fill="#0F172A"/>
<path d="M7.33449 28.5019C6.8283 28.5019 6.32211 28.5051 5.81592 28.5011C5.43851 28.498 5.21336 28.3211 5.21012 28.0346C5.20688 27.7481 5.43284 27.5595 5.80539 27.5587C6.81777 27.5548 7.83096 27.5548 8.84333 27.5587C9.21589 27.5603 9.43213 27.745 9.42646 28.0393C9.42079 28.3203 9.21022 28.4972 8.85467 28.5011C8.34848 28.5066 7.8423 28.5027 7.33611 28.5027L7.33449 28.5019Z" fill="#0F172A"/>
<path d="M19.4862 17.8762C19.0124 17.8762 18.5386 17.8801 18.0648 17.8747C17.6915 17.8708 17.4768 17.686 17.4841 17.3902C17.4906 17.1068 17.6971 16.9338 18.0567 16.9323C19.0262 16.9283 19.9948 16.9276 20.9643 16.9323C21.315 16.9338 21.532 17.1201 21.5344 17.398C21.5377 17.6759 21.3182 17.8692 20.9724 17.8739C20.4775 17.8809 19.9819 17.8755 19.4862 17.8755V17.8762Z" fill="#0F172A"/>
<path d="M6.95544 11.619C7.34176 11.619 7.7289 11.612 8.11522 11.6214C8.4408 11.6284 8.64004 11.817 8.63842 12.0918C8.6368 12.3642 8.43513 12.5575 8.10874 12.5606C7.32476 12.5693 6.54077 12.5685 5.75679 12.5606C5.41906 12.5575 5.19877 12.3462 5.21172 12.0699C5.22387 11.8037 5.43283 11.6261 5.76327 11.6206C6.16093 11.6135 6.55778 11.619 6.95544 11.619Z" fill="#0F172A"/>
<path d="M17.8056 23.1879C17.5692 23.1879 17.3327 23.1973 17.097 23.1856C16.7981 23.1707 16.594 22.9742 16.5908 22.7198C16.5876 22.4647 16.7908 22.2572 17.0881 22.2502C17.5821 22.2384 18.0762 22.2392 18.5702 22.2494C18.8739 22.2557 19.0691 22.4498 19.0715 22.712C19.074 22.9719 18.8763 23.1629 18.5791 23.1879C18.558 23.1895 18.5362 23.1895 18.5143 23.1895C18.2778 23.1895 18.0421 23.1895 17.8056 23.1895V23.1879Z" fill="#0F172A"/>
<path d="M3.97901 17.3988C3.97901 17.6633 3.76277 17.8747 3.49469 17.8731C3.23148 17.8708 3.0047 17.6453 3.01118 17.3925C3.01766 17.1381 3.24848 16.9322 3.52061 16.9385C3.77816 16.9448 3.97901 17.1459 3.97901 17.3995V17.3988Z" fill="#0F172A"/>
<path d="M3.97906 22.7198C3.97501 22.9852 3.75633 23.1918 3.48664 23.1856C3.22261 23.1793 3.0007 22.9507 3.01122 22.6979C3.02256 22.4443 3.25824 22.2408 3.52875 22.251C3.7863 22.2611 3.98311 22.4654 3.97906 22.7198Z" fill="#0F172A"/>
<path d="M3.01364 27.983C3.0428 27.7239 3.28577 27.5376 3.55547 27.5666C3.82679 27.5963 4.01144 27.8264 3.97581 28.0918C3.94341 28.3368 3.71016 28.5191 3.45828 28.4972C3.19263 28.4737 2.9853 28.235 3.01364 27.983Z" fill="#0F172A"/>
<path d="M3.97988 12.0941C3.97745 12.3454 3.76688 12.5552 3.51257 12.5599C3.2534 12.5653 3.01367 12.3368 3.01367 12.0832C3.01367 11.8358 3.2283 11.6276 3.48746 11.6253C3.76688 11.6221 3.98312 11.828 3.97988 12.0941Z" fill="#0F172A"/>
<path d="M3.97907 9.42262C3.98312 9.69189 3.77012 9.9001 3.49394 9.89618C3.24125 9.89227 3.02096 9.68328 3.01286 9.43906C3.00476 9.19406 3.21614 8.97881 3.47288 8.96863C3.75392 8.95768 3.97502 9.15571 3.97907 9.42262Z" fill="#0F172A"/>
<path d="M3.4858 15.2118C3.23069 15.2055 3.01363 14.9934 3.0112 14.7484C3.00796 14.4932 3.24283 14.2764 3.51415 14.2811C3.77899 14.2866 3.97984 14.4854 3.97984 14.7429C3.97984 15.0122 3.76279 15.218 3.4858 15.211V15.2118Z" fill="#0F172A"/>
<path d="M3.97824 25.3788C3.97338 25.6457 3.75066 25.85 3.4761 25.8383C3.22827 25.8273 3.01122 25.605 3.01203 25.3631C3.01365 25.1166 3.22989 24.9099 3.48906 24.9084C3.77252 24.9068 3.98229 25.108 3.97743 25.378L3.97824 25.3788Z" fill="#0F172A"/>
<path d="M3.97988 20.0554C3.98231 20.3129 3.78631 20.5117 3.51985 20.5219C3.24449 20.5321 3.01528 20.3254 3.01204 20.0648C3.00962 19.8166 3.21938 19.6053 3.47693 19.5975C3.75958 19.5881 3.97664 19.7861 3.97907 20.0554H3.97988Z" fill="#0F172A"/>
</g>
<defs>
<clipPath id="clip0_136_155">
<rect width="32" height="32" fill="white"/>
</clipPath>
</defs>
</svg>
