<svg width="34" height="27" viewBox="0 0 34 27" fill="none" xmlns="http://www.w3.org/2000/svg">
<path opacity="0.15" d="M0.475524 0C0.475524 0 0.475524 2.8421 0.475524 4.97368C0.475524 7.10526 0.475524 8.76316 0.475524 9.94737C0.475524 12.0789 0.475524 13.7368 0.475524 15.3947C0.475524 16.8158 0.951042 18.4737 1.1888 19.8947C1.66433 21.5526 2.13986 22.7368 2.85314 23.6842C3.56643 24.6316 4.51748 25.3421 5.94406 26.0526C7.13287 26.7632 8.79721 27 10.4615 27L13.7902 20.3684C11.4126 20.3684 9.51049 19.8947 8.55944 18.7105C7.6084 17.7632 6.8951 15.8684 6.8951 13.5H13.5525V0H0H0.475524ZM20.6853 0C20.6853 0 20.6853 2.8421 20.6853 4.97368C20.6853 7.10526 20.6853 8.76316 20.6853 9.94737C20.6853 12.0789 20.6853 13.7368 20.6853 15.3947C20.6853 16.8158 21.1608 18.4737 21.3986 19.8947C21.8741 21.5526 22.3496 22.7368 23.0629 23.6842C23.7762 24.6316 24.7273 25.3421 26.1538 26.0526C27.3427 26.7632 29.007 27 30.6713 27L34 20.3684C31.6224 20.3684 29.958 19.8947 28.7692 18.7105C27.8182 17.7632 27.1049 15.8684 27.1049 13.5H33.7622V0H20.2098H20.6853Z" fill="black"/>
</svg>
