<svg width="106" height="14" viewBox="0 0 106 14" fill="none" xmlns="http://www.w3.org/2000/svg">
<g clip-path="url(#clip0_529_19413)">
<path d="M11.3559 13.6011L7.00013 10.3998L2.64438 13.6011L4.3168 8.43104L-0.0366211 5.25012H5.33821L7.00013 0.0712891L8.66205 5.25012H14.0363L9.68346 8.43104L11.3559 13.6011Z" fill="#FCAF3C"/>
</g>
<g clip-path="url(#clip1_529_19413)">
<path d="M34.978 13.6011L30 10.3998L25.022 13.6011L26.9333 8.43104L21.958 5.25012H28.1007L30 0.0712891L31.8993 5.25012H38.0413L33.0667 8.43104L34.978 13.6011Z" fill="#FCAF3C"/>
</g>
<g clip-path="url(#clip2_529_19413)">
<path d="M57.3559 13.6011L53.0001 10.3998L48.6444 13.6011L50.3168 8.43104L45.9634 5.25012H51.3382L53.0001 0.0712891L54.662 5.25012H60.0363L55.6835 8.43104L57.3559 13.6011Z" fill="#FCAF3C"/>
</g>
<g clip-path="url(#clip3_529_19413)">
<path d="M80.978 13.6011L76 10.3998L71.022 13.6011L72.9333 8.43104L67.958 5.25012H74.1007L76 0.0712891L77.8993 5.25012H84.0413L79.0667 8.43104L80.978 13.6011Z" fill="#FCAF3C"/>
</g>
<g clip-path="url(#clip4_529_19413)">
<path d="M103.356 13.6011L99.0001 10.3998L94.6444 13.6011L96.3168 8.43104L91.9634 5.25012H97.3382L99.0001 0.0712891L100.662 5.25012H106.036L101.683 8.43104L103.356 13.6011Z" fill="#FCAF3C"/>
</g>
<defs>
<clipPath id="clip0_529_19413">
<rect width="14" height="14" fill="white"/>
</clipPath>
<clipPath id="clip1_529_19413">
<rect width="16" height="14" fill="white" transform="translate(22)"/>
</clipPath>
<clipPath id="clip2_529_19413">
<rect width="14" height="14" fill="white" transform="translate(46)"/>
</clipPath>
<clipPath id="clip3_529_19413">
<rect width="16" height="14" fill="white" transform="translate(68)"/>
</clipPath>
<clipPath id="clip4_529_19413">
<rect width="14" height="14" fill="white" transform="translate(92)"/>
</clipPath>
</defs>
</svg>
