<svg width="254" height="255" viewBox="0 0 254 255" fill="none" xmlns="http://www.w3.org/2000/svg">
<path d="M116.243 222.385L125.119 222.974L126.87 218.825L131.564 219.137L122.067 240.924L116.863 240.578L110.331 217.727L115.056 218.041L116.243 222.385ZM117.219 226.041L119.824 235.579L123.669 226.47L117.219 226.041Z" fill="#EA110C"/>
<path d="M66.2068 224.648L81.0329 206.815L85.8515 208.974L83.1753 225.202L93.6781 212.48L98.4806 214.596L94.8263 237.469L90.4458 235.506L93.9443 218.069L82.7068 232.04L78.1511 229.999L81.2891 212.505L70.6165 226.624L66.2068 224.648Z" fill="#EA110C"/>
<path d="M56.7065 192.361L63.0557 198.592L67.0874 196.586L70.4447 199.88L49.0449 210.219L45.3221 206.566L55.2567 184.975L58.6369 188.292L56.7065 192.361ZM55.064 195.771L50.8259 204.704L59.6775 200.298L55.064 195.771Z" fill="#EA110C"/>
<path d="M45.2407 168.48L40.0029 177.001L41.0238 178.85L48.6435 174.643L50.8089 178.565L31.2553 189.361L27.2029 182.021C26.3677 180.509 25.927 179.071 25.8809 177.707C25.816 176.354 26.0968 175.163 26.7232 174.135C27.3206 173.098 28.1796 172.271 29.3002 171.652C30.5888 170.94 31.9623 170.67 33.4206 170.839C34.8602 171.019 36.1834 171.738 37.3902 172.997L42.7351 163.942L45.2407 168.48ZM38.0823 180.474L36.2727 177.197C35.6849 176.132 34.9946 175.477 34.2016 175.233C33.39 174.999 32.5266 175.134 31.6115 175.64C30.715 176.135 30.1684 176.777 29.9715 177.569C29.756 178.37 29.9421 179.303 30.5299 180.367L32.3395 183.645L38.0823 180.474Z" fill="#EA110C"/>
<path d="M15.9722 152.695C15.4735 150.402 15.4842 148.293 16.0043 146.367C16.5198 144.421 17.5094 142.798 18.9731 141.497C20.4114 140.18 22.225 139.284 24.4138 138.808C26.6026 138.332 28.6247 138.394 30.4801 138.995C32.3101 139.579 33.8637 140.649 35.1409 142.206C36.4136 143.741 37.2993 145.655 37.798 147.948L39.4573 155.578L17.6316 160.324L15.9722 152.695ZM34.111 148.914C33.6123 146.621 32.6016 144.985 31.0788 144.006C29.556 143.027 27.6585 142.785 25.3863 143.279C23.1141 143.773 21.4782 144.784 20.4786 146.311C19.4581 147.843 19.1973 149.756 19.696 152.049L20.3692 155.144L34.7843 152.009L34.111 148.914Z" fill="#EA110C"/>
<path d="M35.8375 120.647C35.7273 122.201 35.3617 123.586 34.7407 124.804C34.1212 126.001 33.2857 126.925 32.2342 127.578C31.1827 128.23 29.9753 128.519 28.6119 128.444L28.9514 123.656C29.871 123.657 30.6171 123.389 31.1899 122.852C31.7641 122.294 32.0875 121.504 32.1599 120.483C32.2338 119.44 32.0472 118.603 31.6 117.973C31.1316 117.341 30.493 116.996 29.6844 116.939C29.0247 116.892 28.4677 117.056 28.0135 117.43C27.5592 117.804 27.1931 118.291 26.9153 118.892C26.6177 119.469 26.2822 120.28 25.9088 121.323C25.3806 122.739 24.8819 123.891 24.4127 124.777C23.9237 125.641 23.2409 126.373 22.3642 126.974C21.4677 127.552 20.3172 127.791 18.9128 127.692C17.5934 127.598 16.4677 127.187 15.5356 126.458C14.6035 125.729 13.9244 124.75 13.4981 123.522C13.0507 122.293 12.8812 120.912 12.9899 119.38C13.1529 117.082 13.8488 115.26 15.0778 113.914C16.2869 112.545 17.897 111.858 19.9078 111.85L19.5592 116.766C18.7901 116.754 18.139 117.04 17.6058 117.622C17.0528 118.182 16.7409 118.962 16.67 119.962C16.6081 120.834 16.7817 121.552 17.1909 122.116C17.6015 122.658 18.2325 122.96 19.0837 123.02C19.6795 123.062 20.1932 122.906 20.6246 122.552C21.0363 122.175 21.3903 121.708 21.6864 121.152C21.9627 120.572 22.2982 119.762 22.6928 118.721C23.221 117.304 23.7304 116.153 24.2209 115.268C24.7114 114.383 25.4056 113.641 26.3036 113.042C27.2016 112.443 28.3421 112.192 29.7253 112.29C30.917 112.374 32.0017 112.762 32.9794 113.451C33.957 114.141 34.7122 115.103 35.2448 116.339C35.7561 117.572 35.9537 119.009 35.8375 120.647Z" fill="#EA110C"/>
<path d="M39.0995 102.033C38.8751 102.812 38.4534 103.39 37.8343 103.767C37.2005 104.117 36.5249 104.189 35.8074 103.982C35.0899 103.775 34.5663 103.358 34.2366 102.73C33.8922 102.076 33.8322 101.36 34.0566 100.581C34.2751 99.822 34.7012 99.2677 35.3349 98.9174C35.9482 98.5612 36.6135 98.4865 37.331 98.6932C38.0485 98.8998 38.5824 99.3201 38.9326 99.9538C39.2624 100.582 39.318 101.275 39.0995 102.033Z" fill="#EA110C"/>
<path d="M53.1045 65.8049L47.7487 72.9079L50.2607 76.6456L47.4287 80.4015L34.4044 60.5217L37.5447 56.3569L60.2403 63.4103L57.389 67.1918L53.1045 65.8049ZM49.5107 64.618L40.1041 61.5731L45.6191 69.7793L49.5107 64.618Z" fill="#EA110C"/>
<path d="M78.6213 22.7045L85.4187 44.8772L80.9732 47.726L68.8628 36.5973L73.7525 52.3531L69.3512 55.2116L52.2175 39.6245L56.2589 37.0347L68.9306 49.514L63.3987 32.4594L67.6018 29.766L80.5181 41.9746L74.553 25.3116L78.6213 22.7045Z" fill="#EA110C"/>
<path d="M110.837 32.4437L102.146 34.3421L101.616 38.8141L97.0205 39.818L100.094 16.2512L105.19 15.1381L117.81 35.2768L113.183 36.2875L110.837 32.4437ZM108.884 29.2017L103.733 20.7627L102.569 30.5811L108.884 29.2017Z" fill="#EA110C"/>
<path d="M137.097 35.9332L132.838 26.8833L130.732 26.7245L130.077 35.4038L125.61 35.0669L127.289 12.7942L135.65 13.4246C137.373 13.5546 138.817 13.9737 139.983 14.6821C141.151 15.3692 141.993 16.2564 142.51 17.3436C143.05 18.4113 143.272 19.5833 143.176 20.8596C143.065 22.3275 142.54 23.6249 141.599 24.7521C140.66 25.8579 139.333 26.5708 137.619 26.8908L142.267 36.323L137.097 35.9332ZM130.984 23.374L134.718 23.6555C135.93 23.747 136.856 23.528 137.495 22.9985C138.136 22.4478 138.495 21.6512 138.574 20.6089C138.651 19.5878 138.412 18.7782 137.858 18.1802C137.306 17.5609 136.424 17.2055 135.211 17.1141L131.478 16.8326L130.984 23.374Z" fill="#EA110C"/>
<path d="M166.337 20.0943C168.528 20.9333 170.287 22.0976 171.613 23.5873C172.958 25.0847 173.774 26.8019 174.061 28.739C174.375 30.6638 174.131 32.6721 173.33 34.7641C172.53 36.8561 171.37 38.5136 169.851 39.7367C168.359 40.9476 166.613 41.661 164.611 41.8771C162.63 42.1008 160.543 41.7931 158.352 40.9542L151.06 38.1628L159.045 17.303L166.337 20.0943ZM159.563 37.3407C161.755 38.1796 163.677 38.2302 165.33 37.4924C166.983 36.7546 168.226 35.2998 169.057 33.1282C169.888 30.9565 169.939 29.0342 169.209 27.3613C168.486 25.6684 167.029 24.4025 164.837 23.5636L161.879 22.431L156.605 36.2081L159.563 37.3407Z" fill="#EA110C"/>
<path d="M182.265 54.2694C181.026 53.3263 180.067 52.2614 179.388 51.0747C178.727 49.9009 178.411 48.6955 178.441 47.4583C178.471 46.2212 178.891 45.0529 179.701 43.9535L183.52 46.8605C183.016 47.6292 182.831 48.4002 182.967 49.1734C183.119 49.9596 183.603 50.6627 184.417 51.2829C185.249 51.916 186.051 52.2181 186.824 52.1894C187.609 52.1438 188.247 51.7984 188.738 51.1533C189.139 50.627 189.307 50.0714 189.243 49.4864C189.179 48.9014 188.972 48.3282 188.621 47.7668C188.301 47.2013 187.807 46.4768 187.139 45.5931C186.243 44.375 185.553 43.3269 185.068 42.4489C184.614 41.5667 184.375 40.5943 184.353 39.5317C184.36 38.4651 184.79 37.3716 185.643 36.2511C186.444 35.1986 187.405 34.4822 188.526 34.1018C189.646 33.7214 190.837 33.6892 192.098 34.0053C193.371 34.3044 194.619 34.9191 195.841 35.8493C197.675 37.2446 198.818 38.825 199.271 40.5903C199.753 42.3516 199.447 44.0754 198.351 45.7616L194.429 42.7771C194.861 42.1401 194.979 41.4391 194.784 40.674C194.618 39.9048 194.137 39.2166 193.339 38.6093C192.643 38.0796 191.947 37.8315 191.251 37.865C190.572 37.9115 189.975 38.2742 189.458 38.9532C189.096 39.4286 188.945 39.9438 189.005 40.4989C189.095 41.05 189.292 41.6017 189.595 42.1543C189.929 42.7028 190.423 43.4274 191.078 44.328C191.974 45.546 192.657 46.6026 193.129 47.4977C193.601 48.3928 193.841 49.3801 193.851 50.4596C193.86 51.5392 193.445 52.6307 192.605 53.7342C191.882 54.6848 190.964 55.3803 189.851 55.8204C188.739 56.2606 187.52 56.3651 186.195 56.1339C184.882 55.8857 183.572 55.2642 182.265 54.2694Z" fill="#EA110C"/>
<path d="M196.051 67.1957C195.522 66.5812 195.27 65.9118 195.294 65.1875C195.348 64.4654 195.658 63.8609 196.224 63.3739C196.79 62.8868 197.426 62.6773 198.132 62.7454C198.868 62.8157 199.5 63.1581 200.029 63.7725C200.544 64.3708 200.774 65.031 200.72 65.7531C200.682 66.4612 200.38 67.0588 199.814 67.5458C199.248 68.0328 198.604 68.2493 197.882 68.1952C197.176 68.1271 196.566 67.794 196.051 67.1957Z" fill="#EA110C"/>
<path d="M218.688 98.7587L215.679 90.3868L211.176 90.4409L209.585 86.0141L233.352 86.0082L235.116 90.9169L216.782 106.04L215.18 101.583L218.688 98.7587ZM221.649 96.4023L229.35 90.2007L219.463 90.3191L221.649 96.4023Z" fill="#EA110C"/>
<path d="M240.767 143.717L218.494 137.257L218.546 131.977L234.49 127.942L218.63 123.402L218.65 118.153L241.076 112.358L241.029 117.158L223.647 120.923L240.945 125.637L240.896 130.629L223.607 134.747L240.815 138.885L240.767 143.717Z" fill="#EA110C"/>
<path d="M214.972 165.333L218.144 157.022L214.693 154.129L216.371 149.735L234.403 165.216L232.543 170.089L208.781 169.615L210.47 165.191L214.972 165.333ZM218.754 165.476L228.636 165.789L221.059 159.437L218.754 165.476Z" fill="#EA110C"/>
<path d="M197.666 185.391L207.571 186.785L208.858 185.11L201.955 179.808L204.684 176.255L222.397 189.861L217.29 196.51C216.238 197.88 215.095 198.859 213.864 199.447C212.65 200.047 211.446 200.266 210.253 200.103C209.064 199.97 207.962 199.513 206.947 198.734C205.78 197.837 204.982 196.686 204.555 195.282C204.144 193.89 204.274 192.39 204.946 190.78L194.508 189.502L197.666 185.391ZM211.522 187.157L209.241 190.126C208.501 191.09 208.177 191.985 208.27 192.809C208.38 193.647 208.849 194.384 209.678 195.021C210.49 195.645 211.298 195.889 212.102 195.753C212.922 195.63 213.703 195.086 214.444 194.122L216.725 191.153L211.522 187.157Z" fill="#EA110C"/>
<path d="M194.9 218.53C192.997 219.904 191.06 220.737 189.087 221.03C187.097 221.335 185.214 221.077 183.436 220.256C181.654 219.464 180.107 218.16 178.796 216.344C177.484 214.528 176.733 212.65 176.542 210.709C176.346 208.798 176.706 206.946 177.621 205.153C178.52 203.373 179.92 201.796 181.823 200.422L188.153 195.851L201.23 213.958L194.9 218.53ZM184.182 203.415C182.279 204.789 181.184 206.37 180.896 208.157C180.607 209.944 181.144 211.78 182.505 213.665C183.867 215.55 185.447 216.646 187.247 216.951C189.059 217.274 190.916 216.749 192.819 215.375L195.387 213.52L186.75 201.561L184.182 203.415Z" fill="#EA110C"/>
<path d="M157.583 213.134C159.051 212.614 160.467 212.395 161.832 212.477C163.176 212.567 164.357 212.963 165.376 213.666C166.395 214.369 167.142 215.36 167.618 216.64L163.094 218.243C162.727 217.4 162.183 216.823 161.462 216.512C160.721 216.209 159.868 216.229 158.902 216.571C157.917 216.92 157.225 217.425 156.826 218.087C156.434 218.769 156.373 219.492 156.644 220.257C156.865 220.88 157.237 221.325 157.762 221.592C158.286 221.859 158.88 221.999 159.541 222.014C160.19 222.056 161.066 222.039 162.172 221.965C163.681 221.882 164.936 221.879 165.936 221.955C166.923 222.058 167.868 222.391 168.769 222.954C169.657 223.545 170.336 224.503 170.807 225.831C171.248 227.077 171.321 228.274 171.026 229.42C170.73 230.565 170.105 231.579 169.15 232.461C168.202 233.362 167.004 234.07 165.556 234.583C163.384 235.352 161.436 235.443 159.711 234.854C157.973 234.293 156.699 233.092 155.889 231.252L160.534 229.606C160.83 230.316 161.352 230.799 162.099 231.055C162.833 231.338 163.673 231.312 164.618 230.977C165.442 230.685 166.031 230.239 166.384 229.638C166.717 229.045 166.741 228.346 166.456 227.542C166.257 226.979 165.908 226.57 165.411 226.317C164.901 226.09 164.331 225.952 163.703 225.903C163.062 225.882 162.185 225.898 161.072 225.953C159.563 226.035 158.304 226.028 157.297 225.932C156.29 225.837 155.332 225.497 154.424 224.913C153.515 224.33 152.829 223.385 152.366 222.078C151.967 220.952 151.888 219.803 152.13 218.631C152.371 217.459 152.951 216.382 153.871 215.4C154.797 214.438 156.035 213.683 157.583 213.134Z" fill="#EA110C"/>
<path d="M139.217 217.586C140.021 217.48 140.719 217.636 141.312 218.053C141.886 218.493 142.222 219.084 142.32 219.824C142.417 220.565 142.244 221.211 141.8 221.765C141.338 222.342 140.706 222.683 139.902 222.789C139.119 222.892 138.441 222.723 137.866 222.282C137.295 221.863 136.96 221.283 136.863 220.542C136.765 219.802 136.937 219.145 137.378 218.57C137.821 218.017 138.435 217.689 139.217 217.586Z" fill="#EA110C"/>
</svg>
