<svg width="32" height="32" viewBox="0 0 32 32" fill="none" xmlns="http://www.w3.org/2000/svg">
<g clip-path="url(#clip0_136_150)">
<path d="M3.53496 7.70069C3.30003 7.2251 3.0651 6.7578 2.83294 6.28498C1.89599 4.39092 2.73344 2.37243 4.72342 1.66181C5.01639 1.55673 5.2679 1.32723 5.52217 1.13368C6.1855 0.63597 6.90963 0.282043 7.72497 0.113374C8.81117 -0.110595 9.86144 -0.0055233 10.8785 0.431356C11.412 0.660855 11.9399 0.895885 12.4622 1.15027C14.1731 1.98808 15.0741 3.75495 14.759 5.63519C14.7507 5.68496 14.7424 5.7375 14.7397 5.74856H16.9618C16.9618 5.21214 16.8899 4.66189 16.9756 4.13653C17.1525 3.04157 17.8241 2.29224 18.8136 1.80559C19.2226 1.60374 19.6289 1.38254 19.9965 1.11156C20.9694 0.398175 22.0501 -0.00275821 23.2579 0.00553695C23.6946 0.00830201 24.1589 0.0359526 24.5569 0.188031C25.5242 0.558548 26.5192 0.918006 27.4009 1.45166C29.0648 2.45538 29.6977 4.58447 28.9929 6.40388C28.8271 6.83246 28.6364 7.25275 28.4401 7.71175C28.9735 7.77535 29.413 7.98826 29.706 8.43896C29.9133 8.75971 29.9768 9.11087 29.9354 9.48692C29.8525 10.2501 29.2748 10.734 28.2936 10.8501C28.2135 11.1072 28.1444 11.3782 28.0449 11.6354C27.6414 12.6806 26.9753 13.5156 26.03 14.1212C25.8697 14.2235 25.7868 14.3258 25.7979 14.5276C25.82 14.8926 25.6846 15.3405 25.8531 15.5977C26.019 15.8521 26.475 15.9212 26.8094 16.0622C27.9371 16.535 29.0648 17.0079 30.1979 17.4752C31.4417 17.9895 31.9944 18.8134 31.9944 20.1656C31.9944 22.3168 31.9944 24.468 31.9944 26.6192C31.9944 27.1916 31.8397 27.3492 31.2703 27.3492C30.1537 27.3492 29.0344 27.3492 27.8652 27.3492C27.8652 27.4708 27.8652 27.5842 27.8652 27.6976C27.8652 28.8921 27.8652 30.0838 27.8652 31.2783C27.8652 31.8313 27.7049 31.9972 27.1632 31.9972C19.7146 31.9972 12.2632 31.9972 4.81463 31.9972C4.28949 31.9972 4.12642 31.8286 4.12642 31.3004C4.12642 30.0009 4.12642 28.6985 4.12642 27.3519C3.99929 27.3519 3.88597 27.3519 3.77265 27.3519C2.73067 27.3519 1.68593 27.3519 0.643957 27.3519C0.179628 27.3519 -0.00278659 27.1695 -0.00278659 26.7077C-0.00278659 24.4597 -0.0166059 22.2117 0.00274113 19.9637C0.0110327 18.8162 0.577624 18.0033 1.62789 17.5526C3.01812 16.9581 4.41939 16.3857 5.81791 15.8023C5.93675 15.7525 6.0556 15.7 6.19103 15.6419C6.19103 15.2355 6.19656 14.8262 6.1855 14.4198C6.1855 14.3424 6.1247 14.2345 6.05836 14.193C4.81739 13.405 4.04627 12.2852 3.71461 10.8639C2.58695 10.6676 2.06458 10.1892 2.03418 9.32931C2.00378 8.50256 2.50956 7.94401 3.52667 7.70069H3.53496ZM30.9691 26.3206C30.9691 24.2385 30.9691 22.2062 30.9691 20.1739C30.9691 19.2476 30.6678 18.7969 29.8165 18.4402C28.3019 17.807 26.7873 17.1738 25.27 16.5433C24.8333 16.3608 24.7752 16.2751 24.7752 15.7912C24.7752 15.2548 24.7918 14.7156 24.7697 14.1792C24.7531 13.8087 24.9079 13.6041 25.2147 13.4022C25.6486 13.1147 26.0687 12.7829 26.4197 12.4013C26.9255 11.8538 27.1936 11.1708 27.3042 10.4298C27.3816 9.91827 27.5253 9.79937 28.0504 9.79937C28.1693 9.79937 28.2881 9.8049 28.4042 9.7966C28.7055 9.77172 28.9127 9.54775 28.9017 9.26848C28.8934 9.00027 28.6916 8.79565 28.4042 8.77353C28.2439 8.76247 28.0808 8.77353 27.9205 8.768C27.5584 8.75418 27.376 8.56615 27.3567 8.20393C27.3346 7.84447 27.3816 7.50437 27.5446 7.17533C27.7298 6.80205 27.8901 6.41217 28.0394 6.0223C28.606 4.51534 27.9703 2.85631 26.5331 2.1291C25.9692 1.8443 25.3861 1.58715 24.8029 1.34382C24.1672 1.07838 23.5039 0.989897 22.8129 1.06455C21.9644 1.1558 21.2181 1.47931 20.5521 2.00191C20.1568 2.31159 19.7505 2.59086 19.2641 2.77059C18.5096 3.0471 18.0895 3.64988 17.9513 4.43792C17.8462 5.0407 18.0093 5.60754 18.3493 6.08866C18.504 6.30987 18.8246 6.4177 19.0817 6.55872C19.289 6.67209 19.5128 6.74951 19.7229 6.85735C20.7511 7.37718 21.4531 8.17904 21.8262 9.27124C22.1772 10.3054 22.1136 11.3201 21.6797 12.3183C21.5249 12.675 21.3729 13.0317 21.2071 13.4216C21.4061 13.4216 21.5443 13.4216 21.6852 13.4216C22.5476 13.4409 23.222 14.1184 23.2247 14.9645C23.2247 15.8106 22.5559 16.4963 21.6963 16.5185C21.4835 16.524 21.2707 16.5185 21.0634 16.5185C20.7207 17.9701 19.9495 19.0789 18.7251 19.8697C18.6588 19.9139 18.5897 20.0135 18.587 20.0909C18.5731 20.4863 18.5814 20.8817 18.5814 21.2799C18.6865 21.3131 18.7694 21.3379 18.8495 21.3628C21.2264 22.0264 23.6061 22.679 25.9803 23.3564C27.0582 23.6634 27.669 24.4182 27.8431 25.5159C27.8846 25.7731 27.8487 26.0441 27.8487 26.3289C28.8436 26.3289 29.7751 26.3289 30.7093 26.3289C30.7811 26.3289 30.8557 26.3289 30.9635 26.3289L30.9691 26.3206ZM10.7625 13.3912C10.4888 12.8409 10.2207 12.3266 9.97752 11.804C9.21193 10.1671 9.90843 8.22605 11.5502 7.52096C12.0228 7.31635 12.4346 7.04814 12.8381 6.74951C12.9846 6.64167 13.1477 6.55596 13.2886 6.43982C13.3826 6.3624 13.4821 6.26562 13.5291 6.15779C14.1896 4.62318 13.5623 2.87014 12.0725 2.11804C11.5087 1.83324 10.9283 1.57609 10.3424 1.33553C9.54636 1.00649 8.72273 0.956716 7.87699 1.13645C7.02848 1.31617 6.34581 1.79176 5.68248 2.30883C5.51665 2.43879 5.33147 2.56874 5.13247 2.63234C3.67868 3.09411 3.08168 4.46834 3.75607 5.83981C4.01034 6.35964 4.3116 6.86288 4.51889 7.40206C4.63221 7.69516 4.63774 8.05185 4.61839 8.3726C4.60457 8.61592 4.39176 8.75141 4.13748 8.76524C3.95506 8.77353 3.76989 8.75971 3.59023 8.77353C3.30279 8.79565 3.10656 9.00856 3.10379 9.27954C3.10103 9.54775 3.29727 9.76619 3.57918 9.79384C3.72843 9.80766 3.88044 9.79937 4.02969 9.79937C4.45256 9.8049 4.62116 9.93209 4.68472 10.3468C4.90031 11.7515 5.63273 12.7884 6.87647 13.4658C7.11969 13.5986 7.23301 13.7893 7.23024 14.0631C7.22471 14.6327 7.23024 15.2023 7.23024 15.7719C7.23024 16.2779 7.1722 16.3664 6.69405 16.5655C5.17946 17.1959 3.6621 17.8236 2.1475 18.4568C1.35427 18.7886 1.03919 19.2642 1.03919 20.1241C1.03919 22.0707 1.03919 24.0173 1.03919 25.9639C1.03919 26.0773 1.03919 26.1906 1.03919 26.304H4.13195C4.13195 26.174 4.13195 26.0579 4.13195 25.9418C4.13748 24.6228 4.86714 23.6551 6.1247 23.3067C7.71668 22.8643 9.31143 22.4274 10.9034 21.985C11.7381 21.7527 12.5756 21.5177 13.4213 21.2771C13.4213 20.9149 13.4102 20.572 13.4268 20.2292C13.4351 20.0245 13.3715 19.9056 13.1947 19.7895C12.0974 19.0734 11.3733 18.0779 11.0223 16.8143C10.9946 16.7148 10.9587 16.618 10.9311 16.5268C9.40817 16.4161 8.7863 15.9627 8.77801 14.9756C8.76971 14.0105 9.40264 13.4935 10.7625 13.3912ZM8.27222 30.9493V26.8515H9.29761V30.9382H22.7217V26.8542H23.7581V30.9438H26.815C26.826 30.8967 26.8371 30.8663 26.8371 30.8359C26.8371 29.1465 26.8454 27.4598 26.8343 25.7703C26.8288 25.0763 26.3672 24.5178 25.668 24.3214C23.2717 23.6495 20.8699 22.9887 18.4736 22.314C18.2802 22.2587 18.1641 22.3002 18.0287 22.4412C17.5367 22.95 17.0281 23.4477 16.5251 23.9509C16.1078 24.3685 15.9005 24.3657 15.4748 23.9399C14.9801 23.4449 14.4799 22.9583 13.9962 22.4523C13.8525 22.303 13.7253 22.2615 13.5236 22.3195C11.1687 22.9832 8.80841 23.6329 6.4536 24.291C5.5664 24.5399 5.1684 25.0652 5.1684 25.9749C5.1684 27.5234 5.1684 29.0718 5.1684 30.6202C5.1684 30.7253 5.1684 30.8304 5.1684 30.9493H8.27775H8.27222ZM19.441 12.1524C17.1359 13.8446 14.8585 13.8363 12.5921 12.169C12.009 13.0317 11.8763 13.4935 11.8763 14.652C11.8763 14.9534 11.8735 15.2548 11.8763 15.5562C11.9067 17.63 13.4766 19.3305 15.5909 19.5904C17.5367 19.8282 19.5571 18.4844 19.9689 16.524C20.1706 15.5728 20.085 14.558 20.1264 13.5737C20.1264 13.5239 20.0988 13.4714 20.0739 13.4244C19.8694 13.0124 19.6621 12.5976 19.441 12.1524ZM15.0686 9.55881C14.0183 7.93848 12.3517 8.02973 11.5253 8.73205C10.5109 9.59199 10.4142 10.8556 11.3843 12.205C11.5585 11.8593 11.7188 11.5248 11.8901 11.193C12.0974 10.7976 12.4014 10.7257 12.7635 10.9828C13.0675 11.2013 13.3605 11.4446 13.6728 11.652C14.7562 12.3709 15.9226 12.5561 17.1801 12.205C17.9706 11.9838 18.5814 11.4722 19.2199 11.0022C19.6096 10.7146 19.9108 10.7865 20.132 11.2206C20.2867 11.522 20.436 11.8262 20.599 12.1524C21.4724 10.5681 20.9058 8.63528 19.3498 7.82235C18.855 7.5652 18.341 7.34676 17.8324 7.11726C17.0392 6.7578 16.2128 6.63338 15.3505 6.76887C14.7756 6.86011 14.1454 7.10897 13.8939 7.36612C14.7618 7.65921 15.4362 8.18458 15.9032 9.00303C15.6186 9.19382 15.3532 9.37078 15.0713 9.55881H15.0686ZM17.5505 20.4034C16.5002 20.7241 15.4887 20.702 14.455 20.4117C14.455 20.7075 14.4467 20.9564 14.4577 21.2025C14.4633 21.3131 14.466 21.4596 14.5351 21.5287C15.0078 22.0264 15.4942 22.5076 16.0027 23.0191C16.5141 22.5048 16.9977 22.0209 17.4759 21.5315C17.5229 21.4845 17.545 21.3988 17.5477 21.3297C17.556 21.0393 17.5505 20.7518 17.5505 20.4034ZM10.8233 15.465V14.4695C10.1323 14.3949 9.81998 14.547 9.81169 14.9534C9.80616 15.3544 10.0936 15.5064 10.8233 15.465ZM21.1905 14.4723V15.4677C21.9119 15.5037 22.2021 15.3516 22.1938 14.9534C22.1855 14.5497 21.8649 14.3949 21.1905 14.4751V14.4723Z" fill="#522B7D"/>
</g>
<defs>
<clipPath id="clip0_136_150">
<rect width="32" height="32" fill="white"/>
</clipPath>
</defs>
</svg>
