<svg width="96" height="25" viewBox="0 0 96 25" fill="none" xmlns="http://www.w3.org/2000/svg">
<path d="M46.8935 1.96273C46.8935 1.77782 46.8935 1.60379 46.8935 1.42975C46.8935 1.29922 47.0023 1.25572 47.1111 1.23396C47.4592 1.1687 47.8181 1.10343 48.1662 1.03817C49.5693 0.777116 50.9616 0.516061 52.3648 0.255006C52.8434 0.167988 53.3329 0.0809751 53.8115 0.00483433C53.8985 -0.00604292 53.9855 0.00483433 54.1052 0.00483433C54.1052 0.113607 54.1052 0.211501 54.1052 0.309396C54.1052 2.51748 54.0943 4.72556 54.0943 6.93365C54.0943 7.1947 54.0943 7.44488 54.116 7.70593C54.116 7.78207 54.1487 7.85821 54.1595 7.96698C54.3009 7.90172 54.4206 7.83646 54.5402 7.78207C55.2146 7.47751 55.889 7.21645 56.6287 7.11856C57.6403 6.98803 58.6518 6.9554 59.6417 7.23821C60.501 7.47751 61.2406 7.92347 61.9041 8.49997C63.0136 9.46804 63.7098 10.6972 64.1449 12.0895C64.3733 12.8074 64.5038 13.5361 64.5038 14.2867C64.5038 14.787 64.5473 15.2874 64.5364 15.7877C64.4929 17.713 64.0035 19.5186 62.9266 21.1285C61.8498 22.7274 60.3596 23.7716 58.5213 24.3372C57.7382 24.5765 56.9441 24.7288 56.1174 24.7288C55.3887 24.7288 54.649 24.7723 53.9202 24.7506C53.3873 24.7288 52.8434 24.6636 52.3104 24.5765C51.3641 24.4243 50.4286 24.2502 49.4932 24.0762C49.3953 24.0544 49.3083 24.0218 49.1886 23.9892C49.1886 23.8804 49.1886 23.7934 49.1886 23.7064C49.1886 22.8036 49.1886 21.9116 49.2104 21.0088C49.2974 17.4519 49.243 13.8951 49.2539 10.3382C49.2539 9.37015 49.2539 8.40207 49.2321 7.44487C49.2321 6.57469 49.2104 5.69364 49.1778 4.82346C49.156 4.35574 49.0907 3.88801 48.9602 3.42029C48.7209 2.61537 48.1879 2.16941 47.3721 2.03888C47.2199 2.01713 47.0785 1.99537 46.8827 1.96273H46.8935ZM54.0943 9.14173C54.0943 9.30489 54.0943 9.45717 54.0943 9.59857C54.116 13.9386 54.0508 18.2786 54.1487 22.6078C54.1487 22.8906 54.1813 23.1625 54.2031 23.4453C54.7034 23.5541 55.182 23.5323 55.6497 23.5106C55.8564 23.4997 56.0631 23.4671 56.2589 23.3909C56.7375 23.2278 57.129 22.9123 57.4662 22.5316C58.108 21.792 58.4996 20.9327 58.7933 20.0081C59.2501 18.5941 59.4133 17.1256 59.4459 15.6354C59.4459 15.1025 59.4133 14.5586 59.3697 14.0147C59.3045 13.1446 59.1304 12.2853 58.815 11.4695C58.5213 10.7081 58.1189 10.0119 57.4989 9.47892C57.1073 9.14172 56.6613 8.92418 56.1392 8.84804C55.4539 8.75014 54.8013 8.92418 54.116 9.13085L54.0943 9.14173Z" fill="#A3A3A3"/>
<path d="M0.0108775 1.37544V0.429115C0.130527 0.429115 0.228422 0.418235 0.337195 0.418235C4.3509 0.418235 8.37548 0.418235 12.3892 0.418235C14.5646 0.418235 16.7401 0.396484 18.9155 0.396484C19.0134 0.396484 19.1113 0.396484 19.2201 0.396484C19.2201 0.711925 19.2419 1.00561 19.2419 1.28842C19.2636 2.38702 19.2745 3.48562 19.2962 4.58422C19.3071 5.33475 19.3289 6.08529 19.3398 6.83582C19.3398 6.92283 19.3398 6.99897 19.3398 7.10775C19.0026 7.21652 18.6762 7.31442 18.3173 7.42319C18.2303 7.2274 18.1541 7.06424 18.078 6.87933C17.7734 6.08529 17.4689 5.29124 17.012 4.57335C16.5334 3.82281 15.9678 3.17018 15.1955 2.72422C14.5864 2.36527 13.9338 2.12597 13.2159 2.11509C12.226 2.10421 11.2362 2.09333 10.2464 2.08245C9.8004 2.08245 9.34356 2.08245 8.88671 2.08245C8.88671 2.14772 8.86496 2.20211 8.85408 2.25649C8.83233 2.86562 8.81057 3.46387 8.78882 4.07299C8.76707 4.74738 8.75619 5.42177 8.73443 6.09616C8.72356 6.72704 8.7018 7.35792 8.69092 7.9888C8.66917 9.15267 8.65829 10.3165 8.63654 11.4804C8.63654 11.5674 8.63654 11.6544 8.63654 11.7741C8.82145 11.7741 8.98461 11.7741 9.15865 11.7741C10.0179 11.7197 10.8881 11.6653 11.7474 11.5892C12.2587 11.5457 12.6502 11.2737 12.9874 10.9039C13.4878 10.3383 13.7488 9.6639 13.912 8.93513C13.9555 8.76109 13.9881 8.57618 14.0317 8.36951H15.0106V16.4513C14.7387 16.4513 14.4776 16.4513 14.2166 16.4513C14.0752 16.4513 14.0317 16.3425 13.999 16.2229C13.8576 15.766 13.7271 15.2983 13.5639 14.8415C13.4225 14.4608 13.2159 14.1127 12.9331 13.7973C12.6285 13.4709 12.2587 13.286 11.8236 13.2208C11.4211 13.1555 11.0187 13.1229 10.6053 13.0902C10.0832 13.0576 9.5611 13.0358 9.039 13.0141C8.90847 13.0141 8.77794 13.0141 8.61478 13.0141C8.61478 13.2751 8.61478 13.5144 8.61478 13.7537C8.62566 14.2759 8.64742 14.798 8.65829 15.3201C8.68005 16.0053 8.71268 16.7015 8.73443 17.3867C8.73443 17.6043 8.73443 17.8218 8.75619 18.0394C8.81057 19.051 8.85408 20.0626 9.04987 21.0633C9.13689 21.4984 9.2783 21.9117 9.50672 22.2924C9.74602 22.6948 10.0941 22.9559 10.5401 23.0647C11.073 23.1952 11.6169 23.2931 12.1499 23.4019C12.2043 23.4128 12.2587 23.4236 12.3457 23.4454C12.3674 23.7173 12.3783 23.9892 12.4001 24.2503C12.2043 24.3047 0.43509 24.3264 0 24.272C0 24.0436 0 23.8043 0 23.565C0 23.4671 0.0761409 23.4345 0.163159 23.4127C0.543863 23.3366 0.924566 23.2387 1.30527 23.1734C2.0558 23.0538 2.54528 22.6078 2.82809 21.9226C3.05651 21.3787 3.18703 20.8022 3.24142 20.204C3.29581 19.6383 3.32844 19.0836 3.35019 18.518C3.37195 18.0068 3.38283 17.5064 3.40458 16.9952C3.4916 14.6674 3.45897 12.3288 3.43721 10.0011C3.43721 9.94671 3.43721 9.9032 3.43721 9.84881C3.41546 8.66319 3.42633 7.46669 3.38283 6.28107C3.35019 5.313 3.30668 4.33405 3.04563 3.39861C2.95861 3.08317 2.83896 2.76772 2.6758 2.47404C2.34949 1.90842 1.8165 1.63649 1.1965 1.52772C0.891935 1.47333 0.587372 1.4407 0.282809 1.40807C0.195791 1.40807 0.11965 1.38632 0.032632 1.37544H0.0108775Z" fill="#A3A3A3"/>
<path d="M25.5391 6.83577C26.2353 6.81401 26.9423 6.81401 27.6276 6.97717C29.0634 7.31436 30.3251 7.95612 31.3585 9.0221C32.1634 9.84877 32.7181 10.8277 33.0988 11.9046C33.3708 12.666 33.5557 13.4491 33.6318 14.2541C33.6862 14.9176 33.7406 15.5811 33.6645 16.2446C33.6318 16.56 33.6318 16.8755 33.6101 17.1909C33.5231 18.1916 33.2294 19.1488 32.816 20.0625C32.4027 20.9762 31.848 21.8029 31.1192 22.5099C30.1837 23.4236 29.0851 24.0545 27.8342 24.4243C26.9749 24.6745 26.0939 24.7724 25.202 24.7832C24.223 24.7832 23.2549 24.6745 22.3304 24.3808C21.3405 24.0653 20.4486 23.5759 19.6763 22.8797C18.5233 21.8464 17.8381 20.5411 17.4138 19.0727C17.2072 18.3439 17.0658 17.6042 17.0223 16.8428C16.9896 16.2011 17.0223 15.5484 17.044 14.8958C17.044 14.3628 17.131 13.8407 17.2507 13.3186C17.5335 12.1439 17.9795 11.0453 18.6865 10.0554C19.6002 8.79367 20.7858 7.89086 22.2325 7.33612C22.9286 7.06419 23.6465 6.87927 24.3862 6.83577C24.7669 6.81401 25.1476 6.83577 25.5391 6.83577ZM28.5413 16.0053C28.5848 14.8958 28.5195 13.7972 28.3564 12.6986C28.2258 11.8284 28.0409 10.98 27.7037 10.1751C27.4535 9.56596 27.149 8.97859 26.6595 8.52174C25.6914 7.61893 24.3209 7.74945 23.5377 8.68489C23.0918 9.21788 22.8525 9.84876 22.6567 10.5123C22.276 11.7849 22.1781 13.1011 22.1672 14.4281C22.1563 15.3309 22.189 16.2228 22.1998 17.1256C22.1998 17.7565 22.2433 18.3874 22.3521 19.0074C22.5153 19.932 22.7111 20.8457 23.1026 21.7158C23.3746 22.3141 23.7118 22.858 24.2448 23.2604C25.2237 24.0001 26.442 23.6302 27.062 22.945C27.4971 22.4555 27.7581 21.879 27.9539 21.259C28.3455 20.0408 28.4651 18.779 28.5304 17.5063C28.563 17.006 28.5304 16.5056 28.5304 16.0053H28.5413Z" fill="#A3A3A3"/>
<path d="M81.2416 14.9502H71.0061C71.0061 15.059 71.0061 15.146 71.0061 15.2439C71.0605 15.9944 71.0823 16.7558 71.2563 17.4955C71.5065 18.6158 71.9089 19.6601 72.6921 20.5302C73.5949 21.5309 74.7044 22.1292 76.0532 22.2271C76.6405 22.2706 77.2388 22.2597 77.8262 22.2271C78.6311 22.1727 79.3599 21.8573 80.0234 21.4222C80.1974 21.3134 80.3714 21.1937 80.5564 21.0632C80.676 21.2155 80.7957 21.3569 80.9044 21.4983C80.9697 21.5744 80.9588 21.6506 80.9044 21.7267C80.7304 21.9443 80.5672 22.1618 80.3823 22.3576C79.1967 23.5541 77.7718 24.3155 76.1076 24.631C74.5847 24.9138 73.0728 24.8485 71.6044 24.359C70.5928 24.0218 69.6791 23.4888 68.8742 22.7818C67.5472 21.6071 66.7422 20.1278 66.3072 18.42C66.0461 17.4193 66.0244 16.3969 66.057 15.3744C66.0787 14.5804 66.1875 13.8081 66.3942 13.0358C66.7314 11.8067 67.2535 10.6646 68.0693 9.66385C69.244 8.21718 70.7559 7.30349 72.5942 6.94454C73.0402 6.85752 73.497 6.84665 73.9539 6.80314C74.204 6.78138 74.4542 6.77051 74.7044 6.77051C76.2055 6.80314 77.576 7.22735 78.729 8.21718C79.4251 8.8263 79.9581 9.56596 80.3497 10.4144C80.7739 11.3498 81.0023 12.3288 81.122 13.3404C81.1764 13.7972 81.209 14.2432 81.2525 14.7C81.2525 14.7653 81.2525 14.8305 81.2525 14.9393L81.2416 14.9502ZM76.2381 13.6884C76.2381 13.6123 76.2598 13.547 76.249 13.4818C76.2381 13.2207 76.2272 12.9488 76.1946 12.6877C76.1184 11.8284 76.0314 10.9691 75.8247 10.1316C75.6942 9.57683 75.5093 9.03298 75.1612 8.55438C74.5956 7.79297 73.7581 7.66244 72.9858 8.24981C72.7356 8.44561 72.5289 8.6849 72.344 8.94596C71.9742 9.48982 71.724 10.0881 71.5282 10.7081C71.2563 11.5674 71.1367 12.4484 71.0279 13.3404C71.017 13.4491 71.0061 13.5579 70.9952 13.6884C71.1802 13.6884 71.3324 13.6884 71.4847 13.6884C72.4528 13.6884 73.41 13.6993 74.3781 13.7102C74.4107 13.7102 74.4433 13.7102 74.476 13.7102C74.8458 13.7755 75.2265 13.7102 75.5963 13.7102C75.803 13.7102 76.0097 13.6884 76.2272 13.6776L76.2381 13.6884Z" fill="#A3A3A3"/>
<path d="M82.3083 18.7572C82.5476 18.681 82.776 18.6049 83.0371 18.5179C83.1241 18.7137 83.2111 18.8986 83.2873 19.0835C83.6027 19.8775 83.9834 20.6498 84.4947 21.346C85.0168 22.053 85.6476 22.6295 86.4852 22.9558C86.9964 23.1516 87.5185 23.1733 88.0624 23.1625C88.367 23.1625 88.6824 23.1407 88.9652 23.0211C89.8028 22.6512 90.3684 22.0421 90.5642 21.1393C90.6512 20.7151 90.6512 20.2582 90.5424 19.8231C90.4445 19.4207 90.1835 19.0944 89.868 18.8224C89.3677 18.3765 88.7803 18.061 88.1603 17.8C87.4206 17.4845 86.681 17.2126 85.9522 16.8863C85.2126 16.56 84.5164 16.1466 83.929 15.5701C83.309 14.961 82.9066 14.2322 82.776 13.3729C82.6346 12.481 82.6238 11.5891 82.8848 10.708C83.1132 9.96835 83.4939 9.32659 84.0269 8.77185C85.2343 7.51009 86.7462 6.92272 88.454 6.79219C89.5743 6.70518 90.6947 6.7922 91.8042 6.96623C92.62 7.09676 93.4031 7.33606 94.208 7.62975C94.2189 7.87992 94.2407 8.1301 94.2516 8.39115C94.2733 9.21782 94.2842 10.0554 94.3059 10.882C94.3059 11.2845 94.3386 11.6761 94.3494 12.0894C94.1101 12.1656 93.8926 12.2417 93.6424 12.3178C93.5663 12.1656 93.4901 12.035 93.4358 11.8936C93.1638 11.1649 92.8375 10.4687 92.4351 9.8052C91.9347 9.00028 91.2603 8.4129 90.3357 8.14097C89.7919 7.98869 89.2371 7.95606 88.6824 8.09747C88.0406 8.26063 87.5947 8.66308 87.3119 9.23958C87.1052 9.64203 87.0073 10.088 87.0182 10.5449C87.0182 11.0561 87.2031 11.5129 87.5294 11.9154C87.8666 12.3287 88.3017 12.6224 88.7477 12.8943C89.4873 13.3294 90.2814 13.6557 91.0645 13.9929C91.7933 14.3084 92.5329 14.6238 93.1856 15.0915C93.86 15.5701 94.4473 16.1249 94.8172 16.8754C95.013 17.2779 95.1109 17.7021 95.1435 18.148C95.1761 18.4961 95.1652 18.8442 95.187 19.1923C95.2196 19.9754 95.0347 20.7151 94.6866 21.4112C94.208 22.3902 93.501 23.1733 92.5547 23.7281C91.7715 24.1849 90.9122 24.446 90.0203 24.6091C89.0196 24.7832 88.0189 24.8049 87.0073 24.7288C85.6368 24.62 84.288 24.3916 82.9718 23.9674C82.961 23.9674 82.9392 23.9674 82.9283 23.9565C82.5803 23.8804 82.3736 23.7172 82.4171 23.293C82.4606 22.8796 82.3953 22.4663 82.3845 22.053C82.3627 21.0523 82.3518 20.0516 82.3301 19.0617C82.3301 18.9747 82.3083 18.8768 82.2975 18.7572H82.3083Z" fill="#A3A3A3"/>
<path d="M43.9864 23.4345V24.2938H33.8706V23.4453C33.9794 23.4236 34.0881 23.4018 34.1969 23.3801C34.3601 23.3474 34.5232 23.3366 34.6864 23.3039C35.3608 23.1734 35.7524 22.7383 35.9482 22.0965C36.0787 21.6723 36.1113 21.2372 36.1331 20.7913C36.2527 18.2569 36.1875 15.7334 36.1983 13.199C36.1983 12.5463 36.1657 11.8828 36.1331 11.2302C36.1113 10.9147 36.0461 10.6102 35.9808 10.2947C35.8068 9.53333 35.3064 9.14175 34.5559 9.0221C34.4036 9.00034 34.2622 8.98946 34.1099 8.95683C33.9032 8.9242 33.8597 8.85894 33.8597 8.65227C33.8597 8.22805 33.8488 8.22805 34.2622 8.14104C36.5138 7.68419 38.7654 7.22735 41.017 6.78138C41.0387 6.78138 41.0713 6.78138 41.1148 6.78138C41.1366 8.02139 41.1148 9.27227 41.0713 10.5123C41.0931 10.5123 41.104 10.5232 41.1257 10.534C41.2019 10.4035 41.278 10.273 41.3541 10.1425C41.7675 9.39192 42.2352 8.67402 42.8661 8.07577C43.6384 7.35788 44.5412 6.8684 45.5963 6.727C46.2924 6.6291 46.9777 6.73787 47.6194 7.02068C47.7282 7.06419 47.8261 7.12946 47.9458 7.19472C47.4019 8.73929 46.8037 10.2621 46.2272 11.8284C46.1075 11.774 46.0096 11.7414 45.9226 11.687C45.1286 11.2302 44.2692 11.0018 43.3447 11.0126C42.7247 11.0126 42.1264 11.154 41.5717 11.4477C41.4738 11.5021 41.3868 11.5565 41.2998 11.6218C41.1475 11.7305 41.0605 11.8719 41.0605 12.0677C41.0496 12.3614 41.0278 12.6442 41.0278 12.9379C41.0278 14.5586 41.0278 16.1902 41.0278 17.8109C41.0278 18.4962 41.0387 19.1923 41.0822 19.8776C41.1257 20.5846 41.1584 21.2916 41.3106 21.9769C41.4085 22.4337 41.6152 22.8362 42.0394 23.0864C42.2787 23.2278 42.5398 23.2713 42.8008 23.3039C43.1924 23.3474 43.5949 23.3801 44.0082 23.4127L43.9864 23.4345Z" fill="#A3A3A3"/>
</svg>
