<svg width="196" height="30" viewBox="0 0 196 30" fill="none" xmlns="http://www.w3.org/2000/svg">
<g clip-path="url(#clip0_55_224)">
<path d="M24.8269 26.1967C19.1703 31.4795 9.78247 31.2423 4.41687 25.6057C4.56436 25.5052 4.6999 25.3967 4.84739 25.3082C7.40662 23.8167 9.9499 22.301 12.537 20.8577C13.1828 20.4959 13.3662 20.0898 13.3662 19.3782C13.3383 13.2431 13.3502 7.10802 13.3502 0.972939C13.3502 0.687492 13.3502 0.402046 13.3502 0.0683554C17.7312 -0.305539 21.5142 0.888511 24.8827 3.78318C24.4721 4.02842 24.1373 4.23346 23.7944 4.43046C20.9801 6.06273 18.1697 7.70304 15.3474 9.31923C14.9567 9.54437 14.7893 9.79363 14.7933 10.268C14.8172 13.4039 14.8212 16.5398 14.7933 19.6717C14.7893 20.2104 14.9886 20.4717 15.4231 20.721C18.4009 22.4256 21.3668 24.1544 24.3366 25.8751C24.492 25.9636 24.6355 26.0681 24.8349 26.1927L24.8269 26.1967Z" fill="#A2A2A2"/>
<path d="M2.06489 22.5624C-2.85026 14.2925 1.54667 3.74304 9.55521 1.0896C9.56717 1.32278 9.58311 1.5439 9.58311 1.76502C9.58311 6.99552 9.57116 12.23 9.59507 17.4605C9.59507 18.0395 9.39974 18.3289 8.90942 18.6064C6.62526 19.8929 4.365 21.2276 2.0609 22.5624H2.06489Z" fill="#A2A2A2"/>
<path d="M27.3303 6.71802C30.6748 11.3455 30.7227 18.5821 27.3383 23.2779C25.8514 22.4176 24.3605 21.5572 22.8696 20.6928C21.59 19.9491 20.3144 19.1932 19.0268 18.4696C18.6879 18.2806 18.5763 18.0555 18.5803 17.6695C18.6002 15.8885 18.5803 14.1075 18.6002 12.3264C18.6002 12.0933 18.7039 11.7515 18.8753 11.651C21.6737 9.99462 24.488 8.37039 27.3343 6.71802H27.3303Z" fill="#A2A2A2"/>
<path d="M82.4892 7.38138V22.4377H81.082V9.41167L80.9505 9.38353C80.4562 10.7223 79.9579 12.0571 79.4675 13.3959C78.463 16.1418 77.4425 18.8837 76.4778 21.6457C76.2466 22.309 75.9317 22.6065 75.242 22.4779C75.1145 22.4537 74.9749 22.4779 74.7756 22.4779C73.1811 18.1479 71.5905 13.814 69.996 9.48404C69.9522 9.49208 69.9043 9.50012 69.8605 9.51218V22.4336H68.4413V7.3854C69.0752 7.3854 69.701 7.34922 70.3229 7.40953C70.4863 7.42561 70.6896 7.69899 70.7654 7.89599C72.2284 11.8159 73.6754 15.7438 75.1264 19.6676C75.2261 19.941 75.3337 20.2144 75.4892 20.6285C75.6207 20.3109 75.7164 20.1059 75.7961 19.8928C77.2272 15.9609 78.6663 12.0289 80.0735 8.08897C80.2608 7.5623 80.4841 7.30902 81.0661 7.37334C81.5245 7.42561 81.9949 7.3854 82.4852 7.3854L82.4892 7.38138Z" fill="#A2A2A2"/>
<path d="M128.727 21.0386C127.543 22.3332 126.144 22.8558 124.501 22.7634C122.512 22.6508 121.2 21.5814 120.507 19.7561C119.825 17.963 119.849 16.1257 120.443 14.3246C120.981 12.6923 122.145 11.6872 123.839 11.4058C125.617 11.1123 127.18 11.5425 128.36 13.0059C128.428 13.0903 128.503 13.1748 128.579 13.2552C128.587 13.2672 128.619 13.2552 128.691 13.2552V11.6832H129.938C129.95 11.9084 129.97 12.1255 129.97 12.3466C129.97 15.3699 129.982 18.3932 129.962 21.4165C129.962 22.0678 129.903 22.7232 129.791 23.3664C129.464 25.264 128.149 26.5264 126.239 26.828C124.764 27.0611 123.325 26.9968 121.994 26.241C121.073 25.7183 120.463 24.9625 120.339 23.8609C121.424 23.6358 121.483 23.68 121.97 24.472C122.161 24.7856 122.436 25.0912 122.747 25.2881C125.239 26.8481 128.348 25.2962 128.615 22.3694C128.655 21.9271 128.691 21.4809 128.727 21.0386ZM121.26 16.7288C121.448 17.6937 121.507 18.4937 121.759 19.2295C122.257 20.6808 123.297 21.5412 124.856 21.6216C126.295 21.6939 127.387 21.0266 128.037 19.7601C128.99 17.9108 128.978 15.9971 127.977 14.1879C126.702 11.8842 123.325 11.8842 122.046 14.1959C121.607 14.992 121.487 15.9649 121.26 16.7328V16.7288Z" fill="#A2A2A2"/>
<path d="M152.505 22.4498H151.226C151.226 21.7824 151.226 21.1351 151.226 20.4879C151.226 18.8435 151.226 17.1952 151.226 15.5508C151.226 15.4142 151.226 15.2815 151.226 15.1448C151.202 13.4884 150.747 12.7768 149.559 12.5356C148.18 12.2582 146.689 12.9255 146.251 14.2322C145.936 15.1689 145.832 16.2062 145.792 17.2072C145.72 18.936 145.772 20.6728 145.772 22.4418H144.54V11.6511H145.74C145.76 12.0893 145.78 12.5074 145.808 13.1024C146.689 11.8481 147.813 11.3174 149.177 11.3134C150.592 11.3094 151.704 11.8441 152.306 13.3316C153.286 11.6993 154.694 11.1887 156.412 11.3536C157.823 11.4903 158.784 12.3144 159.023 13.7417C159.158 14.5377 159.178 15.3538 159.186 16.1619C159.206 18.2324 159.194 20.3069 159.194 22.4257H157.939C157.939 22.2086 157.939 21.9714 157.939 21.7342C157.939 19.6355 157.939 17.5409 157.939 15.4423C157.939 15.3297 157.939 15.2172 157.939 15.1046C157.923 13.5206 157.44 12.7647 156.3 12.5356C154.909 12.2541 153.43 12.9255 152.964 14.192C152.689 14.9357 152.553 15.7639 152.529 16.56C152.469 18.4938 152.509 20.4356 152.509 22.4498H152.505Z" fill="#A2A2A2"/>
<path d="M60.8514 11.8963H59.4362C59.4043 11.8038 59.3725 11.7234 59.3445 11.643C58.5832 9.43982 57.4231 8.52318 55.2386 8.40257C52.9943 8.27794 51.2842 9.19458 50.4231 11.1404C49.291 13.6974 49.307 16.3267 50.3913 18.8837C51.2403 20.8898 52.9186 21.7422 55.0433 21.6537C57.1042 21.5693 58.4436 20.4315 59.2289 18.5701C59.3565 18.2645 59.4482 17.9389 59.5598 17.6173H60.971C60.6441 20.5119 58.1925 22.7513 55.2466 22.8799C51.4636 23.0407 49.2073 21.2677 48.434 17.5288C48.0991 15.8965 48.0832 14.2522 48.3901 12.624C49.0758 8.9614 51.5632 7.03564 55.3383 7.17233C58.34 7.28088 60.2215 8.78852 60.8275 11.5746C60.8474 11.6591 60.8434 11.7515 60.8514 11.9003V11.8963Z" fill="#A2A2A2"/>
<path d="M86.6111 14.8955H85.6782C85.5467 13.6049 86.34 12.3224 87.6595 11.7716C89.0347 11.1967 90.4539 11.1605 91.869 11.5947C93.2642 12.0249 93.9579 13.0461 93.9658 14.6181C93.9778 16.5559 93.9658 18.4977 93.9698 20.4355C93.9698 21.5733 94.0655 21.6537 95.1498 21.517C95.4208 22.3894 95.2734 22.5985 94.3884 22.6347C93.3081 22.6749 93.1207 22.5261 92.5945 21.1512C91.1236 22.5864 89.3816 23.0809 87.4003 22.6105C86.1048 22.305 85.2158 21.2959 85.1042 20.0938C84.9607 18.5299 85.4989 17.4082 86.918 16.9177C88.1099 16.5076 89.3975 16.375 90.6452 16.1217C90.8405 16.0815 91.0478 16.0815 91.2432 16.0332C91.8132 15.8965 92.4989 15.9408 92.6424 15.1286C92.8058 14.208 92.463 13.3074 91.7734 12.8692C90.8366 12.2782 88.676 12.3063 87.8667 13.0581C87.3844 13.5044 87.0974 14.1678 86.619 14.8955H86.6111ZM92.6503 16.9861C91.3588 17.1509 90.119 17.2876 88.8872 17.4806C88.4089 17.5569 87.9305 17.7137 87.488 17.9188C86.6828 18.2967 86.3958 19.0003 86.4516 19.8606C86.4994 20.6124 86.9738 21.2396 87.791 21.4487C89.3457 21.8467 90.7967 21.5854 91.9248 20.3913C92.2956 20.0013 92.5148 19.3862 92.6224 18.8394C92.742 18.2364 92.6503 17.5891 92.6503 16.982V16.9861Z" fill="#A2A2A2"/>
<path d="M118.402 21.5331C118.422 22.0075 118.609 22.4779 117.92 22.6106C116.712 22.8437 116.194 22.5181 115.799 21.2115C115.269 21.5612 114.767 21.9713 114.2 22.2527C112.945 22.8799 111.613 22.9644 110.282 22.5261C109.058 22.1201 108.325 21.1471 108.253 19.937C108.169 18.4977 108.671 17.4243 109.979 16.966C111.211 16.5358 112.542 16.391 113.83 16.1217C114.025 16.0815 114.232 16.0775 114.428 16.0332C114.978 15.9046 115.636 15.9367 115.795 15.1769C115.982 14.2924 115.64 13.3436 114.97 12.8933C114.025 12.2581 111.793 12.3466 110.944 13.1024C110.653 13.3597 110.413 13.7175 110.258 14.0793C109.863 15.004 109.887 15.0161 108.823 14.8512C108.743 13.5527 109.497 12.3466 110.788 11.7797C112.02 11.241 113.312 11.1847 114.607 11.4782C116.313 11.8641 117.118 12.8893 117.126 14.6462C117.138 16.5639 117.126 18.4776 117.126 20.3953C117.126 21.5612 117.198 21.6256 118.398 21.5291L118.402 21.5331ZM115.811 16.9901C114.555 17.1509 113.359 17.2795 112.171 17.4725C111.649 17.557 111.123 17.7097 110.645 17.9308C109.839 18.3047 109.548 19.0204 109.624 19.8807C109.692 20.6848 110.158 21.2276 110.908 21.4366C112.458 21.8628 113.905 21.6014 115.054 20.4355C115.432 20.0496 115.675 19.4425 115.783 18.8998C115.907 18.2766 115.811 17.6052 115.811 16.9941V16.9901Z" fill="#A2A2A2"/>
<path d="M142.328 17.3519H133.965C133.781 20.5361 136.257 22.2769 138.776 21.4004C139.506 21.1472 140.06 20.6768 140.427 19.9933C140.777 19.3366 141.331 19.0659 142.089 19.1812C141.862 21.0265 140.191 22.5784 138.25 22.7473C134.81 23.0488 132.657 21.111 132.53 17.5931C132.486 16.383 132.641 15.2131 133.163 14.1075C134.132 12.0651 135.902 11.1123 138.29 11.3736C140.132 11.5747 141.575 12.9496 142.029 15.0241C142.192 15.7639 142.224 16.5278 142.324 17.3559L142.328 17.3519ZM140.845 16.2343C140.933 14.1155 139.589 12.5516 137.668 12.4833C135.651 12.4109 134.052 14.011 133.965 16.2343H140.841H140.845Z" fill="#A2A2A2"/>
<path d="M169.734 19.141H170.994C170.93 20.8577 169.12 22.5663 167.195 22.7473C163.99 23.0488 162.056 21.5411 161.55 18.349C161.331 16.9619 161.454 15.6071 162.005 14.3085C162.905 12.1777 164.723 11.1404 167.139 11.3696C169.076 11.5545 170.547 12.9657 170.986 15.1407C171.125 15.8362 171.145 16.5559 171.225 17.3399H162.953C162.539 18.8515 163.655 20.8537 165.17 21.4085C167.103 22.1161 168.777 21.2879 169.73 19.141H169.734ZM169.774 16.2423C169.886 14.1597 168.542 12.5797 166.633 12.4833C164.6 12.3827 162.973 14.007 162.894 16.2423H169.774Z" fill="#A2A2A2"/>
<path d="M182.136 22.4457H180.916C180.916 22.2004 180.916 21.9592 180.916 21.722C180.916 19.6033 180.936 17.4845 180.904 15.3658C180.888 14.2522 180.716 13.1546 179.477 12.7124C178.173 12.246 176.957 12.4229 175.921 13.4079C175.251 14.0471 174.94 14.8633 174.924 15.7719C174.896 17.7097 174.904 19.6475 174.9 21.5893C174.9 21.8547 174.9 22.124 174.9 22.4336H173.637V11.6671H174.868C174.888 12.1013 174.908 12.4912 174.928 12.9616C175.379 12.5998 175.761 12.2661 176.176 11.9766C177.436 11.0881 179.556 11.1042 180.812 12.0048C181.737 12.6681 182.179 13.5928 182.183 14.7266C182.191 17.2272 182.191 19.7319 182.191 22.2326C182.191 22.2969 182.159 22.3572 182.136 22.4497V22.4457Z" fill="#A2A2A2"/>
<path d="M98.3827 22.4537H97.2466V11.6711H98.4425V13.0139C98.9926 12.5878 99.4072 12.2219 99.8656 11.9164C101.564 10.7826 104.259 11.2409 105.239 12.9255C105.602 13.5486 105.741 14.3728 105.757 15.1085C105.821 17.5368 105.781 19.9692 105.781 22.4377H104.49C104.49 22.0195 104.49 21.5974 104.49 21.1793C104.49 19.2857 104.49 17.3921 104.49 15.4985C104.49 13.613 103.884 12.7727 102.349 12.5234C100.755 12.2661 99.1919 13.1426 98.7415 14.6663C98.5302 15.3859 98.4784 16.1739 98.4624 16.9338C98.4226 18.7148 98.4425 20.4958 98.4385 22.2768C98.4385 22.3171 98.4106 22.3573 98.3787 22.4578L98.3827 22.4537Z" fill="#A2A2A2"/>
<path d="M44.053 7.60254H45.488C45.488 7.85984 45.488 8.08096 45.488 8.30208C45.488 11.7073 45.496 15.1086 45.4801 18.5138C45.4801 19.0284 45.4163 19.5511 45.3007 20.0496C44.9459 21.5814 44.0211 22.5623 42.4345 22.7794C41.7967 22.8679 41.135 22.9081 40.4971 22.8397C39.1817 22.703 38.197 22.0035 37.7984 20.725C37.5114 19.8003 37.4277 18.8073 37.2363 17.7781H38.7232C38.7751 18.3249 38.8069 18.8998 38.8907 19.4707C39.086 20.8014 39.8553 21.505 41.123 21.5492C42.8252 21.6095 43.6025 21.0989 43.8975 19.6556C44.0091 19.1088 44.041 18.5379 44.041 17.9791C44.053 14.7789 44.049 11.5787 44.049 8.37847C44.049 8.13725 44.049 7.89201 44.049 7.60254H44.053Z" fill="#A2A2A2"/>
<path d="M188.908 21.537C189.108 22.4818 189.044 22.5863 188.191 22.7351C186.457 23.0286 185.64 22.3411 185.636 20.5721C185.632 17.983 185.636 15.3939 185.636 12.7445C185.137 12.7244 184.675 12.7002 184.165 12.6801V11.667C184.591 11.6469 185.05 11.6268 185.608 11.5987V8.64771H186.887V11.6067H188.896V12.6842H186.915V13.9546C186.915 16.0492 186.915 18.1438 186.915 20.2425C186.915 21.4928 187.218 21.7541 188.454 21.5812C188.605 21.5611 188.761 21.5571 188.912 21.5451L188.908 21.537Z" fill="#A2A2A2"/>
<path d="M193.971 11.4139C192.843 11.4059 191.97 10.5214 191.978 9.3957C191.986 8.26597 192.859 7.38953 193.983 7.38551C195.143 7.38149 196.024 8.27803 196 9.44394C195.98 10.5857 195.111 11.43 193.971 11.4179V11.4139ZM195.685 9.39972C195.685 8.43081 194.96 7.70312 193.995 7.6991C193.046 7.6991 192.289 8.45091 192.289 9.39972C192.289 10.3365 193.054 11.1084 193.995 11.1084C194.94 11.1084 195.685 10.3566 195.689 9.39972H195.685Z" fill="#A2A2A2"/>
<path d="M193.313 8.40263V10.3887C193.353 10.3887 193.393 10.3887 193.437 10.3887C193.469 10.1153 193.505 9.8379 193.532 9.58864C194.393 9.2067 194.413 9.93841 194.601 10.6339C194.653 9.90223 194.74 9.43185 194.696 8.97352C194.677 8.76848 194.413 8.50314 194.202 8.42273C193.947 8.32624 193.628 8.39861 193.313 8.39861V8.40263Z" fill="white"/>
<path d="M193.313 8.40252C193.628 8.40252 193.947 8.33015 194.202 8.42664C194.413 8.50705 194.673 8.77239 194.696 8.97743C194.744 9.43575 194.657 9.90613 194.601 10.6378C194.413 9.94232 194.393 9.21061 193.532 9.59255C193.501 9.84181 193.469 10.1152 193.437 10.3926C193.397 10.3926 193.357 10.3926 193.313 10.3926V8.40654V8.40252ZM193.517 9.41565C193.883 9.29504 194.166 9.21865 194.425 9.09804C194.469 9.07794 194.453 8.76837 194.405 8.74827C194.134 8.64776 193.847 8.5955 193.513 8.51509V9.41967L193.517 9.41565Z" fill="#A2A2A2"/>
</g>
<defs>
<clipPath id="clip0_55_224">
<rect width="196" height="30" fill="white"/>
</clipPath>
</defs>
</svg>
