<svg width="178" height="28" viewBox="0 0 178 28" fill="none" xmlns="http://www.w3.org/2000/svg">
<path d="M178 9.11414C177.706 9.52428 177.474 10.0236 177.09 10.3267C176.261 10.9865 175.04 10.728 174.442 9.87201C173.872 9.05173 174.041 7.88371 174.826 7.27742C175.646 6.63546 176.867 6.76029 177.509 7.58949C177.706 7.84806 177.839 8.16011 178 8.44543V9.11414ZM177.59 8.76641C177.572 7.91938 176.859 7.19718 176.047 7.18826C175.191 7.17935 174.424 7.96396 174.442 8.82883C174.46 9.66694 175.173 10.3981 175.994 10.407C176.85 10.4248 177.616 9.63127 177.599 8.76641H177.59Z" fill="#A3A3A3"/>
<path d="M4.15506 23.8525C6.61591 22.4349 8.96977 21.035 11.3771 19.7244C12.2598 19.2429 12.6075 18.699 12.5986 17.6558C12.5362 12.2526 12.5719 6.84055 12.5719 1.43738C12.5719 1.00049 12.5719 0.572518 12.5719 0.0642986C16.6822 -0.292346 20.1773 0.83109 23.3782 3.52376C22.0051 4.31729 20.7747 5.03058 19.5354 5.75279C17.9305 6.68007 16.3434 7.643 14.7118 8.51678C14.052 8.87343 13.8647 9.30141 13.8736 10.0147C13.9093 12.645 13.9182 15.2752 13.8736 17.8965C13.8558 18.7079 14.1144 19.1626 14.8187 19.5549C17.6273 21.1153 20.4092 22.7469 23.2088 24.3607C18.9915 29.006 9.36208 29.5499 4.15506 23.8525Z" fill="#A3A3A3"/>
<path d="M1.97788 21.0439C-2.42668 14.1607 0.800957 3.90711 8.92354 1.05396C8.95029 1.34819 8.99487 1.62458 8.99487 1.90098C8.99487 6.63545 8.98596 11.3699 9.01271 16.1044C9.01271 16.782 8.80764 17.1654 8.21025 17.4953C6.14171 18.6366 4.09992 19.8402 1.97788 21.0528V21.0439Z" fill="#A3A3A3"/>
<path d="M25.6493 6.30554C28.8235 10.3 28.8056 17.9143 25.6404 21.7037C23.0637 20.2236 20.4691 18.7525 17.9012 17.2278C17.6605 17.0851 17.5089 16.6304 17.5 16.3183C17.4554 14.7669 17.4554 13.2155 17.5 11.6641C17.5089 11.3342 17.7496 10.8795 18.026 10.719C20.5315 9.23003 23.0726 7.78562 25.6582 6.29663L25.6493 6.30554Z" fill="#A3A3A3"/>
<path d="M129.282 20.9458C129.077 20.9636 128.899 20.9993 128.712 20.9993C128.569 20.9993 128.426 20.9547 128.159 20.9012C128.159 18.8327 128.159 16.7731 128.159 14.7135C128.159 12.5468 127.731 11.8692 126.304 11.789C124.637 11.6998 123.38 12.7965 123.264 14.6421C123.148 16.4878 123.202 18.3423 123.184 20.1969C123.184 20.4109 123.157 20.6337 123.148 20.928H121.927C121.927 18.8416 121.927 16.782 121.927 14.7224C121.927 12.529 121.516 11.8781 120.09 11.7979C118.378 11.6998 117.13 12.8411 117.023 14.7491C116.934 16.3718 116.996 18.0035 116.987 19.6351C116.987 20.072 116.987 20.5089 116.987 21.0171H115.819V11.0222H116.934C116.969 11.361 116.996 11.682 117.005 11.7711C118.039 11.4234 119.082 10.8973 120.188 10.7369C121.401 10.5675 122.417 11.1737 123.005 12.4933C123.906 11.1737 125.083 10.621 126.545 10.7012C128.123 10.7904 129.158 11.5304 129.247 13.0907C129.389 15.6675 129.282 18.2531 129.282 20.9458Z" fill="#A3A3A3"/>
<path d="M57.2922 16.5146C56.5432 19.8047 54.4836 21.4185 51.1668 21.3739C48.1442 21.3293 46.1024 19.5639 45.5051 16.4611C45.1306 14.5085 45.1217 12.5559 45.7458 10.6478C46.9851 6.89412 52.2813 5.3338 55.402 7.78574C56.4362 8.60602 57.0247 9.67595 57.1673 11.0401C56.3649 11.2541 55.8032 11.2719 55.4822 10.2555C55.0096 8.7576 53.7881 8.10672 52.2635 7.9284C50.4803 7.72333 48.9467 8.14239 47.8411 9.64029C46.2094 11.8515 46.2005 16.2739 47.8411 18.4851C48.8843 19.8938 50.3733 20.3842 52.0584 20.1881C53.7971 19.9919 54.9472 18.9666 55.607 17.3706C56.035 16.3541 56.035 16.3541 57.2833 16.5146H57.2922Z" fill="#A3A3A3"/>
<path d="M65.7812 21.0261H64.426V7.19723C66.6728 7.19723 68.9286 7.04566 71.1576 7.24181C72.9052 7.4023 73.8592 8.65056 74.0108 10.2911C74.198 12.3597 73.4847 13.7595 71.7104 14.348C70.6762 14.6868 69.5438 14.7581 68.4471 14.8651C67.609 14.9453 66.7531 14.8829 65.7901 14.8829V21.0172L65.7812 21.0261ZM65.8169 8.14234V13.8041C67.4129 13.7238 68.9197 13.706 70.4176 13.5455C71.8531 13.3939 72.6199 12.4934 72.6734 11.1114C72.7358 9.60458 72.1117 8.63272 70.6316 8.41873C69.0713 8.19583 67.4753 8.22258 65.8169 8.14234Z" fill="#A3A3A3"/>
<path d="M133.099 14.0002H131.905C132.145 13.3404 132.261 12.7252 132.582 12.2437C133.741 10.4783 137.558 10.0681 138.948 11.6463C139.474 12.2437 139.715 13.2334 139.778 14.0626C139.902 15.7566 139.822 17.4685 139.813 19.1715C139.813 19.9294 139.974 20.4733 141.142 20.2682C140.946 20.5535 140.785 21.0439 140.544 21.0974C139.43 21.3292 138.841 21.1241 138.52 19.867C137.112 21.0528 135.551 21.6323 133.733 21.1509C132.395 20.7942 131.593 19.858 131.512 18.5652C131.432 17.2902 132.092 16.1846 133.438 15.7834C134.597 15.4357 135.828 15.3376 137.031 15.1325C137.718 15.0166 138.52 15.0255 138.574 14.0447C138.627 13.064 138.253 12.3239 137.245 11.994C135.382 11.3877 133.902 12.0921 133.108 14.0091L133.099 14.0002ZM138.52 15.935C137.076 16.1579 135.676 16.3094 134.312 16.6215C133.224 16.8712 132.68 17.7182 132.841 18.6455C133.019 19.6797 133.759 20.1077 134.731 20.188C137.388 20.4198 138.77 18.8951 138.52 15.935Z" fill="#A3A3A3"/>
<path d="M172.712 18.1016C172.106 20.2237 170.706 21.2936 168.513 21.3025C166.248 21.3204 164.607 20.2504 164.153 18.1462C163.885 16.9247 163.841 15.5606 164.064 14.3301C164.5 11.9495 166.489 10.5319 168.78 10.6745C171.089 10.8172 172.57 12.3953 172.846 15.0078C172.882 15.3644 172.846 15.7389 172.846 16.2203H165.223C165.053 18.1106 165.954 19.5817 167.478 20.0454C169.048 20.5179 170.385 19.9027 171.321 18.4316C171.544 18.0838 172.106 17.959 172.516 17.7361C172.578 17.852 172.641 17.9768 172.712 18.0927V18.1016ZM171.455 15.2485C171.687 13.3315 170.456 11.8514 168.602 11.789C166.729 11.7177 165.223 13.278 165.294 15.2485H171.464H171.455Z" fill="#A3A3A3"/>
<path d="M84.702 16.247H76.9896C76.7845 18.1016 77.6672 19.5727 79.1562 20.0453C80.7344 20.5446 82.1163 19.9294 83.0347 18.476C83.2576 18.1194 83.8639 17.9946 84.5237 17.6379C83.9977 19.965 82.6781 21.1152 80.7433 21.3025C78.5766 21.5075 76.8113 20.6159 76.089 18.8238C75.3312 16.9692 75.3133 15.0612 76.1871 13.2244C77.0431 11.4145 78.7282 10.505 80.7254 10.7101C82.6067 10.9063 83.9352 12.0832 84.4078 14.0447C84.5683 14.7135 84.604 15.4178 84.7109 16.2559L84.702 16.247ZM83.2844 15.2573C83.2755 13.1175 82.0183 11.7622 80.1637 11.789C78.3716 11.8157 77.0074 13.2869 76.9896 15.2573H83.2844Z" fill="#A3A3A3"/>
<path d="M98.0216 15.9707C98.0395 12.0565 100.893 9.78294 104.343 10.9242C106.67 11.6999 107.856 14.4282 107.205 17.5221C106.554 20.6071 103.648 22.1228 100.741 20.9013C99.0024 20.1702 98.0216 18.387 98.0305 15.9707H98.0216ZM99.3591 15.9975C99.3591 18.5296 100.536 20.09 102.515 20.1881C104.655 20.2861 106.055 18.6545 106.073 16.0331C106.1 13.4296 104.816 11.798 102.729 11.7891C100.652 11.7712 99.3591 13.3851 99.3591 16.0064V15.9975Z" fill="#A3A3A3"/>
<path d="M35.0569 16.6127H36.3944C36.4657 17.2012 36.5014 17.7451 36.5994 18.289C36.8134 19.5194 37.5267 20.0811 38.8552 20.1168C40.2194 20.1435 40.9683 19.6531 41.2358 18.4494C41.3606 17.9145 41.3874 17.3528 41.3874 16.8C41.4052 13.9914 41.3874 11.1739 41.3874 8.3653C41.3874 7.97299 41.3874 7.57177 41.3874 7.1438H42.6535C42.6535 10.9332 42.7694 14.6601 42.6089 18.3781C42.5197 20.4466 41.0932 21.3828 38.8017 21.3739C36.6886 21.3739 35.5473 20.411 35.2353 18.3603C35.155 17.8164 35.1194 17.2725 35.048 16.6127H35.0569Z" fill="#A3A3A3"/>
<path d="M142.87 10.9776H143.869C143.923 11.3253 143.976 11.6731 144.056 12.1456C144.431 11.8603 144.743 11.6285 145.064 11.3967C146.339 10.4872 147.703 10.4872 149.076 11.0757C150.396 11.6463 150.824 12.7965 150.824 14.1518C150.824 16.4075 150.824 18.6633 150.824 20.9904H149.611C149.611 19.3053 149.611 17.6469 149.611 15.9885C149.611 15.4713 149.629 14.9542 149.602 14.4371C149.495 12.6538 148.871 11.9227 147.382 11.789C145.911 11.6552 144.538 12.5558 144.208 14.0002C144.03 14.7848 144.003 15.614 143.985 16.4254C143.949 17.9322 143.976 19.4479 143.976 21.0083H142.879V10.9687L142.87 10.9776Z" fill="#A3A3A3"/>
<path d="M161.924 17.5756C161.781 19.5015 160.604 20.8211 158.723 21.1956C156.556 21.6325 154.559 20.8211 153.721 19.029C152.758 16.9693 152.767 14.8473 153.899 12.8501C155.157 10.621 158.286 9.95235 160.399 11.3968C161.309 12.0209 161.763 12.9214 161.853 14.0627C161.175 14.2945 160.711 14.3034 160.373 13.492C159.891 12.3151 158.884 11.7712 157.626 11.7891C156.36 11.8069 155.424 12.4489 154.898 13.5812C154.185 15.1326 154.149 16.7375 154.836 18.3157C155.397 19.5907 156.494 20.2772 157.823 20.2237C159.187 20.1613 160.194 19.5015 160.569 18.1998C160.836 17.2992 161.362 17.5489 161.924 17.5845V17.5756Z" fill="#A3A3A3"/>
<path d="M93.8405 12.0296C93.2431 11.985 92.8419 11.9494 92.3961 11.9137C91.9057 10.5228 93.1183 11.0934 93.689 10.8081C94.0367 9.61335 93.2788 7.99062 94.6697 7.11684C95.2314 6.7602 96.0517 6.81368 96.8542 6.66211C96.8898 7.18816 96.9166 7.50023 96.9433 7.89254C94.3755 7.64289 95.0888 9.42611 94.9907 10.6209C95.5435 11.3698 97.0682 10.1572 96.9166 11.9315C96.2925 11.9672 95.6862 12.0029 94.9907 12.0475V20.9101C94.5895 20.9457 94.2774 20.9636 93.8227 20.9992V12.0207L93.8405 12.0296Z" fill="#A3A3A3"/>
<path d="M109.515 10.9777C109.89 10.9598 110.211 10.9509 110.612 10.9331C110.674 11.3967 110.728 11.8158 110.808 12.4042C111.593 11.1917 112.582 10.621 114 10.7458C114.018 11.1114 114.044 11.4681 114.062 11.8069C111.245 12.6806 110.763 13.3315 110.719 16.3095C110.701 17.7896 110.701 19.2608 110.692 20.7408C110.692 20.8122 110.639 20.8746 110.585 21.0083H109.515V10.9866V10.9777Z" fill="#A3A3A3"/>
<path d="M88.0816 21.0351H86.967V11.0044C87.2791 10.9777 87.5912 10.9599 87.9835 10.9331C88.0459 11.4057 88.0905 11.8247 88.1707 12.4132C88.9732 11.2452 89.945 10.6389 91.3538 10.7459C91.3805 11.1114 91.4073 11.4681 91.4429 11.9317C89.9629 12.0387 88.7413 12.6004 88.3669 14.134C88.1707 14.9454 88.1172 15.8102 88.0905 16.6573C88.0459 18.0838 88.0816 19.5193 88.0816 21.0529V21.0351Z" fill="#A3A3A3"/>
</svg>
