<svg width="147" height="26" viewBox="0 0 147 26" fill="none" xmlns="http://www.w3.org/2000/svg">
<path d="M37.3223 0V6.28177C33.0282 6.52715 29.511 8.26936 27.0327 11.8683C25.6095 13.9459 24.8733 16.4079 25.0205 18.7226H37.2324V24.939H18.6733C18.6733 24.2928 18.6488 23.6466 18.6733 23.0086C18.7878 20.3912 18.6897 17.7411 19.0823 15.1646C20.2356 7.74588 26.4519 1.61952 33.887 0.359893C34.9994 0.171767 36.1363 0.122691 37.3223 0Z" fill="#A3A3A3"/>
<path d="M12.3672 6.35549H0.016359V0.220947H18.4854C19.4261 9.61089 17.8801 17.1277 9.62714 22.3626C6.9443 24.0639 3.95065 24.8655 0.785222 25.0454C0.53166 25.0618 0.278099 24.9963 0 24.9718V18.8372C4.20421 18.5591 7.66409 16.8987 10.1261 13.4143C11.5902 11.3449 12.3018 9.04651 12.3591 6.34731L12.3672 6.35549Z" fill="#A3A3A3"/>
<path d="M95.1333 8.7601C95.8695 8.98094 96.7856 8.28569 97.0964 9.44717C99.0022 8.21208 100.237 8.34295 101.546 9.96247C102.388 8.97276 103.444 8.49018 104.76 8.71102C106.38 8.98094 107.378 9.95429 107.468 11.5983C107.558 13.2588 107.484 14.9274 107.484 16.6614H105.546C105.546 15.1482 105.578 13.6841 105.538 12.22C105.497 10.8295 104.474 10.1097 103.386 10.6659C102.642 11.0503 102.372 11.7374 102.372 12.5472C102.372 13.8886 102.372 15.23 102.372 16.6532H100.401C100.401 15.4999 100.401 14.3303 100.401 13.1688C100.401 12.7762 100.434 12.3754 100.352 11.991C100.172 11.1567 99.7383 10.5268 98.7814 10.5105C97.8407 10.5023 97.35 11.0912 97.1373 11.9173C97.031 12.3181 97.0637 12.7598 97.0637 13.1851C97.0555 14.3221 97.0637 15.4672 97.0637 16.6696H95.1415V8.7601H95.1333Z" fill="#A3A3A3"/>
<path d="M111.329 16.097V20.0068H109.447V8.84189H111.157C111.222 9.10363 111.296 9.36537 111.369 9.64347C113.643 8.26115 115.623 8.38384 116.997 9.94611C118.297 11.4184 118.371 13.9704 117.152 15.5081C115.876 17.1194 113.791 17.3648 111.329 16.097ZM113.84 15.0173C115.132 14.9928 116.064 14.0358 116.048 12.7516C116.032 11.3939 115.091 10.5187 113.692 10.5596C112.376 10.5923 111.484 11.5411 111.533 12.8498C111.582 14.1503 112.531 15.0419 113.84 15.0173Z" fill="#A3A3A3"/>
<path d="M93.3515 16.6941H91.6338C91.5766 16.4488 91.5193 16.187 91.4702 15.9744C88.5175 17.6266 86.0718 17.5284 84.9186 13.905C84.2969 11.9419 85.1149 10.077 86.5299 9.21C88.0922 8.25301 89.8589 8.40024 91.4212 9.65987C91.4866 9.36541 91.552 9.11185 91.6175 8.82557H93.3597V16.6941H93.3515ZM89.0328 15.1564C90.4151 15.181 91.3721 14.2567 91.413 12.858C91.4621 11.4512 90.546 10.4124 89.2127 10.3715C87.7486 10.3224 86.7753 11.2221 86.7262 12.6699C86.6771 14.1095 87.6259 15.1319 89.0246 15.1646L89.0328 15.1564Z" fill="#A3A3A3"/>
<path d="M125.692 9.69262C125.757 9.34909 125.798 9.11189 125.847 8.83379H127.598V16.6615H125.896C125.847 16.4652 125.774 16.2034 125.725 16.0153C122.649 17.6266 120.122 17.553 119.132 13.6351C118.625 11.6066 119.475 9.92983 120.931 9.12824C122.486 8.26941 124.179 8.44118 125.692 9.69262ZM123.254 15.1565C124.645 15.1974 125.602 14.2976 125.667 12.8908C125.733 11.4757 124.833 10.4288 123.508 10.3715C122.003 10.3061 121.005 11.2467 120.989 12.7354C120.972 14.1422 121.897 15.1237 123.263 15.1565H123.254Z" fill="#A3A3A3"/>
<path d="M145.029 9.56988C145.242 8.22028 146.256 8.98914 147 8.78466V16.7432C146.289 16.5224 145.266 17.3403 145.062 15.8598C144.064 16.7923 142.911 17.2503 141.643 16.8823C140.833 16.6451 139.95 16.2524 139.377 15.6553C137.987 14.2076 138.093 11.3121 139.418 9.85616C140.801 8.33479 143.05 8.2121 145.037 9.57806L145.029 9.56988ZM142.706 10.3715C141.275 10.3878 140.334 11.3693 140.367 12.8253C140.4 14.224 141.34 15.1564 142.739 15.1564C144.138 15.1564 145.127 14.1258 145.087 12.6944C145.046 11.2957 144.08 10.3551 142.706 10.3633V10.3715Z" fill="#A3A3A3"/>
<path d="M75.971 13.4551H69.9346C70.2291 15.2382 72.1676 15.6717 74.3924 14.4612C74.7032 14.8538 75.0467 15.2791 75.3903 15.7126C74.0898 17.2013 70.8671 17.3976 69.1821 15.9989C67.5544 14.6411 67.2763 11.8274 68.6014 10.1097C69.8774 8.4575 72.8628 8.04036 74.5723 9.32452C75.9383 10.3469 76.1428 11.7865 75.9628 13.4633L75.971 13.4551ZM74.0897 11.762C73.8116 10.5923 73.0346 10.3469 72.1349 10.306C71.0143 10.257 70.3191 10.7314 69.9755 11.762H74.0897Z" fill="#A3A3A3"/>
<path d="M54.6387 16.9313C52.2012 16.915 50.549 15.2137 50.5654 12.7435C50.5817 10.306 52.3076 8.59653 54.7205 8.62925C57.1007 8.65378 58.8838 10.486 58.8266 12.8416C58.7693 15.2873 57.068 16.9559 54.6305 16.9313H54.6387ZM52.5366 12.8089C52.5448 14.1994 53.3954 15.1155 54.6632 15.1319C55.9638 15.14 56.888 14.1422 56.8635 12.7598C56.839 11.443 55.8983 10.4205 54.696 10.4042C53.42 10.3878 52.5202 11.3857 52.5366 12.8089Z" fill="#A3A3A3"/>
<path d="M131.238 16.6778H129.381C129.381 14.0767 129.381 11.5084 129.381 8.94008C130.772 8.58019 130.993 8.66198 131.222 9.69258C131.516 9.52082 131.778 9.35723 132.04 9.19364C134.093 7.96673 136.596 8.95644 136.98 11.3121C137.266 13.038 137.176 14.8211 137.266 16.6532H135.221C135.221 16.0153 135.221 15.3445 135.221 14.682C135.221 13.8968 135.262 13.1034 135.197 12.3263C135.099 11.1731 134.33 10.4369 133.316 10.4369C132.236 10.4369 131.353 11.2712 131.303 12.4409C131.254 13.5205 131.287 14.6002 131.287 15.6799C131.287 15.9989 131.263 16.3179 131.246 16.686L131.238 16.6778Z" fill="#A3A3A3"/>
<path d="M59.815 15.5654C60.1013 15.1646 60.3957 14.7393 60.6411 14.3876C61.4018 14.6984 62.0725 15.0419 62.7923 15.2219C63.2422 15.3364 63.782 15.3037 64.2155 15.1483C64.51 15.0419 64.8208 14.6248 64.8617 14.314C64.8862 14.1258 64.4363 13.7578 64.1501 13.676C63.5612 13.5042 62.9232 13.496 62.3179 13.3733C60.8538 13.0707 60.0522 12.2364 60.0522 11.0668C60.0522 9.90528 60.8619 9.03826 62.2852 8.70291C63.782 8.35119 65.2134 8.64565 66.4567 9.63536C66.1458 10.028 65.8268 10.4124 65.6305 10.666C64.6817 10.5024 63.872 10.2652 63.054 10.2652C62.7023 10.2652 62.3506 10.7559 61.9989 11.0259C62.3261 11.2876 62.6123 11.672 62.9804 11.7865C63.692 11.9992 64.4691 12.0074 65.1888 12.1955C66.2194 12.4572 66.8084 13.177 66.882 14.2404C66.9474 15.2382 66.5057 16.0071 65.6469 16.5224C63.9701 17.5285 61.2218 17.1031 59.8232 15.5736L59.815 15.5654Z" fill="#A3A3A3"/>
<path d="M84.1319 9.79077C83.7393 10.2079 83.3794 10.5842 83.0359 10.9522C81.1792 10.257 80.1895 10.3715 79.486 11.353C78.8726 12.2037 78.9135 13.5942 79.576 14.3876C80.3285 15.2791 81.4982 15.3446 83.1177 14.5594C83.5021 14.9193 83.8947 15.2955 84.2792 15.6636C83.3467 17.2177 80.0422 17.5121 78.3164 15.9499C76.7623 14.543 76.6478 11.443 78.1037 9.84803C79.5678 8.24487 82.4143 8.17943 84.1319 9.79077Z" fill="#A3A3A3"/>
<path d="M45.4865 19.696C46.9833 19.9986 47.2696 19.7941 47.2778 18.3218C47.2941 15.1809 47.2778 12.0401 47.2778 8.8092H49.2163C49.2163 10.2079 49.2163 11.6066 49.2163 13.0052C49.2163 14.9356 49.2654 16.8659 49.1999 18.7962C49.11 21.3073 47.1796 22.3625 44.8812 21.1192C45.0775 20.6693 45.2738 20.2031 45.4865 19.6878V19.696Z" fill="#A3A3A3"/>
<path d="M49.4211 6.478C49.3475 7.15689 49.0285 7.62312 48.2678 7.63948C47.5562 7.64766 47.1473 7.22233 47.1227 6.5598C47.09 5.83183 47.5153 5.39832 48.2597 5.38196C48.9549 5.37378 49.3393 5.75822 49.4293 6.478H49.4211Z" fill="#A3A3A3"/>
</svg>
