<svg width="217" height="24" viewBox="0 0 217 24" fill="none" xmlns="http://www.w3.org/2000/svg">
<path d="M29.7561 13.6275C29.6583 13.7247 29.5569 13.8219 29.4518 13.9155C28.8432 14.4638 28.1575 14.9211 27.4162 15.2728C26.5142 15.6942 25.5389 15.9387 24.5438 15.9929C24.4134 15.9929 24.2758 15.9929 24.1417 15.9929C24.0077 15.9929 23.8882 15.9929 23.7614 15.9929C22.9694 15.9478 22.1895 15.7789 21.4505 15.4925C20.5143 15.1291 19.6544 14.5956 18.915 13.9191C18.7954 13.8111 18.6686 13.6923 18.5527 13.5591L13.9707 9.02621L17.0821 5.9335L21.675 10.4988C21.7895 10.6191 21.9105 10.7333 22.0373 10.8408C22.3273 11.0865 22.655 11.2847 23.008 11.4277C23.4101 11.5893 23.8425 11.663 24.2757 11.6437C24.3591 11.6437 24.4424 11.6437 24.5221 11.6221C24.8654 11.5765 25.1992 11.4768 25.5109 11.3268C26.3554 10.9255 27.0357 10.248 27.4379 9.40785C27.5685 9.13758 27.6599 8.85031 27.7096 8.55457C27.7313 8.43553 27.7458 8.3153 27.753 8.19453C27.7686 7.75993 27.6921 7.32693 27.5285 6.9236C27.4183 6.63809 27.2709 6.36817 27.0902 6.12072L30.2197 3.02441C30.8372 3.71522 31.3276 4.50858 31.6686 5.36825C32.0532 6.34625 32.2248 7.3942 32.1721 8.44296C32.1192 9.43004 31.8731 10.3974 31.4476 11.2908C31.0228 12.1604 30.4506 12.9508 29.7561 13.6275Z" fill="url(#paint0_linear_633_1382)"/>
<path d="M21.7333 21.6025C21.6319 21.6997 21.5305 21.7969 21.4255 21.8905C20.8168 22.4388 20.1311 22.8961 19.3898 23.2478C18.4885 23.671 17.5128 23.9156 16.5174 23.9679C16.2569 23.9841 15.9956 23.9841 15.735 23.9679C14.9433 23.9207 14.1638 23.7519 13.4241 23.4675C12.3333 23.0372 11.3459 22.3834 10.5264 21.5485L5.94434 17.0048L9.05577 13.9121L13.6487 18.4774C14.026 18.8765 14.4839 19.1918 14.9925 19.4027C15.3939 19.5671 15.8266 19.642 16.2602 19.6223C16.3472 19.6223 16.4269 19.6223 16.5102 19.5971C16.852 19.5523 17.1846 19.4538 17.4954 19.3054C17.913 19.1062 18.2938 18.8384 18.6219 18.5134C18.9521 18.1864 19.2229 17.8052 19.4224 17.3865C19.552 17.1155 19.6446 16.8285 19.6977 16.5332C19.7925 15.9822 19.7297 15.4159 19.5166 14.8986C19.3018 14.3965 18.9862 13.9433 18.5893 13.5665L13.9964 9.00122L17.0825 5.93731L17.1078 5.91211L21.6971 10.4738C22.5391 11.2867 23.1972 12.2686 23.6277 13.3541C24.0125 14.332 24.1841 15.38 24.1312 16.4288C24.0767 17.4156 23.8307 18.3827 23.4068 19.2766C22.9864 20.141 22.4204 20.9276 21.7333 21.6025Z" fill="url(#paint1_linear_633_1382)"/>
<path d="M18.1978 14.974L15.0864 18.0631L10.5043 13.4979C10.3812 13.3755 10.258 13.2638 10.1421 13.1594C9.85305 12.9114 9.52354 12.7141 9.16774 12.5762C8.76742 12.4123 8.33623 12.3361 7.90361 12.353C7.81668 12.353 7.73337 12.353 7.65368 12.3818C7.3114 12.4246 6.97854 12.5231 6.66845 12.6734C5.81174 13.0687 5.11927 13.7468 4.70886 14.5924C4.57828 14.8627 4.48682 15.1499 4.4372 15.4457C4.33606 15.9949 4.39773 16.5616 4.61469 17.0766C4.72698 17.3603 4.88077 17.626 5.07108 17.8651L1.94878 20.9758C1.33288 20.2839 0.84263 19.4908 0.499912 18.632C0.116255 17.6525 -0.054111 16.6034 5.41639e-05 15.5537C0.0549343 14.568 0.300921 13.6022 0.724486 12.7094C1.14074 11.843 1.70166 11.0529 2.38344 10.3728C2.48486 10.2756 2.58628 10.1783 2.69132 10.0847C3.29902 9.53524 3.98496 9.07787 4.72697 8.7274C5.62837 8.30443 6.60396 8.05986 7.59935 8.00732C7.72974 8.00732 7.86377 8.00732 8.00141 8.00732C8.13905 8.00732 8.25134 8.00732 8.38173 8.00732C9.17342 8.05452 9.95298 8.22334 10.6927 8.50777C11.628 8.87114 12.4876 9.40334 13.2282 10.0775C13.3477 10.1891 13.4745 10.3044 13.5904 10.4376L18.1978 14.974Z" fill="url(#paint2_linear_633_1382)"/>
<path d="M10.4351 2.3943C10.5365 2.29709 10.6343 2.19988 10.7393 2.10627C11.348 1.55792 12.0337 1.10067 12.775 0.748931C13.6743 0.316003 14.65 0.061627 15.6474 5.61113e-05C15.908 -0.0143416 16.1692 -0.0143416 16.4298 5.61122e-05C17.2218 0.0447801 18.0017 0.213681 18.7407 0.500506C19.8318 0.930151 20.8193 1.5841 21.6384 2.4195L26.2241 6.99555L23.1126 10.0811L18.5197 5.52301C18.1418 5.12295 17.6825 4.80752 17.1723 4.59772C16.7711 4.43273 16.3382 4.35774 15.9045 4.37809C15.8212 4.37809 15.7379 4.37809 15.6582 4.4033C15.3164 4.4481 14.9838 4.54653 14.673 4.69492C13.8285 5.09629 13.1482 5.77372 12.746 6.61392C12.6143 6.88405 12.5216 7.17132 12.4707 7.4672C12.449 7.58601 12.4381 7.70843 12.4273 7.82724C12.4111 8.25955 12.4877 8.69032 12.6518 9.09096C12.8625 9.60051 13.1784 10.0605 13.5791 10.4411L18.172 14.9956L15.0859 18.0631L15.0606 18.0883L10.4677 13.5266C9.62794 12.7125 8.97119 11.7309 8.54069 10.6463C8.15438 9.66878 7.98272 8.62047 8.03721 7.57161C8.09172 6.58477 8.33771 5.61772 8.76165 4.72373C9.1817 3.85806 9.74768 3.07021 10.4351 2.3943Z" fill="url(#paint3_linear_633_1382)"/>
<path d="M202.478 7.07491C202.285 6.52701 201.986 6.0219 201.598 5.58796C201.187 5.13891 200.685 4.78179 200.124 4.54025C199.473 4.26296 198.771 4.12672 198.063 4.14061H190.301V7.0209H197.701C197.962 7.0149 198.221 7.06783 198.458 7.17572C198.666 7.26247 198.851 7.39406 199.001 7.56096C199.144 7.72796 199.252 7.92125 199.32 8.12981C199.388 8.33798 199.422 8.55549 199.421 8.77428C199.423 9.21766 199.272 9.6483 198.994 9.9948C198.838 10.1822 198.639 10.3298 198.414 10.4256C198.19 10.5214 197.945 10.5626 197.701 10.5457H190.301V13.4259H198.07C198.778 13.4398 199.481 13.3036 200.131 13.0263C200.693 12.786 201.195 12.4287 201.606 11.9786C201.991 11.5467 202.287 11.044 202.478 10.4988C202.874 9.39146 202.874 8.1823 202.478 7.07491Z" fill="#222239"/>
<path d="M202.478 13.5016C202.286 12.9533 201.987 12.448 201.598 12.0146C201.187 11.5644 200.685 11.2061 200.124 10.9633C199.473 10.689 198.77 10.5541 198.063 10.5673H190.301V13.4476H197.701C197.961 13.4421 198.22 13.4938 198.458 13.5988C198.668 13.693 198.854 13.8334 199.001 14.0092C199.144 14.1762 199.252 14.3695 199.32 14.5781C199.388 14.785 199.422 15.0013 199.421 15.219C199.424 15.6635 199.273 16.0955 198.994 16.4431C198.838 16.63 198.639 16.7772 198.414 16.8724C198.189 16.9675 197.945 17.008 197.701 16.9903H190.301V19.8706H198.07C198.778 19.8838 199.48 19.7489 200.131 19.4746C200.691 19.2322 201.194 18.8752 201.606 18.4269C201.993 17.987 202.29 17.4756 202.478 16.9219C202.874 15.8145 202.874 14.6054 202.478 13.498V13.5016Z" fill="#222239"/>
<path d="M216.704 7.07491C216.512 6.52634 216.213 6.02096 215.823 5.58796C215.413 5.13808 214.91 4.78083 214.349 4.54025C213.698 4.26296 212.996 4.12672 212.288 4.14061H204.519V7.0209H211.919C212.18 7.0149 212.438 7.06783 212.676 7.17572C212.885 7.26872 213.071 7.40783 213.219 7.58256C213.362 7.74956 213.47 7.94285 213.538 8.15141C213.605 8.35959 213.64 8.57709 213.639 8.79588C213.641 9.23926 213.49 9.66991 213.212 10.0164C213.056 10.2038 212.857 10.3514 212.632 10.4472C212.407 10.543 212.163 10.5842 211.919 10.5673H204.519V13.4475H212.288C212.996 13.4614 213.698 13.3252 214.349 13.0479C214.911 12.8086 215.414 12.4512 215.823 12.0002C216.213 11.5677 216.513 11.0622 216.704 10.5133C217.099 9.40586 217.099 8.1967 216.704 7.08931V7.07491Z" fill="#222239"/>
<path d="M216.704 13.5016C216.513 12.9526 216.213 12.4471 215.823 12.0146C215.413 11.5637 214.91 11.2052 214.349 10.9633C213.698 10.689 212.995 10.5541 212.288 10.5673H204.519V13.4476H211.919C212.179 13.4421 212.438 13.4938 212.676 13.5988C212.886 13.693 213.071 13.8334 213.219 14.0092C213.362 14.1762 213.47 14.3695 213.538 14.5781C213.605 14.785 213.64 15.0013 213.639 15.219C213.641 15.6635 213.491 16.0955 213.212 16.4431C213.056 16.63 212.857 16.7772 212.632 16.8724C212.407 16.9675 212.162 17.008 211.919 16.9903H204.519V19.8706H212.288C212.995 19.8838 213.698 19.7489 214.349 19.4746C214.909 19.2322 215.411 18.8752 215.823 18.4269C216.215 17.9886 216.514 17.4769 216.704 16.9219C217.099 15.8145 217.099 14.6054 216.704 13.498V13.5016Z" fill="#222239"/>
<path d="M41.9814 4.14068H50.5406C51.3204 4.12565 52.0945 4.27537 52.8117 4.57992C53.4308 4.84501 53.9854 5.23913 54.4381 5.73564C54.871 6.2118 55.2047 6.7686 55.4197 7.3738C55.8627 8.59793 55.8627 9.93725 55.4197 11.1614C55.2079 11.7657 54.878 12.3224 54.4489 12.7995C53.9963 13.296 53.4417 13.6902 52.8226 13.9553C52.1054 14.2598 51.3313 14.4095 50.5515 14.3945H45.7992V19.8562H41.9814V4.14068ZM45.7992 11.2154H50.1458C50.4147 11.2346 50.6844 11.1894 50.9321 11.0835C51.1798 10.9776 51.3984 10.8142 51.5693 10.6069C51.8763 10.2244 52.0436 9.7497 52.0438 9.26039C52.0459 9.0159 52.0079 8.77271 51.9315 8.54032C51.8541 8.30844 51.731 8.09423 51.5693 7.91025C51.4051 7.71915 51.2012 7.56563 50.9716 7.46021C50.7084 7.34459 50.4227 7.28805 50.1349 7.29459H45.7883L45.7992 11.2154Z" fill="#222239"/>
<path d="M58.6504 13.9514V10.8011H67.5283C67.8226 10.8245 68.1185 10.788 68.3982 10.6939C68.6778 10.5998 68.9352 10.4501 69.1547 10.2539C69.3244 10.1023 69.4602 9.91686 69.5531 9.70968C69.6461 9.5025 69.6941 9.2782 69.6941 9.05136C69.6941 8.82452 69.6461 8.60021 69.5531 8.39304C69.4602 8.18586 69.3244 8.00044 69.1547 7.84884C68.9344 7.65384 68.6769 7.5049 68.3974 7.41088C68.118 7.31686 67.8225 7.27969 67.5283 7.30158H58.6504V4.14047H68.1803C68.9616 4.12385 69.7381 4.26597 70.4623 4.55811C71.0593 4.80159 71.598 5.16719 72.0436 5.63116C72.4892 6.09513 72.8315 6.64709 73.0485 7.25118C73.2637 7.82737 73.3753 8.43672 73.3781 9.05136C73.3739 10.0182 73.0952 10.9641 72.574 11.7804C72.3034 12.1909 71.9683 12.5555 71.5815 12.8605C71.167 13.1922 70.6958 13.447 70.1906 13.613L75.0479 19.8308H70.2703L66.1048 13.9514H58.6504Z" fill="#222239"/>
<path d="M93.3213 12C93.3515 13.2762 93.068 14.5404 92.4955 15.6831C91.9778 16.6912 91.255 17.5813 90.3729 18.297C89.5121 18.99 88.5296 19.5185 87.4752 19.8559C85.4282 20.5473 83.2088 20.5473 81.1617 19.8559C80.1071 19.5191 79.1245 18.9905 78.264 18.297C77.3808 17.5815 76.6568 16.6914 76.1378 15.6831C75.5682 14.5395 75.286 13.2757 75.3156 12C75.286 10.7242 75.5682 9.46038 76.1378 8.31678C76.6568 7.30853 77.3808 6.41844 78.264 5.70292C79.1244 5.00836 80.1069 4.47854 81.1617 4.14037C83.2096 3.45386 85.4274 3.45386 87.4752 4.14037C88.5298 4.479 89.5123 5.00878 90.3729 5.70292C91.255 6.41858 91.9778 7.3087 92.4955 8.31678C93.068 9.45948 93.3515 10.7237 93.3213 12ZM89.4348 12C89.4548 11.3125 89.3144 10.6297 89.0247 10.0051C88.735 9.38047 88.3039 8.83098 87.7649 8.39959C87.2745 8.00697 86.7159 7.7068 86.1169 7.5139C85.5407 7.32435 84.9381 7.22594 84.3311 7.22227C83.7158 7.22467 83.1047 7.32308 82.5201 7.5139C81.917 7.70514 81.3545 8.0054 80.8611 8.39959C80.3209 8.83005 79.8886 9.37929 79.5982 10.004C79.3078 10.6288 79.1673 11.312 79.1877 12C79.1698 12.7265 79.3289 13.4466 79.6513 14.099C79.9455 14.6712 80.3577 15.1754 80.8611 15.5787C81.3533 15.9756 81.916 16.2772 82.5201 16.468C83.1047 16.6588 83.7158 16.7572 84.3311 16.7596C84.9381 16.756 85.5407 16.6576 86.1169 16.468C86.7167 16.2752 87.2755 15.9737 87.7649 15.5787C88.2673 15.1753 88.6783 14.6711 88.9711 14.099C89.2935 13.4466 89.4526 12.7265 89.4348 12Z" fill="#222239"/>
<path d="M111.501 4.14062V7.28374H93.8613V4.14062H111.501ZM100.772 9.75359H104.59V19.8562H100.772V9.75359Z" fill="#222239"/>
<path d="M129.934 12C129.964 13.2762 129.681 14.5404 129.108 15.6831C128.591 16.6912 127.868 17.5813 126.986 18.297C126.125 18.99 125.143 19.5185 124.088 19.8559C122.041 20.5473 119.822 20.5473 117.775 19.8559C116.72 19.5191 115.737 18.9905 114.877 18.297C113.993 17.5824 113.269 16.6921 112.751 15.6831C112.18 14.5398 111.897 13.276 111.925 12C111.895 10.7242 112.178 9.46038 112.747 8.31678C113.265 7.30778 113.989 6.41747 114.873 5.70292C115.734 5.00836 116.716 4.47854 117.771 4.14037C119.819 3.45386 122.037 3.45386 124.085 4.14037C125.139 4.479 126.122 5.00878 126.982 5.70292C127.864 6.41858 128.587 7.3087 129.105 8.31678C129.679 9.45917 129.963 10.7234 129.934 12ZM126.048 12C126.068 11.3125 125.927 10.6297 125.638 10.0051C125.348 9.38047 124.917 8.83098 124.378 8.39959C123.887 8.00618 123.327 7.70595 122.726 7.5139C122.151 7.32379 121.55 7.22536 120.944 7.22227C120.329 7.22437 119.718 7.32279 119.133 7.5139C118.53 7.70514 117.968 8.0054 117.474 8.39959C116.934 8.83005 116.502 9.37929 116.211 10.004C115.921 10.6288 115.78 11.312 115.801 12C115.785 12.7271 115.947 13.4473 116.272 14.099C116.566 14.6712 116.978 15.1754 117.481 15.5787C117.974 15.9756 118.536 16.2772 119.14 16.468C119.725 16.6591 120.336 16.7575 120.951 16.7596C121.557 16.7565 122.159 16.6581 122.733 16.468C123.335 16.2764 123.895 15.9748 124.385 15.5787C124.888 15.1753 125.299 14.6711 125.591 14.099C125.913 13.4463 126.07 12.7262 126.051 12H126.048Z" fill="#222239"/>
<path d="M132.01 12.0001C131.983 10.7405 132.262 9.49294 132.825 8.36378C133.336 7.35645 134.047 6.4624 134.915 5.73552C135.758 5.03509 136.726 4.49888 137.769 4.15496C138.765 3.81191 139.811 3.63313 140.866 3.62571C142.365 3.6026 143.85 3.91386 145.212 4.5366C146.477 5.11864 147.584 5.99109 148.443 7.08206L145.618 9.5303C145.346 9.20332 145.04 8.9053 144.705 8.64101C144.011 8.08617 143.21 7.67819 142.351 7.44209C141.924 7.32407 141.483 7.26352 141.04 7.26207C140.282 7.24727 139.529 7.38441 138.826 7.66531C138.231 7.9139 137.694 8.28156 137.247 8.74542C136.829 9.17844 136.505 9.69344 136.298 10.2576C136.09 10.819 135.983 11.4126 135.983 12.0109C135.984 12.601 136.091 13.1862 136.298 13.7391C136.506 14.3042 136.829 14.8203 137.247 15.2549C137.693 15.7193 138.231 16.087 138.826 16.335C139.529 16.6175 140.282 16.7547 141.04 16.7382C141.551 16.7454 142.06 16.6811 142.554 16.5474C142.986 16.4287 143.403 16.2595 143.796 16.0434C144.163 15.8444 144.505 15.6027 144.814 15.3233C145.107 15.0408 145.374 14.7323 145.611 14.4016L148.436 16.8498C147.552 17.9334 146.439 18.8109 145.176 19.4205C142.854 20.5246 140.189 20.6772 137.754 19.8453C136.714 19.5017 135.748 18.9654 134.907 18.2648C134.047 17.5343 133.341 16.6409 132.832 15.6365C132.267 14.5078 131.985 13.2604 132.01 12.0001Z" fill="#222239"/>
<path d="M167.247 12C167.277 13.2762 166.993 14.5404 166.421 15.6831C165.903 16.6912 165.18 17.5813 164.298 18.297C163.437 18.99 162.455 19.5185 161.4 19.8559C159.353 20.5473 157.134 20.5473 155.087 19.8559C154.032 19.5191 153.05 18.9905 152.189 18.297C151.306 17.5823 150.583 16.692 150.067 15.6831C149.492 14.5411 149.206 13.2768 149.234 12C149.203 10.7237 149.487 9.45948 150.059 8.31678C150.576 7.30795 151.299 6.41761 152.182 5.70292C153.042 5.00836 154.025 4.47854 155.08 4.14037C157.128 3.45386 159.345 3.45386 161.393 4.14037C162.448 4.479 163.43 5.00878 164.291 5.70292C165.173 6.41858 165.896 7.3087 166.414 8.31678C166.989 9.45885 167.275 10.7231 167.247 12ZM163.36 12C163.382 11.3122 163.243 10.6288 162.953 10.0038C162.663 9.37893 162.231 8.82967 161.69 8.39959C161.2 8.00697 160.641 7.7068 160.042 7.5139C159.466 7.32435 158.863 7.22594 158.256 7.22227C157.641 7.22467 157.03 7.32308 156.445 7.5139C155.842 7.70514 155.28 8.0054 154.786 8.39959C154.246 8.82967 153.814 9.37893 153.524 10.0038C153.234 10.6288 153.095 11.3122 153.117 12C153.099 12.7265 153.258 13.4466 153.58 14.099C153.876 14.6705 154.288 15.1745 154.79 15.5787C155.291 15.9788 155.864 16.2805 156.478 16.468C157.063 16.6588 157.674 16.7572 158.289 16.7596C158.896 16.756 159.499 16.6576 160.075 16.468C160.675 16.2752 161.233 15.9737 161.723 15.5787C162.225 15.1745 162.637 14.6705 162.933 14.099C163.243 13.4435 163.389 12.7236 163.36 12Z" fill="#222239"/>
<path d="M170.242 4.14062H174.045V19.8562H170.242V4.14062ZM184.177 16.6915V19.8562H174.045V16.6915H184.177Z" fill="#222239"/>
<defs>
<linearGradient id="paint0_linear_633_1382" x1="25.0568" y1="1.64576" x2="21.3618" y2="15.5292" gradientUnits="userSpaceOnUse">
<stop stop-color="#20F27F"/>
<stop offset="1" stop-color="#29C641"/>
</linearGradient>
<linearGradient id="paint1_linear_633_1382" x1="17.9701" y1="6.13937" x2="13.3457" y2="23.5109" gradientUnits="userSpaceOnUse">
<stop stop-color="#20F27F"/>
<stop offset="1" stop-color="#29C641"/>
</linearGradient>
<linearGradient id="paint2_linear_633_1382" x1="10.8521" y1="8.4788" x2="7.1571" y2="22.3571" gradientUnits="userSpaceOnUse">
<stop stop-color="#20F27F"/>
<stop offset="1" stop-color="#29C641"/>
</linearGradient>
<linearGradient id="paint3_linear_633_1382" x1="14.1983" y1="17.8583" x2="18.8253" y2="0.489367" gradientUnits="userSpaceOnUse">
<stop stop-color="#20F27F"/>
<stop offset="1" stop-color="#29C641"/>
</linearGradient>
</defs>
</svg>
