<svg width="214" height="35" viewBox="0 0 214 35" fill="none" xmlns="http://www.w3.org/2000/svg">
<g clip-path="url(#clip0_55_139)">
<path d="M0 14.788C0.108629 14.6024 0.206396 14.4169 0.380203 14.1004C1.47736 15.6392 2.61797 17.0143 4.58416 17.3527C1.70548 11.5139 1.27096 5.7624 4.79056 0C4.87746 0.316495 5.00782 0.622077 5.06213 0.938572C6.28964 8.91643 11.0802 13.8821 18.2932 16.8288C19.0753 17.1453 19.3686 16.8288 19.8031 16.2286C21.2045 14.3405 22.5189 12.3433 24.1918 10.739C27.9069 7.18117 32.6649 6.50452 37.5532 6.39539C38.5417 6.37356 39.5303 6.39539 40.6274 6.39539C40.5079 8.51263 38.9328 9.24384 37.5532 10.1388C37.5966 10.2479 37.6292 10.357 37.6727 10.4662C38.4222 10.2697 39.2695 10.237 39.8996 9.85501C41.4313 8.93826 42.7348 9.57125 44.3751 10.2261C41.8006 12.3979 42.4307 15.2354 42.4089 17.9093C42.3872 19.9501 42.4089 22.0019 42.4089 24.0427C42.4089 26.3455 41.9636 26.7711 39.4216 26.6729C39.8127 25.0577 38.9328 23.8899 37.9008 22.8422C36.141 21.0524 34.8701 19.2298 37.1295 16.7088C34.1422 17.4072 32.9147 19.6773 33.925 22.0783C34.4138 23.246 35.0439 24.381 35.3697 25.5925C35.8694 27.4696 34.4247 30.3508 32.6866 31.1148C32.4042 31.2348 31.8936 31.0929 31.6112 30.8965C27.0705 27.8188 22.3125 27.7534 17.3807 29.7615C16.3379 30.1871 15.2516 30.5254 14.1761 30.8965C10.3198 32.1952 6.94142 31.4749 4.14964 28.4409C3.1068 27.3168 2.19431 26.0727 1.08629 24.7303C2.78091 25.2978 4.24741 25.778 5.76822 26.28C5.82254 25.8871 5.84426 25.8107 5.82254 25.7998C2.41157 23.5953 0.608325 20.3867 0 16.425C0 15.8793 0 15.3336 0 14.788ZM41.4095 16.1631C41.2357 16.1194 41.0619 16.0758 40.899 16.043C40.66 16.5341 40.1712 17.0689 40.2363 17.5055C40.3667 18.3131 40.8229 19.077 41.1488 19.8519L41.7246 19.6554C41.6268 18.4877 41.5182 17.3199 41.4204 16.1631H41.4095Z" fill="white"/>
<path d="M214 32.7954C213.229 34.1159 211.958 34.7817 210.546 34.9235C208.808 35.0982 207.048 34.9672 205.288 34.9672C205.679 33.0027 205.842 32.85 207.602 32.85C208.145 32.85 208.688 32.8718 209.231 32.839C211.317 32.719 211.773 32.0969 211.317 29.8378C210.893 29.9033 210.448 30.067 210.024 30.0124C208.525 29.8269 206.993 29.6959 205.549 29.2921C204.31 28.9429 203.778 27.9279 203.821 26.5419C203.897 24.1845 203.745 21.8163 203.897 19.4589C203.952 18.6732 204.441 17.7128 205.049 17.1998C206.906 15.6501 211.99 15.4318 213.989 18.3348V32.7954H214ZM206.352 23.0277C206.352 23.9335 206.429 24.8503 206.331 25.7452C206.179 27.1421 206.907 27.6551 208.101 27.7533C208.731 27.8079 209.372 27.7969 209.992 27.7205C211.034 27.5896 211.556 27.0221 211.512 25.8761C211.447 24.1081 211.502 22.3401 211.491 20.5612C211.491 18.9787 211.121 18.5422 209.557 18.4003C208.938 18.3457 208.297 18.4112 207.678 18.4985C206.733 18.6186 206.255 19.1315 206.331 20.1683C206.396 21.1178 206.342 22.0782 206.342 23.0277H206.352Z" fill="white"/>
<path d="M125 29.7178V25.9308C125 21.7072 125 17.4837 125 13.2601C125 11.8304 125.456 11.3393 126.923 11.2956C128.237 11.252 129.541 11.2629 130.855 11.2956C132.8 11.3502 134.722 11.8086 135.57 13.6857C136.406 15.552 136.428 17.5928 134.711 19.339C135.07 19.6009 135.385 19.8192 135.7 20.0593C136.623 20.7578 137.156 21.6308 137.101 22.8423C137.058 23.7044 137.112 24.5666 137.145 25.4288C137.188 26.8912 136.569 28.0262 135.309 28.6701C134.396 29.1394 133.386 29.6087 132.387 29.6742C130.008 29.8161 127.618 29.7178 125.011 29.7178H125ZM127.509 20.8123C127.509 22.0783 127.509 23.2133 127.509 24.3374C127.509 26.5565 128.596 27.6443 130.768 27.6006C133.897 27.5351 134.777 26.6075 134.614 23.5189C134.527 21.8164 133.788 21.0088 131.887 20.8451C130.507 20.725 129.106 20.8232 127.509 20.8232V20.8123ZM127.596 18.4004C128.987 18.4004 130.247 18.4659 131.507 18.3786C132.669 18.3022 133.419 17.691 133.473 16.3923C133.549 14.7007 133.212 13.9804 131.811 13.773C130.453 13.5657 129.063 13.6202 127.596 13.5548V18.4004Z" fill="white"/>
<path d="M89.3043 30.2416C89.3043 26.4437 89.2825 22.7767 89.3151 19.0988C89.326 17.8328 90.2385 17.1562 91.2813 16.7306C93.2367 15.923 95.2246 15.9448 97.2451 16.6105C97.8208 16.7961 98.516 16.676 99.1461 16.6324C100.656 16.5341 102.209 16.1194 103.676 16.3268C106.37 16.6978 107.054 17.7237 107.054 20.4521C107.054 22.8204 107.054 25.1777 107.054 27.546C107.054 29.565 106.891 29.7505 104.588 30.2307C104.588 27.0876 104.588 23.9663 104.588 20.8341C104.588 18.9133 104.263 18.5422 102.383 18.3894C100.156 18.2039 99.4394 18.8587 99.4394 21.0742C99.4394 23.2569 99.4394 25.4396 99.4394 27.6224C99.4394 29.5213 99.2004 29.7724 96.9627 30.198V23.126C96.9627 22.3947 96.9844 21.6744 96.9627 20.9432C96.9301 20.1138 97.2342 19.1097 96.1262 18.7278C94.8009 18.2585 93.4322 18.1712 92.2264 18.9897C91.9222 19.1971 91.8353 19.8737 91.8245 20.3321C91.781 22.6458 91.8028 24.9704 91.8028 27.284C91.8028 28.7538 90.9735 29.7396 89.3151 30.2416H89.3043Z" fill="white"/>
<path d="M50.5996 29.685C50.5779 29.3685 50.5236 29.0083 50.5236 28.6591C50.5236 23.486 50.5562 18.313 50.491 13.129C50.4801 11.9285 51.0559 11.4047 52.0553 11.3828C54.0866 11.3392 56.1397 11.2737 58.1385 11.5247C61.3757 11.9285 62.5706 13.4564 62.5706 16.6869C62.5706 19.6335 62.5271 22.5911 62.5815 25.5378C62.614 27.0875 61.9623 28.1571 60.6153 28.8119C59.8874 29.1611 59.1162 29.6086 58.3449 29.6413C55.7921 29.7396 53.2393 29.685 50.5996 29.685ZM60.1047 20.6485C60.1047 19.0988 60.0504 17.5599 60.1264 16.0211C60.1699 15.0389 59.7571 14.2968 58.9098 14.1549C57.15 13.8602 55.3467 13.762 53.5652 13.6638C53.4023 13.6638 53.0438 14.2313 53.0438 14.5478C53.0112 18.5858 53.0112 22.6348 53.0438 26.6728C53.0438 26.9784 53.4131 27.5568 53.5869 27.5459C55.3685 27.4368 57.1608 27.3167 58.9206 27.0111C59.8005 26.8584 60.1699 26.1053 60.1264 25.1449C60.0612 23.6497 60.1156 22.1437 60.1156 20.6485H60.1047Z" fill="white"/>
<path d="M178.826 17.047C177.566 18.2366 176.392 19.3388 175.067 20.583C175.665 20.7358 176.034 20.8231 176.392 20.9322C178.598 21.5543 179.206 22.351 179.206 24.6101C179.206 25.5159 179.206 26.4327 179.206 27.3385C179.206 29.4994 179.141 29.5758 176.729 30.2088C176.729 28.6809 176.729 27.2185 176.729 25.756C176.729 23.2896 176.154 22.7548 173.688 22.9512C171.939 23.0822 171.591 23.4533 171.591 25.1995C171.591 25.9307 171.591 26.651 171.591 27.3822C171.591 29.4994 171.515 29.5867 169.125 30.187C169.125 29.6631 169.125 29.1938 169.125 28.7246C169.125 23.6825 169.125 18.6404 169.125 13.5874C169.125 11.6993 169.408 11.3937 171.569 11.0881V21.0086C173.014 19.5571 174.198 18.3784 175.382 17.1889C176.374 16.1848 177.522 16.1484 178.826 17.0797V17.047Z" fill="white"/>
<path d="M76.7033 24.5448C77.4854 27.8953 76.6598 29.3359 73.5096 29.8925C72.4233 30.0889 71.2501 30.0562 70.1638 29.8598C67.4589 29.3577 66.8071 28.4737 66.8071 25.7126C66.8071 23.6717 66.8506 21.62 66.7963 19.5791C66.7637 18.3895 67.2308 17.5492 68.2302 17.0144C70.6418 15.7266 73.1076 15.7266 75.4975 16.9817C77.4528 18.0076 77.5723 20.2449 75.8451 21.5981C73.9224 23.1042 71.9779 24.5885 70.066 26.1055C69.2187 26.7712 69.2839 27.3605 70.3267 27.557C71.3587 27.7425 72.4559 27.6552 73.5096 27.5352C73.8355 27.4915 74.3677 26.9677 74.3786 26.6621C74.3786 24.9923 75.6713 24.9814 76.7141 24.5557L76.7033 24.5448ZM69.2839 24.0101C71.0763 22.5585 72.5536 21.3908 73.9984 20.1794C74.7154 19.5791 74.4655 18.9025 73.716 18.7824C72.5102 18.5969 71.2609 18.6515 70.0443 18.7497C69.7619 18.7715 69.3382 19.3718 69.3056 19.7319C69.2187 21.0197 69.273 22.3184 69.273 24.0101H69.2839Z" fill="white"/>
<path d="M151.223 23.1151C151.223 24.2938 151.212 25.4725 151.223 26.6511C151.245 27.8735 150.712 28.7356 149.615 29.2595C147.312 30.3618 144.988 30.3618 142.685 29.2595C141.512 28.7029 140.947 27.7752 140.979 26.4329C141.023 24.1628 141.012 21.8928 140.979 19.6337C140.968 18.3568 141.49 17.44 142.62 16.9053C144.966 15.7702 147.323 15.8139 149.659 16.938C150.745 17.4619 151.234 18.3677 151.212 19.5791C151.19 20.7578 151.212 21.9364 151.212 23.1151H151.223ZM148.659 23.0169C148.659 22.1547 148.583 21.2816 148.681 20.4304C148.833 19.0443 148.105 18.5096 146.91 18.4223C146.248 18.3677 145.553 18.4223 144.89 18.4987C143.956 18.6296 143.456 19.1644 143.467 20.1684C143.489 22.122 143.434 24.0755 143.5 26.0291C143.521 26.4983 143.869 27.3059 144.151 27.3496C145.411 27.5242 146.704 27.557 147.964 27.4478C148.225 27.426 148.583 26.6184 148.627 26.1491C148.725 25.1123 148.659 24.0646 148.659 23.0169Z" fill="white"/>
<path d="M120.807 23.0823C120.807 24.3046 120.796 25.5378 120.807 26.7601C120.818 27.8188 120.394 28.6155 119.471 29.1066C116.972 30.449 114.409 30.4926 111.975 29.052C111.323 28.67 110.715 27.6441 110.672 26.8802C110.509 24.3482 110.52 21.8054 110.672 19.2734C110.715 18.5422 111.269 17.5709 111.888 17.178C114.289 15.6501 116.853 15.7265 119.362 16.9925C120.372 17.5054 120.872 18.3457 120.818 19.5462C120.763 20.7249 120.807 21.9036 120.807 23.0823ZM118.341 23.1696C118.341 22.3947 118.341 21.6307 118.341 20.8559C118.341 18.9133 118.059 18.5749 116.136 18.4221C115.603 18.3785 115.06 18.4767 114.528 18.5422C113.561 18.6622 113.159 19.2079 113.192 20.212C113.246 22.0673 113.279 23.9335 113.192 25.7779C113.127 27.0657 113.67 27.6551 114.843 27.7533C115.506 27.8079 116.19 27.7969 116.853 27.7205C117.917 27.6005 118.439 27.0112 118.352 25.8761C118.287 24.9703 118.341 24.0645 118.341 23.1586V23.1696Z" fill="white"/>
<path d="M164.867 23.1915C164.867 24.2829 164.791 25.3742 164.889 26.4656C165.008 27.9826 164.269 28.8884 162.998 29.4341C160.848 30.3617 158.675 30.329 156.546 29.3795C155.373 28.8557 154.743 27.9717 154.764 26.5965C154.819 24.2829 154.819 21.9583 154.764 19.6446C154.732 18.2149 155.405 17.2872 156.622 16.7634C158.805 15.8139 161.032 15.8466 163.194 16.8398C164.356 17.3745 165.008 18.2804 164.943 19.6446C164.889 20.8232 164.932 22.0128 164.932 23.1915C164.91 23.1915 164.899 23.1915 164.878 23.1915H164.867ZM162.401 23.1478C162.401 22.2857 162.401 21.4235 162.401 20.5613C162.401 18.9461 162.075 18.5641 160.489 18.4004C159.913 18.3458 159.316 18.3786 158.74 18.455C157.687 18.5969 157.187 19.1644 157.23 20.2994C157.295 22.0674 157.241 23.8354 157.252 25.6034C157.252 27.1859 157.632 27.6333 159.186 27.7643C159.848 27.8189 160.543 27.7534 161.195 27.6443C162.01 27.5133 162.444 27.0222 162.412 26.1273C162.379 25.1341 162.412 24.1301 162.412 23.1369L162.401 23.1478Z" fill="white"/>
<path d="M190.123 30.1434C190.123 28.5827 190.123 27.0548 190.123 25.5269C190.123 23.5734 190.145 21.6198 190.123 19.6663C190.102 18.2039 190.764 17.2435 192.079 16.7087C194.143 15.8574 196.217 15.8465 198.292 16.6651C199.639 17.1998 200.367 18.1602 200.334 19.699C200.28 22.1983 200.324 24.6975 200.324 27.1967C200.324 28.7101 199.516 29.7214 197.901 30.2307C197.869 29.7178 197.803 29.2594 197.803 28.7901C197.803 25.9744 197.76 23.1477 197.814 20.332C197.836 19.2079 197.423 18.5859 196.326 18.4985C195.609 18.444 194.892 18.4222 194.175 18.4876C193.111 18.5859 192.6 19.1752 192.622 20.3102C192.665 22.6785 192.633 25.0358 192.633 27.4041C192.633 29.4558 192.481 29.6414 190.145 30.1434H190.123Z" fill="white"/>
<path d="M87.2294 16.163C86.8709 17.6473 86.393 18.5859 84.7853 18.5095C83.5686 18.444 82.9494 19.1315 83.0037 20.4848C83.0906 22.8422 83.0255 25.1995 83.0255 27.5569C83.0255 29.4995 82.8191 29.7287 80.5378 30.1652V27.6114C80.5378 25.2977 80.5378 22.9841 80.5378 20.6813C80.5378 17.6909 81.6893 16.425 84.6766 16.1849C85.4805 16.1194 86.2952 16.1849 87.2186 16.1849L87.2294 16.163Z" fill="white"/>
<path d="M183.421 30.1434V27.9825C183.421 24.9049 183.421 21.8163 183.421 18.7387C183.421 16.7088 183.692 16.4141 185.93 16.054V22.8204C185.93 24.3592 185.93 25.898 185.93 27.4478C185.93 29.5105 185.811 29.6414 183.421 30.1434Z" fill="white"/>
<path d="M186.386 12.9435C185.843 13.3473 185.354 13.9803 184.757 14.1112C183.855 14.3077 183.193 13.6856 183.149 12.7361C183.106 11.8084 183.671 11.0554 184.594 11.1755C185.224 11.2628 185.789 11.9176 186.386 12.3105C186.386 12.5178 186.386 12.7252 186.386 12.9435Z" fill="white"/>
</g>
<defs>
<clipPath id="clip0_55_139">
<rect width="214" height="35" fill="white"/>
</clipPath>
</defs>
</svg>
