<svg width="388" height="49" viewBox="0 0 388 49" fill="none" xmlns="http://www.w3.org/2000/svg">
<path d="M0.0160003 3.2V2.2H-0.984V3.2H0.0160003ZM0.0160003 48H-0.984V49H0.0160003V48ZM8.336 48V49H9.336V48H8.336ZM8.336 35.072V34.072H7.336V35.072H8.336ZM8.336 28.032H7.336V29.032H8.336V28.032ZM8.336 10.24V9.24H7.336V10.24H8.336ZM18.448 2.2H0.0160003V4.2H18.448V2.2ZM-0.984 3.2V48H1.016V3.2H-0.984ZM0.0160003 49H8.336V47H0.0160003V49ZM9.336 48V35.072H7.336V48H9.336ZM8.336 36.072H18.448V34.072H8.336V36.072ZM18.448 36.072C24.4981 36.072 29.5165 34.5103 33.0409 31.5676C36.5865 28.6072 38.52 24.3305 38.52 19.136H36.52C36.52 23.7975 34.8055 27.4888 31.7591 30.0324C28.6915 32.5937 24.174 34.072 18.448 34.072V36.072ZM38.52 19.136C38.52 13.9109 36.5875 9.63297 33.0398 6.67947C29.5144 3.74446 24.4956 2.2 18.448 2.2V4.2C24.1764 4.2 28.6936 5.66354 31.7602 8.21652C34.8045 10.751 36.52 14.4411 36.52 19.136H38.52ZM18.064 27.032H8.336V29.032H18.064V27.032ZM9.336 28.032V10.24H7.336V28.032H9.336ZM8.336 11.24H18.064V9.24H8.336V11.24ZM18.064 11.24C21.5813 11.24 24.0898 12.029 25.7024 13.3497C27.2834 14.6444 28.136 16.5593 28.136 19.136H30.136C30.136 16.0807 29.1006 13.5475 26.9696 11.8023C24.8702 10.083 21.8427 9.24 18.064 9.24V11.24ZM28.136 19.136C28.136 21.7127 27.2834 23.6275 25.7024 24.9223C24.0898 26.243 21.5813 27.032 18.064 27.032V29.032C21.8427 29.032 24.8702 28.189 26.9696 26.4697C29.1006 24.7244 30.136 22.1913 30.136 19.136H28.136ZM70.7735 13.824V12.824H69.7735V13.824H70.7735ZM53.4295 13.824H54.4295V12.824H53.4295V13.824ZM45.4295 13.824V12.824H44.4295V13.824H45.4295ZM71.1575 43.648H72.1575V40.8417L70.3828 43.0156L71.1575 43.648ZM71.1575 48H70.1575V49H71.1575V48ZM78.7735 48V49H79.7735V48H78.7735ZM78.7735 13.824H79.7735V12.824H78.7735V13.824ZM69.7735 13.824V31.104H71.7735V13.824H69.7735ZM69.7735 31.104C69.7735 34.3484 68.8814 36.6492 67.4658 38.1339C66.0547 39.6138 64.0043 40.408 61.4295 40.408V42.408C64.4227 42.408 67.0443 41.4742 68.9132 39.5141C70.7776 37.5588 71.7735 34.7076 71.7735 31.104H69.7735ZM61.4295 40.408C59.0967 40.408 57.4018 39.7345 56.275 38.4891C55.1328 37.2266 54.4295 35.2178 54.4295 32.256H52.4295C52.4295 35.5022 53.1982 38.0694 54.792 39.8309C56.4012 41.6095 58.7063 42.408 61.4295 42.408V40.408ZM54.4295 32.256V13.824H52.4295V32.256H54.4295ZM53.4295 12.824H45.4295V14.824H53.4295V12.824ZM44.4295 13.824V33.344H46.4295V13.824H44.4295ZM44.4295 33.344C44.4295 38.689 45.9778 42.7554 48.8079 45.4804C51.6308 48.1984 55.5904 49.448 60.1495 49.448V47.448C55.9406 47.448 52.5402 46.2976 50.1951 44.0396C47.8572 41.7886 46.4295 38.303 46.4295 33.344H44.4295ZM60.1495 49.448C64.8088 49.448 69.1489 47.6898 71.9322 44.2804L70.3828 43.0156C68.0461 45.8782 64.3222 47.448 60.1495 47.448V49.448ZM70.1575 43.648V48H72.1575V43.648H70.1575ZM71.1575 49H78.7735V47H71.1575V49ZM79.7735 48V13.824H77.7735V48H79.7735ZM78.7735 12.824H70.7735V14.824H78.7735V12.824ZM89.248 48H88.248V49H89.248V48ZM97.248 48V49H98.248V48H97.248ZM97.248 0.511997H98.248V-0.488003H97.248V0.511997ZM89.248 0.511997V-0.488003H88.248V0.511997H89.248ZM89.248 49H97.248V47H89.248V49ZM98.248 48V0.511997H96.248V48H98.248ZM97.248 -0.488003H89.248V1.512H97.248V-0.488003ZM88.248 0.511997V48H90.248V0.511997H88.248ZM129.636 22.464L129.129 23.3259L130.048 23.8664L130.529 22.915L129.636 22.464ZM132.708 16.384L133.601 16.835L134.019 16.0075L133.225 15.5281L132.708 16.384ZM106.916 38.528L107.467 37.6932L106.53 37.0752L106.023 38.077L106.916 38.528ZM103.844 44.608L102.951 44.157L102.563 44.926L103.266 45.424L103.844 44.608ZM118.308 49.448C123.236 49.448 127.328 48.3825 130.219 46.3916C133.144 44.3776 134.796 41.4386 134.796 37.888H132.796C132.796 40.7374 131.504 43.0784 129.085 44.7444C126.632 46.4335 122.98 47.448 118.308 47.448V49.448ZM134.796 37.888C134.796 34.2231 133.322 31.795 131.077 30.193C128.906 28.644 126.077 27.9123 123.422 27.4095C122.094 27.1579 120.736 26.9519 119.528 26.7443C118.295 26.5325 117.194 26.3154 116.268 26.0326C115.332 25.7466 114.67 25.4202 114.252 25.0443C113.874 24.7042 113.676 24.3097 113.676 23.744H111.676C111.676 24.9062 112.138 25.8318 112.915 26.531C113.652 27.1943 114.64 27.6264 115.684 27.9454C116.739 28.2676 117.947 28.502 119.189 28.7154C120.456 28.9331 121.738 29.1261 123.05 29.3745C125.675 29.8717 128.126 30.544 129.915 31.821C131.63 33.045 132.796 34.8649 132.796 37.888H134.796ZM113.676 23.744C113.676 23.0358 114.011 22.3813 114.934 21.8512C115.905 21.2937 117.498 20.904 119.844 20.904V18.904C117.326 18.904 115.335 19.3143 113.938 20.1168C112.493 20.9467 111.676 22.2122 111.676 23.744H113.676ZM119.844 20.904C122.967 20.904 126.048 21.5134 129.129 23.3259L130.143 21.6021C126.696 19.5746 123.249 18.904 119.844 18.904V20.904ZM130.529 22.915L133.601 16.835L131.815 15.933L128.743 22.013L130.529 22.915ZM133.225 15.5281C129.942 13.5446 124.557 12.44 119.908 12.44V14.44C124.347 14.44 129.33 15.5114 132.191 17.2399L133.225 15.5281ZM119.908 12.44C115.162 12.44 111.178 13.5259 108.351 15.5464C105.494 17.5883 103.868 20.5565 103.868 24.128H105.868C105.868 21.2355 107.154 18.8597 109.513 17.1736C111.902 15.4661 115.438 14.44 119.908 14.44V12.44ZM103.868 24.128C103.868 27.8482 105.335 30.3236 107.579 31.9592C109.752 33.5427 112.584 34.2872 115.245 34.7831C116.581 35.0321 117.93 35.2272 119.147 35.4223C120.383 35.6204 121.488 35.8193 122.418 36.0799C123.361 36.3441 124.023 36.6459 124.439 36.9935C124.809 37.3033 124.988 37.6488 124.988 38.144H126.988C126.988 37.0072 126.507 36.1167 125.722 35.4598C124.983 34.8406 123.995 34.4449 122.958 34.1541C121.908 33.8597 120.703 33.6461 119.464 33.4475C118.206 33.2458 116.915 33.0599 115.611 32.8169C112.992 32.3288 110.544 31.6453 108.757 30.3428C107.041 29.0924 105.868 27.2238 105.868 24.128H103.868ZM124.988 38.144C124.988 38.5828 124.892 38.9327 124.72 39.2212C124.547 39.5109 124.266 39.7937 123.812 40.047C122.875 40.5706 121.288 40.92 118.82 40.92V42.92C121.408 42.92 123.405 42.5654 124.788 41.793C125.494 41.3983 126.057 40.8851 126.438 40.2448C126.82 39.6033 126.988 38.8892 126.988 38.144H124.988ZM118.82 40.92C114.716 40.92 110.301 39.5629 107.467 37.6932L106.365 39.3628C109.547 41.4611 114.348 42.92 118.82 42.92V40.92ZM106.023 38.077L102.951 44.157L104.737 45.059L107.809 38.979L106.023 38.077ZM103.266 45.424C106.551 47.7512 112.467 49.448 118.308 49.448V47.448C112.757 47.448 107.281 45.8168 104.422 43.792L103.266 45.424ZM170.51 42.88L171.274 43.5241L171.826 42.8694L171.264 42.2236L170.51 42.88ZM166.221 37.952L166.976 37.2956L166.263 36.4764L165.505 37.2541L166.221 37.952ZM145.87 33.472V32.472H144.659L144.887 33.6608L145.87 33.472ZM172.686 33.472V34.472H173.606L173.682 33.555L172.686 33.472ZM165.198 28.16V29.16H166.336L166.189 28.0312L165.198 28.16ZM145.805 28.16L144.817 28.0079L144.64 29.16H145.805V28.16ZM173.814 31.104C173.814 25.5258 171.905 20.8459 168.626 17.5578C165.347 14.271 160.764 12.44 155.534 12.44V14.44C160.287 14.44 164.344 16.097 167.209 18.9702C170.074 21.8421 171.814 25.9942 171.814 31.104H173.814ZM155.534 12.44C144.82 12.44 136.87 20.1693 136.87 30.912H138.87C138.87 21.3027 145.895 14.44 155.534 14.44V12.44ZM136.87 30.912C136.87 36.2523 138.823 40.9065 142.326 44.2223C145.826 47.5352 150.805 49.448 156.749 49.448V47.448C151.238 47.448 146.777 45.6808 143.701 42.7697C140.628 39.8615 138.87 35.7477 138.87 30.912H136.87ZM156.749 49.448C162.852 49.448 167.966 47.4529 171.274 43.5241L169.745 42.2359C166.909 45.6031 162.423 47.448 156.749 47.448V49.448ZM171.264 42.2236L166.976 37.2956L165.467 38.6084L169.755 43.5364L171.264 42.2236ZM165.505 37.2541C163.279 39.5389 160.538 40.664 156.941 40.664V42.664C161.025 42.664 164.3 41.3571 166.938 38.6499L165.505 37.2541ZM156.941 40.664C151.383 40.664 147.706 37.7248 146.852 33.2832L144.887 33.6608C145.953 39.2032 150.596 42.664 156.941 42.664V40.664ZM145.87 34.472H172.686V32.472H145.87V34.472ZM173.682 33.555C173.746 32.7849 173.814 31.789 173.814 31.104H171.814C171.814 31.699 171.753 32.6231 171.689 33.389L173.682 33.555ZM155.534 20.84C160.286 20.84 163.631 23.8662 164.206 28.2888L166.189 28.0312C165.484 22.5978 161.277 18.84 155.534 18.84V20.84ZM165.198 27.16H145.805V29.16H165.198V27.16ZM146.794 28.3121C147.488 23.8032 150.848 20.84 155.534 20.84V18.84C149.851 18.84 145.659 22.5327 144.817 28.0079L146.794 28.3121ZM256.49 3.2V2.2H255.77L255.541 2.88271L256.49 3.2ZM245.034 37.44L244.084 37.7541L245.028 40.6076L245.982 37.7573L245.034 37.44ZM233.706 3.2L234.655 2.8859L234.428 2.2H233.706V3.2ZM226.025 3.2V2.2H225.309L225.079 2.8779L226.025 3.2ZM214.441 37.248L213.491 37.5589L214.423 40.4077L215.388 37.5701L214.441 37.248ZM203.305 3.2L204.256 2.88913L204.031 2.2H203.305V3.2ZM194.665 3.2V2.2H193.281L193.716 3.5146L194.665 3.2ZM209.514 48L208.564 48.3146L208.791 49H209.514V48ZM218.41 48V49H219.126L219.356 48.3217L218.41 48ZM229.673 14.848L230.622 14.5312L229.682 11.7156L228.727 14.5263L229.673 14.848ZM240.745 48L239.797 48.3168L240.025 49H240.745V48ZM249.577 48V49H250.3L250.527 48.3146L249.577 48ZM264.426 3.2L265.375 3.5146L265.81 2.2H264.426V3.2ZM255.541 2.88271L244.085 37.1227L245.982 37.7573L257.438 3.51729L255.541 2.88271ZM245.983 37.1259L234.655 2.8859L232.756 3.5141L244.084 37.7541L245.983 37.1259ZM233.706 2.2H226.025V4.2H233.706V2.2ZM225.079 2.8779L213.495 36.9259L215.388 37.5701L226.972 3.52209L225.079 2.8779ZM215.392 36.9371L204.256 2.88913L202.355 3.51086L213.491 37.5589L215.392 36.9371ZM203.305 2.2H194.665V4.2H203.305V2.2ZM193.716 3.5146L208.564 48.3146L210.463 47.6854L195.615 2.8854L193.716 3.5146ZM209.514 49H218.41V47H209.514V49ZM219.356 48.3217L230.62 15.1697L228.727 14.5263L217.463 47.6783L219.356 48.3217ZM228.725 15.1648L239.797 48.3168L241.694 47.6832L230.622 14.5312L228.725 15.1648ZM240.745 49H249.577V47H240.745V49ZM250.527 48.3146L265.375 3.5146L263.476 2.8854L248.628 47.6854L250.527 48.3146ZM264.426 2.2H256.49V4.2H264.426V2.2ZM283.233 49.448C294.371 49.448 302.473 41.742 302.473 30.912H300.473C300.473 40.562 293.343 47.448 283.233 47.448V49.448ZM302.473 30.912C302.473 20.0773 294.366 12.44 283.233 12.44V14.44C293.348 14.44 300.473 21.2667 300.473 30.912H302.473ZM283.233 12.44C272.228 12.44 264.057 20.0773 264.057 30.912H266.057C266.057 21.2667 273.246 14.44 283.233 14.44V12.44ZM264.057 30.912C264.057 41.742 272.223 49.448 283.233 49.448V47.448C273.251 47.448 266.057 40.562 266.057 30.912H264.057ZM283.233 40.6C280.6 40.6 278.338 39.6534 276.733 38.0062C275.129 36.3594 274.121 33.9484 274.121 30.912H272.121C272.121 34.4036 273.289 37.3366 275.301 39.4018C277.312 41.4666 280.106 42.6 283.233 42.6V40.6ZM274.121 30.912C274.121 27.8756 275.129 25.4646 276.733 23.8178C278.338 22.1706 280.6 21.224 283.233 21.224V19.224C280.106 19.224 277.312 20.3574 275.301 22.4222C273.289 24.4874 272.121 27.4204 272.121 30.912H274.121ZM283.233 21.224C285.901 21.224 288.179 22.1726 289.79 23.8194C291.401 25.4657 292.409 27.8757 292.409 30.912H294.409C294.409 27.4203 293.241 24.4863 291.22 22.4206C289.199 20.3554 286.389 19.224 283.233 19.224V21.224ZM292.409 30.912C292.409 33.9483 291.401 36.3583 289.79 38.0046C288.179 39.6514 285.901 40.6 283.233 40.6V42.6C286.389 42.6 289.199 41.4686 291.22 39.4034C293.241 37.3377 294.409 34.4037 294.409 30.912H292.409ZM316.739 18.816H315.739V22.2208L317.58 19.3568L316.739 18.816ZM316.739 13.824H317.739V12.824H316.739V13.824ZM309.123 13.824V12.824H308.123V13.824H309.123ZM309.123 48H308.123V49H309.123V48ZM317.123 48V49H318.123V48H317.123ZM328.899 21.056L328.72 22.0399L329.899 22.2542V21.056H328.899ZM328.899 13.44H329.899V12.44H328.899V13.44ZM317.739 18.816V13.824H315.739V18.816H317.739ZM316.739 12.824H309.123V14.824H316.739V12.824ZM308.123 13.824V48H310.123V13.824H308.123ZM309.123 49H317.123V47H309.123V49ZM318.123 48V31.424H316.123V48H318.123ZM318.123 31.424C318.123 28.115 319.031 25.7554 320.52 24.2253C322.005 22.6982 324.199 21.864 327.043 21.864V19.864C323.807 19.864 321.041 20.8218 319.086 22.8307C317.135 24.8366 316.123 27.757 316.123 31.424H318.123ZM327.043 21.864C327.541 21.864 328.054 21.9187 328.72 22.0399L329.078 20.0721C328.336 19.9373 327.697 19.864 327.043 19.864V21.864ZM329.899 21.056V13.44H327.899V21.056H329.899ZM328.899 12.44C323.003 12.44 318.451 14.304 315.898 18.2752L317.58 19.3568C319.635 16.16 323.403 14.44 328.899 14.44V12.44ZM335.685 48H334.685V49H335.685V48ZM343.685 48V49H344.685V48H343.685ZM343.685 0.511997H344.685V-0.488003H343.685V0.511997ZM335.685 0.511997V-0.488003H334.685V0.511997H335.685ZM335.685 49H343.685V47H335.685V49ZM344.685 48V0.511997H342.685V48H344.685ZM343.685 -0.488003H335.685V1.512H343.685V-0.488003ZM334.685 0.511997V48H336.685V0.511997H334.685ZM379.658 0.511997V-0.488003H378.658V0.511997H379.658ZM379.658 18.048L378.898 18.6988L380.658 20.7513V18.048H379.658ZM379.978 43.584H380.978V40.7967L379.206 42.9483L379.978 43.584ZM379.978 48H378.978V49H379.978V48ZM387.658 48V49H388.658V48H387.658ZM387.658 0.511997H388.658V-0.488003H387.658V0.511997ZM378.658 0.511997V18.048H380.658V0.511997H378.658ZM380.417 17.3972C377.499 13.993 373.29 12.44 368.65 12.44V14.44C372.841 14.44 376.44 15.831 378.898 18.6988L380.417 17.3972ZM368.65 12.44C363.456 12.44 358.874 14.2361 355.587 17.4803C352.297 20.7273 350.37 25.361 350.37 30.912H352.37C352.37 25.839 354.122 21.7367 356.992 18.9037C359.865 16.0679 363.923 14.44 368.65 14.44V12.44ZM350.37 30.912C350.37 36.4626 352.297 41.1113 355.585 44.3739C358.871 47.6341 363.453 49.448 368.65 49.448V47.448C363.926 47.448 359.868 45.8059 356.994 42.9541C354.122 40.1047 352.37 35.9854 352.37 30.912H350.37ZM368.65 49.448C373.557 49.448 377.835 47.7591 380.749 44.2197L379.206 42.9483C376.744 45.9369 373.086 47.448 368.65 47.448V49.448ZM378.978 43.584V48H380.978V43.584H378.978ZM379.978 49H387.658V47H379.978V49ZM388.658 48V0.511997H386.658V48H388.658ZM387.658 -0.488003H379.658V1.512H387.658V-0.488003ZM369.609 40.6C366.976 40.6 364.696 39.6527 363.075 38.0031C361.455 36.3547 360.434 33.9442 360.434 30.912H358.434C358.434 34.4078 359.62 37.3413 361.648 39.4049C363.675 41.4673 366.483 42.6 369.609 42.6V40.6ZM360.434 30.912C360.434 27.8798 361.455 25.4693 363.075 23.8209C364.696 22.1713 366.976 21.224 369.609 21.224V19.224C366.483 19.224 363.675 20.3567 361.648 22.4191C359.62 24.4827 358.434 27.4162 358.434 30.912H360.434ZM369.609 21.224C372.243 21.224 374.523 22.1713 376.144 23.8209C377.764 25.4693 378.785 27.8798 378.785 30.912H380.785C380.785 27.4162 379.599 24.4827 377.571 22.4191C375.544 20.3567 372.736 19.224 369.609 19.224V21.224ZM378.785 30.912C378.785 33.9442 377.764 36.3547 376.144 38.0031C374.523 39.6527 372.243 40.6 369.609 40.6V42.6C372.736 42.6 375.544 41.4673 377.571 39.4049C379.599 37.3413 380.785 34.4078 380.785 30.912H378.785Z" fill="url(#paint0_linear_317_21684)"/>
<defs>
<linearGradient id="paint0_linear_317_21684" x1="193.5" y1="4.33333" x2="193.5" y2="64" gradientUnits="userSpaceOnUse">
<stop stop-color="#ECB4D0"/>
<stop offset="0.791667" stop-color="#F9E3B0" stop-opacity="0.3"/>
<stop offset="1" stop-color="#F9E3B0" stop-opacity="0"/>
</linearGradient>
</defs>
</svg>
