<svg width="120" height="24" viewBox="0 0 120 24" fill="none" xmlns="http://www.w3.org/2000/svg">
<g clip-path="url(#clip0_208_645)">
<path d="M28.1919 8.26511H34.2834C34.8419 8.26511 35.3574 7.96621 35.6351 7.48109L38.5697 2.34724C38.9095 1.7523 38.4799 1.01221 37.7955 1.01221H31.4606C30.8258 1.01221 30.2387 1.35313 29.9236 1.90414L27.2707 6.70185C26.8822 7.40374 27.3901 8.26511 28.1919 8.26511Z" fill="#0F172A"/>
<path d="M26.0746 23.4881C25.9056 23.7956 25.5992 23.9857 25.2717 23.9857H18.5607C17.8543 23.9857 17.4276 23.1568 17.7913 22.4931L20.7105 17.1883C21.0752 16.5255 20.6485 15.6966 19.9411 15.6966H13.2301C12.9027 15.6966 12.5962 15.8857 12.4273 16.1942L8.41499 23.4891C8.24507 23.7966 7.93959 23.9866 7.6112 23.9866H0.902107C0.195686 23.9866 -0.231031 23.1577 0.132681 22.494L12.054 0.818399C12.3299 0.317046 12.8578 0.00477479 13.4296 0.00477479L19.9077 0C20.5492 0 20.9559 0.68757 20.6466 1.24908L18.0815 5.91405C17.8476 6.33901 17.1966 7.5604 16.7594 8.38166C16.5675 8.74168 16.8281 9.17523 17.2357 9.17715L24.9978 9.20006C25.5171 9.20197 25.9982 9.47509 26.2655 9.92106L29.726 15.6966C29.9494 16.0595 29.957 16.5246 29.7461 16.9028L26.0736 23.4891L26.0746 23.4881Z" fill="#0F172A"/>
<path d="M112.058 23.9971C111.194 23.999 110.37 23.6257 109.802 22.9725L104.552 16.9429C104.355 16.728 104.077 16.6058 103.786 16.6058H102.507C102.184 16.6058 101.905 16.8359 101.845 17.1549L100.722 23.1023C100.616 23.6132 100.165 23.9847 99.6484 23.9847H94.6213C94.3426 23.9847 94.0829 23.8615 93.9092 23.6467C93.7345 23.4299 93.6676 23.1472 93.7249 22.8693L95.9015 12.3858C96.037 11.7317 96.6136 11.2637 97.2809 11.2647L112.616 11.2819C113.161 11.2819 113.636 10.9114 113.769 10.3823L114.403 7.8488C114.453 7.61006 114.27 7.38565 114.026 7.38565L98.1687 7.39902C97.8642 7.39902 97.5826 7.26437 97.3935 7.0304C97.2036 6.79453 97.1301 6.48608 97.1931 6.18336L98.2374 1.15741C98.3424 0.649375 98.7911 0.280762 99.3047 0.280762H114.97C115.787 0.280762 116.549 0.445014 117.236 0.768745C117.935 1.09821 118.516 1.56613 118.964 2.15916C119.4 2.73882 119.706 3.41302 119.873 4.16362C120.04 4.92186 120.038 5.72498 119.866 6.55006L118.792 11.5932C118.626 12.4116 118.312 13.1908 117.86 13.9071C117.424 14.6004 116.891 15.2211 116.274 15.7501C115.65 16.2859 114.947 16.7099 114.183 17.0107C113.873 17.1339 113.553 17.2341 113.231 17.3086L117.958 22.5762C118.18 22.8235 118.23 23.1816 118.085 23.4891C117.944 23.7909 117.639 23.9857 117.311 23.9857L112.053 23.9971H112.058Z" fill="#0F172A"/>
<path d="M81.3741 23.9999C81.0753 23.9999 80.7975 23.8681 80.6113 23.637C80.4242 23.404 80.3517 23.1003 80.4137 22.8024L83.6718 7.89454C83.7224 7.66153 83.4332 7.50969 83.2709 7.68445L68.6375 23.4432C68.3091 23.7965 67.8509 23.9999 67.3783 23.9999H60.653C60.3943 23.9999 60.1642 23.8471 60.0659 23.6093C59.9695 23.3763 60.0201 23.1042 60.1948 22.916L80.765 0.72949C81.038 0.434408 81.4208 0.265381 81.8151 0.265381H90.8439C91.1628 0.265381 91.4597 0.406715 91.6573 0.652139C91.8577 0.900428 91.9341 1.22511 91.8682 1.54407L87.4073 23.0478C87.2927 23.5998 86.8068 23.9999 86.2503 23.9999H81.3731H81.3741Z" fill="#0F172A"/>
<path d="M51.3836 23.9999C51.0848 23.9999 50.807 23.8681 50.6208 23.637C50.4337 23.404 50.3612 23.1003 50.4232 22.8024L53.6814 7.89454C53.732 7.66153 53.4427 7.50969 53.2804 7.68445L38.647 23.4432C38.3186 23.7965 37.8604 23.9999 37.3878 23.9999H30.6625C30.4038 23.9999 30.1738 23.8471 30.0754 23.6093C29.979 23.3763 30.0296 23.1042 30.2043 22.916L50.7755 0.72949C51.0485 0.434408 51.4313 0.265381 51.8256 0.265381H60.8544C61.1732 0.265381 61.4701 0.406715 61.6677 0.652139C61.8682 0.900428 61.9446 1.22511 61.8787 1.54407L57.4178 23.0478C57.3032 23.5998 56.8173 23.9999 56.2608 23.9999H51.3836Z" fill="#0F172A"/>
</g>
<defs>
<clipPath id="clip0_208_645">
<rect width="120" height="24" fill="white"/>
</clipPath>
</defs>
</svg>
