<svg width="22" height="22" viewBox="0 0 22 22" fill="none" xmlns="http://www.w3.org/2000/svg">
<g clip-path="url(#clip0_819_1034)">
<path fill-rule="evenodd" clip-rule="evenodd" d="M7.21542 1.32295C8.25808 1.27495 8.59053 1.26428 11.2465 1.26428C13.9025 1.26428 14.235 1.27584 15.2768 1.32295C16.3185 1.37006 17.0296 1.53628 17.6519 1.77717C18.3034 2.02339 18.8945 2.40828 19.3834 2.90606C19.8812 3.39406 20.2652 3.98428 20.5105 4.63673C20.7523 5.25895 20.9176 5.97006 20.9656 7.01006C21.0136 8.05451 21.0243 8.38695 21.0243 11.0421C21.0243 13.6981 21.0128 14.0305 20.9656 15.0732C20.9185 16.1132 20.7523 16.8243 20.5105 17.4465C20.2652 18.099 19.8806 18.6902 19.3834 19.1789C18.8945 19.6767 18.3034 20.0607 17.6519 20.3061C17.0296 20.5478 16.3185 20.7132 15.2785 20.7612C14.235 20.8092 13.9025 20.8198 11.2465 20.8198C8.59053 20.8198 8.25808 20.8083 7.21542 20.7612C6.17542 20.7141 5.46431 20.5478 4.84208 20.3061C4.18957 20.0607 3.59837 19.6761 3.10964 19.1789C2.6122 18.6907 2.22725 18.0997 1.98164 17.4474C1.74075 16.8252 1.57542 16.1141 1.52742 15.0741C1.47942 14.0296 1.46875 13.6972 1.46875 11.0421C1.46875 8.38606 1.48031 8.05362 1.52742 7.01184C1.57453 5.97006 1.74075 5.25895 1.98164 4.63673C2.22761 3.98435 2.61286 3.39345 3.11053 2.90517C3.59856 2.40784 4.18917 2.0229 4.84119 1.77717C5.46342 1.53628 6.17453 1.37095 7.21453 1.32295H7.21542ZM15.1976 3.08295C14.1665 3.03584 13.8572 3.02606 11.2465 3.02606C8.63586 3.02606 8.32653 3.03584 7.29542 3.08295C6.34164 3.1265 5.82431 3.28562 5.47942 3.41984C5.02342 3.59762 4.69719 3.80828 4.35497 4.1505C4.03057 4.46611 3.78091 4.85031 3.62431 5.27495C3.49008 5.61984 3.33097 6.13717 3.28742 7.09095C3.24031 8.12206 3.23053 8.43139 3.23053 11.0421C3.23053 13.6527 3.24031 13.9621 3.28742 14.9932C3.33097 15.9469 3.49008 16.4643 3.62431 16.8092C3.78075 17.2332 4.03053 17.6181 4.35497 17.9336C4.67053 18.2581 5.05542 18.5078 5.47942 18.6643C5.82431 18.7985 6.34164 18.9576 7.29542 19.0012C8.32653 19.0483 8.63497 19.0581 11.2465 19.0581C13.8581 19.0581 14.1665 19.0483 15.1976 19.0012C16.1514 18.9576 16.6688 18.7985 17.0136 18.6643C17.4696 18.4865 17.7959 18.2758 18.1381 17.9336C18.4625 17.6181 18.7123 17.2332 18.8688 16.8092C19.003 16.4643 19.1621 15.9469 19.2056 14.9932C19.2528 13.9621 19.2625 13.6527 19.2625 11.0421C19.2625 8.43139 19.2528 8.12206 19.2056 7.09095C19.1621 6.13717 19.003 5.61984 18.8688 5.27495C18.691 4.81895 18.4803 4.49273 18.1381 4.1505C17.8225 3.82612 17.4383 3.57647 17.0136 3.41984C16.6688 3.28562 16.1514 3.1265 15.1976 3.08295ZM9.99764 14.0563C10.6951 14.3466 11.4718 14.3858 12.1949 14.1671C12.9181 13.9485 13.5429 13.4855 13.9626 12.8574C14.3824 12.2292 14.571 11.4748 14.4963 10.723C14.4217 9.97125 14.0883 9.2687 13.5532 8.73539C13.2121 8.39448 12.7996 8.13345 12.3455 7.97108C11.8914 7.80871 11.4069 7.74905 10.927 7.79639C10.447 7.84372 9.98355 7.99688 9.56991 8.24484C9.15627 8.4928 8.80275 8.82939 8.5348 9.23037C8.26685 9.63136 8.09114 10.0868 8.02032 10.5638C7.9495 11.0408 7.98533 11.5277 8.12523 11.9892C8.26513 12.4507 8.50562 12.8755 8.82939 13.2329C9.15316 13.5904 9.55215 13.8716 9.99764 14.0563ZM7.69275 7.48828C8.15944 7.02159 8.71348 6.6514 9.32324 6.39883C9.933 6.14626 10.5865 6.01626 11.2465 6.01626C11.9065 6.01626 12.5601 6.14626 13.1698 6.39883C13.7796 6.6514 14.3336 7.02159 14.8003 7.48828C15.267 7.95497 15.6372 8.50901 15.8898 9.11877C16.1423 9.72853 16.2723 10.3821 16.2723 11.0421C16.2723 11.7021 16.1423 12.3556 15.8898 12.9654C15.6372 13.5751 15.267 14.1292 14.8003 14.5958C13.8578 15.5384 12.5795 16.0679 11.2465 16.0679C9.9136 16.0679 8.63527 15.5384 7.69275 14.5958C6.75023 13.6533 6.22073 12.375 6.22073 11.0421C6.22073 9.70914 6.75023 8.4308 7.69275 7.48828ZM17.387 6.76473C17.5026 6.65563 17.5952 6.52444 17.6592 6.37893C17.7233 6.23341 17.7575 6.07652 17.7598 5.91755C17.7621 5.75859 17.7325 5.60077 17.6727 5.45345C17.613 5.30612 17.5242 5.17229 17.4118 5.05987C17.2994 4.94745 17.1656 4.85873 17.0183 4.79896C16.8709 4.7392 16.7131 4.70959 16.5541 4.71191C16.3952 4.71423 16.2383 4.74842 16.0928 4.81246C15.9473 4.87649 15.8161 4.96908 15.707 5.08473C15.4948 5.30964 15.3786 5.60839 15.3832 5.91755C15.3877 6.22672 15.5125 6.52195 15.7311 6.74059C15.9497 6.95922 16.245 7.08404 16.5541 7.08855C16.8633 7.09306 17.1621 6.9769 17.387 6.76473Z" fill="white"/>
</g>
<defs>
<clipPath id="clip0_819_1034">
<rect width="21.3333" height="21.3333" fill="white" transform="translate(0.578125 0.375366)"/>
</clipPath>
</defs>
</svg>
