<svg width="20" height="20" viewBox="0 0 20 20" fill="none" xmlns="http://www.w3.org/2000/svg">
<path fill-rule="evenodd" clip-rule="evenodd" d="M8.01592 7.45661H10.8829V8.88468C11.2958 8.06334 12.3549 7.32538 13.9459 7.32538C16.9958 7.32538 17.7198 8.96033 17.7198 11.96V17.5156H14.6321V12.6432C14.6321 10.9349 14.2191 9.97155 13.1678 9.97155C11.7096 9.97155 11.1036 11.0098 11.1036 12.6424V17.5156H8.01592V7.45661ZM2.72125 17.3844H5.80897V7.32538H2.72125V17.3844ZM6.25129 4.04545C6.2514 4.30426 6.20007 4.56051 6.10029 4.7993C6.0005 5.0381 5.85424 5.25469 5.67002 5.43647C5.29672 5.80747 4.79142 6.01515 4.26511 6.01387C3.73973 6.01352 3.2356 5.80637 2.86174 5.43724C2.67819 5.25484 2.53243 5.03801 2.43281 4.79918C2.3332 4.56036 2.2817 4.30422 2.28125 4.04545C2.28125 3.52285 2.48967 3.02264 2.86251 2.65366C3.23604 2.28403 3.74038 2.0768 4.26588 2.07703C4.79234 2.07703 5.29718 2.28468 5.67002 2.65366C6.04209 3.02264 6.25129 3.52285 6.25129 4.04545Z" fill="white"/>
</svg>
