<svg width="27" height="27" viewBox="0 0 27 27" fill="none" xmlns="http://www.w3.org/2000/svg">
<path d="M22.1329 7.56185C23.1006 6.98331 23.8247 6.07233 24.17 4.99901C23.2606 5.53858 22.2657 5.91867 21.2282 6.12281C20.5285 5.38262 19.6047 4.89312 18.5993 4.72977C17.5939 4.56642 16.5627 4.73828 15.6647 5.21886C14.7666 5.69945 14.0515 6.46207 13.6297 7.38918C13.2078 8.3163 13.1026 9.35642 13.3303 10.3492C11.4884 10.2568 9.68662 9.77802 8.0418 8.94408C6.39697 8.11014 4.9459 6.93964 3.78276 5.50855C3.19123 6.52883 3.01023 7.73601 3.2765 8.88491C3.54277 10.0338 4.23636 11.0383 5.21639 11.6943C4.48091 11.6707 3.76173 11.4716 3.11884 11.1136V11.1718C3.11904 12.2416 3.48926 13.2784 4.16671 14.1064C4.84416 14.9344 5.78713 15.5026 6.83571 15.7146C6.15351 15.9002 5.43792 15.9275 4.74355 15.7945C5.04013 16.7146 5.61659 17.5191 6.39246 18.0959C7.16832 18.6726 8.10489 18.9927 9.07145 19.0115C7.43036 20.2995 5.40367 20.998 3.31747 20.9946C2.94719 20.9946 2.57798 20.973 2.21094 20.9309C4.32945 22.2922 6.7951 23.0148 9.31327 23.0123C11.0477 23.0242 12.7671 22.6914 14.3718 22.0331C15.9765 21.3748 17.4344 20.4043 18.6608 19.1778C19.8871 17.9513 20.8576 16.4933 21.5157 14.8886C22.1739 13.2839 22.5066 11.5644 22.4945 9.82997C22.4945 9.62918 22.4902 9.42946 22.4805 9.23082C23.3878 8.57513 24.1709 7.76282 24.7929 6.83207C23.9476 7.20673 23.051 7.45271 22.1329 7.56185Z" fill="white"/>
</svg>
